<?xml version="1.0" encoding="utf-8"?>
<!-- Generator: Adobe Illustrator 26.0.1, SVG Export Plug-In . SVG Version: 6.00 Build 0)  -->
<svg version="1.1" id="Layer_1" xmlns="http://www.w3.org/2000/svg" xmlns:xlink="http://www.w3.org/1999/xlink" x="0px" y="0px"
	 viewBox="0 0 72 72" style="enable-background:new 0 0 72 72;" xml:space="preserve">
<style type="text/css">
	.st0{fill:#FFFFFF;}
</style>
<g>
	<path class="st0" d="M17,36.13c0-5.23,0-10.45,0-15.68c0-0.68,0-0.68-0.68-0.68c-1.14,0-2.28,0-3.42,0c-0.77,0-0.94-0.18-0.94-0.96
		c0-2.34,0-4.69,0-7.03c0-0.75,0.21-0.97,0.96-0.97c2.72-0.01,5.45-0.01,8.17-0.01c0.68,0,0.69,0,0.69-0.69
		c0-2.61,0.01-5.23,0.01-7.84c0-0.21,0.01-0.41,0.03-0.62C21.86,1.23,22.08,1,22.56,1c2.11,0.01,4.21,0,6.32,0
		c0.6,0,0.8,0.22,0.8,0.86c0,2.74,0,5.48,0,8.22c0,0.74,0,0.74,0.72,0.74c0.79,0,1.58-0.01,2.37,0c0.35,0.01,0.51-0.12,0.47-0.47
		c-0.17-1.44,0.04-2.87-0.03-4.31c-0.07-1.39,0.05-2.78-0.01-4.17c-0.03-0.62,0.26-0.86,0.87-0.86c2.06,0,4.12,0,6.18,0
		c0.65,0,0.85,0.2,0.85,0.85c0,2.82,0.01,5.64,0,8.46c0,0.41,0.1,0.57,0.54,0.61c1.99,0.16,3.97,0.39,5.88,1.03
		c2.87,0.95,5.41,2.39,7.23,4.89c1.24,1.7,1.85,3.63,2.01,5.7c0.22,2.79-0.34,5.42-1.84,7.81c-0.57,0.9-1.23,1.73-2.05,2.41
		c-0.27,0.22-0.3,0.34,0.03,0.54c2.91,1.78,5.09,4.21,6.31,7.42c0.94,2.49,1.05,5.07,0.57,7.67c-0.48,2.58-1.52,4.92-3.25,6.92
		c-1.57,1.82-3.52,3.12-5.73,4.04c-2.45,1.02-5.03,1.49-7.65,1.74c-0.47,0.05-0.95,0.09-1.42,0.11c-0.44,0.02-0.63,0.17-0.63,0.66
		c0.02,2.71,0.01,5.42,0.01,8.12c0,0.87-0.15,1.01-1.03,1.01c-1.98,0-3.96,0-5.94,0c-0.69,0-1-0.26-0.93-0.94
		c0.15-1.39-0.06-2.78,0.02-4.17c0.08-1.37-0.07-2.75,0.02-4.13c0.03-0.36-0.12-0.47-0.47-0.46c-0.85,0.02-1.71,0.03-2.56,0
		c-0.43-0.01-0.54,0.14-0.54,0.55c0.02,2.61,0.01,5.23,0.01,7.84c0,0.22,0.01,0.44-0.01,0.66c-0.03,0.41-0.25,0.65-0.67,0.65
		C26.84,71,24.67,71,22.5,71c-0.39,0-0.63-0.22-0.68-0.6c-0.05-0.38-0.05-0.76-0.05-1.14c0-2.39-0.01-4.78,0.01-7.17
		c0-0.47-0.13-0.63-0.62-0.64c-2.09-0.03-4.17-0.03-6.26,0.01c-0.74,0.01-1.49-0.03-2.23-0.05c-0.47-0.02-0.71-0.23-0.71-0.7
		c-0.01-2.5-0.01-5,0-7.51c0-0.49,0.22-0.69,0.76-0.69c1.2-0.01,2.41,0,3.61,0c0.66,0,0.66,0,0.66-0.64C17,46.62,17,41.38,17,36.13z
		 M28.63,45.21c0,2.28,0,4.56,0,6.84c0,0.3-0.02,0.57,0.42,0.57c3.91-0.05,7.82,0.14,11.72-0.13c1.36-0.1,2.73-0.3,4.02-0.83
		c1.72-0.7,2.76-1.9,3.14-3.74c0.31-1.5,0.3-3,0.2-4.49c-0.15-2.34-1.34-3.96-3.64-4.69c-1.86-0.59-3.78-0.83-5.7-0.87
		c-3.2-0.07-6.39-0.02-9.59-0.05c-0.46,0-0.59,0.17-0.59,0.61C28.64,40.69,28.63,42.95,28.63,45.21z M34.03,29.32
		c1.69-0.04,3.77,0.12,5.83-0.18c1.19-0.17,2.33-0.51,3.25-1.32c1.46-1.29,1.98-2.98,1.8-4.88c-0.13-1.37-0.9-2.24-2.22-2.67
		c-1.3-0.42-2.65-0.46-3.99-0.48c-2.42-0.03-4.84,0-7.26,0c-0.77,0-1.55,0.12-2.32,0.01c-0.39-0.06-0.5,0.09-0.5,0.46
		c0.01,2.85,0.01,5.7-0.01,8.54c0,0.39,0.13,0.52,0.52,0.52C30.64,29.31,32.14,29.32,34.03,29.32z"/>
</g>
</svg>
