<?xml version="1.0" encoding="utf-8"?>
<!-- Generator: Adobe Illustrator 26.0.1, SVG Export Plug-In . SVG Version: 6.00 Build 0)  -->
<svg version="1.1" id="Layer_1" xmlns="http://www.w3.org/2000/svg" xmlns:xlink="http://www.w3.org/1999/xlink" x="0px" y="0px"
	 viewBox="0 0 72 72" style="enable-background:new 0 0 72 72;" xml:space="preserve">
<style type="text/css">
	.st0{fill:#FFFFFF;}
</style>
<g>
	<path class="st0" d="M36.05,46.86c-0.25-0.01-0.44-0.13-0.63-0.23c-6-3.07-12.01-6.11-17.99-9.23c-0.98-0.51-1.96-1.02-2.94-1.54
		c-0.6-0.31-0.66-0.52-0.29-1.1c1.68-2.7,3.36-5.39,5.04-8.09c4.91-7.86,9.85-15.69,14.71-23.58c0.45-0.73,0.93-1.46,1.4-2.18
		c0.27-0.42,0.42-0.42,0.69,0c1.93,2.99,3.87,5.99,5.79,8.99c2.91,4.54,5.86,9.04,8.82,13.55c2.42,3.69,4.81,7.41,7.21,11.11
		c0.32,0.49,0.26,0.71-0.27,0.99c-2.17,1.16-4.33,2.32-6.51,3.46c-4.8,2.53-9.59,5.05-14.39,7.58
		C36.47,46.72,36.27,46.83,36.05,46.86z"/>
	<path class="st0" d="M15.74,39c0.08,0.04,0.22,0.09,0.34,0.16c3.04,1.61,6.08,3.22,9.12,4.84c3.06,1.63,6.11,3.27,9.16,4.9
		c0.34,0.18,0.69,0.36,1.02,0.55c0.4,0.24,0.78,0.22,1.19,0c2.06-1.13,4.12-2.24,6.18-3.37c3.34-1.82,6.68-3.64,10.02-5.47
		c0.96-0.52,1.92-1.05,2.89-1.57c0.18-0.1,0.38-0.17,0.58-0.25c0.11-0.04,0.22-0.03,0.31,0.06c0.09,0.1,0.05,0.21-0.01,0.31
		c-0.22,0.36-0.44,0.72-0.67,1.07c-6.22,9.62-12.43,19.24-18.65,28.85c-0.22,0.33-0.41,0.68-0.64,1.01
		c-0.28,0.41-0.51,0.41-0.79-0.01c-0.67-0.99-1.32-1.99-1.98-2.99c-4.48-6.76-8.96-13.52-13.44-20.28
		c-1.61-2.43-3.22-4.85-4.82-7.28c-0.08-0.12-0.21-0.24-0.12-0.42C15.48,39.01,15.58,38.99,15.74,39z"/>
</g>
</svg>
