<?xml version="1.0" encoding="utf-8"?>
<!-- Generator: Adobe Illustrator 26.0.1, SVG Export Plug-In . SVG Version: 6.00 Build 0)  -->
<svg version="1.1" id="Layer_1" xmlns="http://www.w3.org/2000/svg" xmlns:xlink="http://www.w3.org/1999/xlink" x="0px" y="0px"
	 viewBox="0 0 72 72" style="enable-background:new 0 0 72 72;" xml:space="preserve">
<style type="text/css">
	.st0{fill:#FFFFFF;}
</style>
<g>
	<path class="st0" d="M66.66,35.99c0,5.47-0.02,10.93,0.02,16.4c0.01,0.93-0.28,1.49-1.11,1.96c-9.3,5.33-18.59,10.68-27.84,16.1
		c-1.26,0.73-2.14,0.75-3.43-0.01c-9.24-5.43-18.54-10.76-27.85-16.09c-0.82-0.47-1.14-1-1.14-1.94c0.03-10.93,0.03-21.86,0-32.79
		c0-0.93,0.28-1.49,1.11-1.96c9.3-5.33,18.59-10.68,27.84-16.1c1.26-0.74,2.14-0.75,3.43,0.01c9.24,5.43,18.54,10.76,27.85,16.09
		c0.82,0.47,1.14,1,1.14,1.94C66.64,25.06,66.66,30.52,66.66,35.99z M56.14,36.09c0-3.49-0.03-6.99,0.02-10.48
		c0.01-0.89-0.29-1.42-1.07-1.86c-6.03-3.44-12.04-6.9-18.04-10.4c-0.78-0.45-1.36-0.44-2.13,0.01
		c-6.06,3.54-12.15,7.05-18.25,10.53c-0.71,0.4-0.82,0.91-0.81,1.61c0.01,6.94,0.03,13.89-0.01,20.83
		c-0.01,0.95,0.31,1.49,1.13,1.95c6.06,3.46,12.11,6.95,18.15,10.45c0.66,0.38,1.16,0.36,1.81-0.02
		c6.14-3.57,12.29-7.12,18.46-10.65c0.66-0.38,0.76-0.86,0.76-1.51C56.13,43.07,56.14,39.58,56.14,36.09z"/>
</g>
</svg>
