<?xml version="1.0" encoding="utf-8"?>
<!-- Generator: Adobe Illustrator 26.0.1, SVG Export Plug-In . SVG Version: 6.00 Build 0)  -->
<svg version="1.1" id="Layer_1" xmlns="http://www.w3.org/2000/svg" xmlns:xlink="http://www.w3.org/1999/xlink" x="0px" y="0px"
	 viewBox="0 0 72 72" style="enable-background:new 0 0 72 72;" xml:space="preserve">
<style type="text/css">
	.st0{fill:#FFFFFF;}
</style>
<g>
	<path class="st0" d="M29.14,28.73c8.81,0,17.62,0.01,26.43-0.02c1.03,0,1.79,0.29,2.53,1.03c4.06,4.11,8.16,8.17,12.24,12.26
		c0.28,0.28,0.8,0.54,0.63,0.98c-0.17,0.46-0.73,0.27-1.12,0.27c-17.95,0.01-35.9,0.01-53.85,0.03c-0.83,0-1.4-0.34-1.95-0.9
		c-4.1-4.12-8.23-8.22-12.33-12.34c-0.29-0.29-0.89-0.55-0.65-1.07c0.19-0.41,0.75-0.23,1.15-0.23
		C11.19,28.73,20.16,28.74,29.14,28.73C29.14,28.74,29.14,28.73,29.14,28.73z"/>
	<path class="st0" d="M29.09,21.11c-8.81,0-17.62,0-26.44,0c-0.33,0-0.67,0.01-1-0.01c-0.23-0.01-0.54,0.06-0.64-0.24
		c-0.09-0.28,0.18-0.43,0.34-0.61c0.11-0.12,0.23-0.24,0.35-0.35c4.06-4.06,8.13-8.1,12.16-12.18c0.69-0.7,1.4-1.02,2.4-1.01
		c17.83,0.03,35.66,0.02,53.5,0.02c0.4,0,0.95-0.2,1.15,0.2c0.21,0.44-0.33,0.69-0.6,0.97c-4.11,4.12-8.24,8.22-12.33,12.36
		c-0.64,0.65-1.31,0.88-2.21,0.87C46.88,21.11,37.99,21.11,29.09,21.11z"/>
	<path class="st0" d="M29.06,65.28c-8.94,0-17.87,0-26.81,0c-0.4,0-0.98,0.19-1.16-0.18c-0.25-0.5,0.37-0.76,0.66-1.06
		c4.07-4.1,8.17-8.17,12.24-12.27c0.63-0.63,1.29-0.9,2.2-0.9c17.83,0.02,35.66,0.02,53.5,0.02c0.29,0,0.58-0.01,0.87,0.02
		c0.49,0.04,0.56,0.29,0.26,0.65c-0.16,0.19-0.34,0.36-0.52,0.54c-4.09,4.08-8.19,8.15-12.25,12.26c-0.67,0.68-1.36,0.94-2.3,0.94
		C46.85,65.27,37.96,65.28,29.06,65.28z"/>
</g>
</svg>
