<?xml version="1.0" encoding="utf-8"?>
<!-- Generator: Adobe Illustrator 26.0.1, SVG Export Plug-In . SVG Version: 6.00 Build 0)  -->
<svg version="1.1" id="Layer_1" xmlns="http://www.w3.org/2000/svg" xmlns:xlink="http://www.w3.org/1999/xlink" x="0px" y="0px"
	 viewBox="0 0 72 72" style="enable-background:new 0 0 72 72;" xml:space="preserve">
<style type="text/css">
	.st0{fill:#FFFFFF;}
</style>
<g>
	<path class="st0" d="M47.01,71c-2.23-0.86-3.46-2.64-4.35-4.73c-0.57-1.34-1.09-2.71-2.01-3.86c-1.27-1.6-2.88-2.47-4.98-2.17
		c-1.59,0.23-2.59,1.5-2.42,3.07c0.14,1.32,1.6,2.52,2.98,2.45c1.14-0.06,2.03-1.04,1.99-2.22c-0.03-1.08-0.87-1.84-1.99-1.77
		c-0.86,0.05-1.11,0.32-1.54,1.66c-0.46-1.37,0.41-2.49,1.93-2.43c1.2,0.05,2.12,0.62,2.56,1.77c0.51,1.34,0.02,2.96-1.08,3.81
		c-1.29,1-3.07,1.07-4.65,0.07c-0.67-0.42-1.3-0.95-1.84-1.54c-1.84-2.04-3.98-3.49-6.8-3.78c-0.44-0.05-1.77-0.13-0.66-1.05
		c4.03-3.34,8.52-5.55,13.96-4.47c3.61,0.72,5.81,2.98,6.55,6.61c0.23,1.13,0.4,2.27,0.61,3.4c0.64,3.41,2.27,4.51,5.66,3.85
		c0.46-0.09,0.9-0.39,1.52-0.24c-0.68,0.89-1.64,1.11-2.44,1.57C49.02,71,48.01,71,47.01,71z"/>
	<path class="st0" d="M13.8,16.41c0.85,0.24,0.97,0.78,1.22,1.17c2.39,3.65,4.76,7.32,7.13,10.98c0.79,1.22,1.75,2.02,3.35,1.72
		c2.11-0.39,2.54-1.38,1.2-3.04c-3.08-3.83-6.18-7.65-9.29-11.45C13.66,11.2,9.9,6.63,6.15,2.05C5.91,1.76,5.61,1.48,5.6,1
		c0.69,0.09,0.94,0.62,1.29,1c7.45,8.21,14.88,16.44,22.32,24.66c1.25,1.38,1.26,2.85,0.06,4.28c-1.17,1.39-2.74,1.95-4.48,2.21
		c-1.97,0.29-2.52,0.8-2.7,2.78c-0.23,2.69-1.02,5.18-2.2,7.6c-1.46,2.99-0.9,4.95,1.75,6.94c0.68,0.51,1.39,0.99,2.03,1.55
		c1.94,1.7,2.06,4.29,0.22,6.11c-2.16,2.12-4.91,3.04-7.79,3.63c-0.45,0.09-0.84,0.08-1.12-0.46c-0.74-1.42-1.64-2.76-2.35-4.2
		c-1.84-3.73-1.88-7.33,0.93-10.67c0.42-0.5,0.79-1.04,1.22-1.53c2.28-2.65,3.79-5.65,4.13-9.18c0.16-1.63,0.66-3.15,1.83-4.36
		c0.7-0.73,0.48-1.43,0.06-2.19c-1.95-3.51-3.88-7.03-5.81-10.54C14.6,17.96,14.25,17.27,13.8,16.41z"/>
	<path class="st0" d="M64.79,50.28c-0.55-0.35-0.35-0.99-0.52-1.48c-0.63-1.81-1.9-3.04-3.5-3.98c-2.47-1.45-5.15-2.45-7.79-3.55
		c-2.27-0.95-4.49-2.01-6.38-3.62c-1.91-1.63-2.9-3.68-2.71-6.23c0.03-0.45,0.05-1.1,0.73-0.62c3.03,2.14,6.65,2.05,10.05,2.72
		c2.18,0.43,4.3,0.96,6.25,2.06c5.8,3.28,6.44,9.75,4.48,14.07C65.29,49.91,65.19,50.23,64.79,50.28z"/>
	<path class="st0" d="M62.18,34.54c-2.46-3.94-6.53-3.13-10.1-3.43c-4.84-0.4-8.82-2.11-11.68-6.14c-0.64-0.9-1.35-1.75-2.02-2.62
		c-2.72-3.56-5.73-6.72-10.5-7.51c1.66-0.41,3.17-0.01,4.64,0.54c2.47,0.91,4.4,2.58,6.11,4.51c0.59,0.67,1.17,0.92,2.08,0.78
		c4.22-0.64,8.3-0.12,12.15,1.79c2.63,1.3,3.26,2.88,2.51,5.76c-0.2,0.77-1.14,1.84,0.22,2.29c1.21,0.4,1.49-0.85,1.94-1.67
		c0.33-0.6,0.2-1.72,0.82-1.8c0.84-0.12,1.17,0.95,1.62,1.58C61.48,30.74,62.12,32.4,62.18,34.54z"/>
	<path class="st0" d="M57.74,65.44c-0.21-0.31-0.01-0.59,0.09-0.85c1.02-2.5,0.7-4.9-0.53-7.24c-1.29-2.44-2.95-4.65-4.44-6.97
		c-1.28-2.01-1.94-4.16-1.72-6.56c0.14-1.49,0.48-1.69,1.76-0.94c2.5,1.47,5.16,2.69,7.44,4.52c5.61,4.5,4.79,14.18-1.5,17.71
		C58.5,65.31,58.18,65.59,57.74,65.44z"/>
	<path class="st0" d="M27.06,18.45c-0.01-2.05,0.31-2.26,1.93-1.69c2.05,0.73,3.13,2.26,3.62,4.27c0.53,2.19,0.86,4.44,2.25,6.32
		c0.21,0.28,0.36,0.64,0.03,0.95c-0.28,0.28-0.64,0.24-0.99,0.17c-1.81-0.4-3.16-1.51-4.24-2.92C28,23.38,27.22,20.86,27.06,18.45z"
		/>
	<path class="st0" d="M48.31,40.9c3.31,3.56,1.76,8.98-2.74,10.78c-1.26,0.51-2.6,0.69-3.95,0.83c-2.81,0.29-5.66,0.21-8.41,1.09
		c1.78-1.67,4.03-2.09,6.25-2.55c1.08-0.22,2.16-0.39,3.24-0.6c4.88-0.95,6.83-4.76,5.75-8.36C48.37,41.82,48.38,41.52,48.31,40.9z"
		/>
	<path class="st0" d="M31.31,38.57c-1.6-0.01-2.28-0.64-2.25-2.11c0.03-1.68,1.45-3.15,3.02-3.13c1.66,0.02,3.34,1.5,3.28,2.9
		C35.29,37.55,33.5,38.59,31.31,38.57z"/>
	<path class="st0" d="M51.42,19.78c1.35,0.02,2.15,0.43,2.96,0.77c0.84,0.34,1.3,0.26,1.33-0.81c0.03-0.97,0.07-1.98,0.88-2.92
		c-0.87,3.99,1.91,6.22,4.08,8.76c-0.83-0.08-1.22-0.7-1.79-1.07c-0.37-0.24-0.7-0.71-1.18-0.5c-0.51,0.22-0.35,0.78-0.35,1.21
		c0,1.35-0.2,2.63-1.09,4.2c0.04-2.32,0.44-4.27-0.26-6.07C55.3,21.48,53.22,21.08,51.42,19.78z"/>
</g>
</svg>
