<svg id="Ñëîé_1" data-name="Ñëîé 1" xmlns="http://www.w3.org/2000/svg" xmlns:xlink="http://www.w3.org/1999/xlink" viewBox="0 0 4046 3685.85"><defs><style>.cls-1{fill:url(#linear-gradient);}.cls-2,.cls-3,.cls-4{fill:#843af6;}.cls-2{opacity:0.5;}.cls-23,.cls-3{opacity:0.2;}.cls-4{opacity:0.7;}.cls-5{fill:#0f054c;}.cls-22,.cls-5{opacity:0.4;}.cls-6{fill:url(#linear-gradient-2);}.cls-10,.cls-7{opacity:0.48;}.cls-7{fill:url(#Áåçûìÿííûé_ãðàäèåíò_15);}.cls-8{fill:#fff;}.cls-9{fill:url(#linear-gradient-3);}.cls-10{fill:url(#Áåçûìÿííûé_ãðàäèåíò_15-3);}.cls-11{fill:url(#linear-gradient-4);}.cls-12{fill:#42e8e0;opacity:0.3;}.cls-13{opacity:0.05;}.cls-14{clip-path:url(#clip-path);}.cls-15{fill:url(#Áåçûìÿííûé_ãðàäèåíò_59);}.cls-16{fill:#8539f6;}.cls-17{fill:#8239f5;}.cls-18,.cls-20,.cls-21,.cls-22,.cls-23,.cls-24{fill:#5d3af7;}.cls-19{mask:url(#mask);}.cls-20{opacity:0.8;}.cls-21{opacity:0.6;}.cls-24{opacity:0.1;}.cls-25{filter:url(#luminosity-noclip);}</style><linearGradient id="linear-gradient" x1="-244.18" y1="-242.88" x2="384.68" y2="2900.02" gradientUnits="userSpaceOnUse"><stop offset="0" stop-color="#fff"/><stop offset="0.07" stop-color="#e5d4fd"/><stop offset="0.15" stop-color="#cdabfb"/><stop offset="0.24" stop-color="#b788f9"/><stop offset="0.33" stop-color="#a66bf8"/><stop offset="0.43" stop-color="#9955f6"/><stop offset="0.53" stop-color="#8f45f6"/><stop offset="0.65" stop-color="#8a3cf5"/><stop offset="0.82" stop-color="#8839f5"/></linearGradient><linearGradient id="linear-gradient-2" x1="-653.03" y1="-426.62" x2="-485.6" y2="2402.6" gradientTransform="matrix(1, -0.58, 0.87, 0.5, 1734.21, 1865.15)" xlink:href="#linear-gradient"/><linearGradient id="Áåçûìÿííûé_ãðàäèåíò_15" x1="-1508.71" y1="973.53" x2="1008.14" y2="973.53" gradientUnits="userSpaceOnUse"><stop offset="0" stop-color="#42e8e0"/><stop offset="0.15" stop-color="#43e3e0"/><stop offset="0.33" stop-color="#45d5df"/><stop offset="0.52" stop-color="#49bddd"/><stop offset="0.72" stop-color="#4e9cdb"/><stop offset="0.93" stop-color="#5472d8"/><stop offset="1" stop-color="#5761d7"/></linearGradient><linearGradient id="linear-gradient-3" x1="-1508.71" y1="910.64" x2="1008.14" y2="910.64" xlink:href="#linear-gradient"/><linearGradient id="Áåçûìÿííûé_ãðàäèåíò_15-3" x1="-1307.54" y1="977.22" x2="1216.52" y2="977.22" xlink:href="#Áåçûìÿííûé_ãðàäèåíò_15"/><linearGradient id="linear-gradient-4" x1="-389.33" y1="-731.13" x2="-221.89" y2="2098.09" gradientTransform="matrix(1, -0.58, 0.87, 0.5, 1734.21, 1865.15)" xlink:href="#linear-gradient"/><clipPath id="clip-path" transform="translate(2068.51 1635.76)"><ellipse class="cls-1" cx="-45.77" cy="748.71" rx="1125.64" ry="649.89"/></clipPath><linearGradient id="Áåçûìÿííûé_ãðàäèåíò_59" x1="-1171.33" y1="434.73" x2="1079.79" y2="434.73" gradientUnits="userSpaceOnUse"><stop offset="0" stop-color="#2b237c"/><stop offset="1" stop-color="#180d5b"/></linearGradient><filter id="luminosity-noclip" x="-720.24" y="-214.03" width="480.2" height="615.13" filterUnits="userSpaceOnUse" color-interpolation-filters="sRGB"><feFlood flood-color="#fff" result="bg"/><feBlend in="SourceGraphic" in2="bg"/></filter><mask id="mask" x="1348.26" y="1421.74" width="480.2" height="615.13" maskUnits="userSpaceOnUse"><g class="cls-25"/></mask></defs><polygon class="cls-2" points="3628.42 2348.09 3751.66 2419.25 3751.66 2703.86 3628.42 2632.71 3628.42 2348.09"/><polygon class="cls-3" points="3505.17 2419.24 3628.42 2490.4 3628.42 2632.71 3505.17 2561.55 3505.17 2419.24"/><polygon class="cls-4" points="3381.93 1921.17 3505.17 1992.32 3505.17 2561.55 3381.93 2490.39 3381.93 1921.17"/><polygon class="cls-3" points="3258.68 1707.7 3381.93 1778.86 3381.93 2490.39 3258.68 2419.24 3258.68 1707.7"/><polygon class="cls-2" points="3135.44 1778.86 3258.68 1850.01 3258.68 2419.24 3135.44 2348.08 3135.44 1778.86"/><polygon class="cls-3" points="3012.19 1280.78 3135.44 1351.93 3135.44 2348.08 3012.19 2276.93 3012.19 1280.78"/><polygon class="cls-2" points="2888.95 1351.93 3012.19 1423.09 3012.19 2276.93 2888.95 2205.77 2888.95 1351.93"/><polygon class="cls-3" points="2765.7 1423.08 2888.95 1494.24 2888.95 2205.77 2765.7 2134.62 2765.7 1423.08"/><polygon class="cls-2" points="2642.46 1067.31 2765.7 1138.47 2765.7 2134.62 2642.46 2063.46 2642.46 1067.31"/><polygon class="cls-3" points="2519.21 711.54 2642.46 782.7 2642.46 2063.46 2519.21 1992.31 2519.21 711.54"/><polygon class="cls-2" points="2395.97 782.69 2519.21 853.85 2519.21 1992.31 2395.97 1921.15 2395.97 782.69"/><polygon class="cls-3" points="2272.72 426.93 2395.97 498.08 2395.97 1921.15 2272.72 1849.99 2272.72 426.93"/><polygon class="cls-2" points="2149.48 355.77 2272.72 426.93 2272.72 1849.99 2149.48 1778.84 2149.48 355.77"/><polygon class="cls-3" points="2026.23 0 2149.48 71.16 2149.48 1778.84 2026.23 1707.68 2026.23 0"/><ellipse class="cls-5" cx="2022.73" cy="3034.36" rx="1128.4" ry="651.48"/><ellipse class="cls-6" cx="2022.73" cy="2688.99" rx="1271.07" ry="733.85"/><path class="cls-7" d="M1225.29,811.61l-31.35-.28c-51.09-130.72-164.69-254.94-341-356.7C356.6,168-448.19,168-944.57,454.62c-166.42,96.08-277,212.19-331.78,334.89l-39.88-.35V951.88c-9.9,195,114,391.76,371.69,540.56C-448.15,1779,356.64,1779,853,1492.45c248.19-143.29,372.28-331.1,372.27-518.92h0Z" transform="translate(2068.51 1635.76)"/><path class="cls-7" d="M1225.29,811.61l-31.35-.28c-51.09-130.72-164.69-254.94-341-356.7C356.6,168-448.19,168-944.57,454.62c-166.42,96.08-277,212.19-331.78,334.89l-39.88-.35V951.88c-9.9,195,114,391.76,371.69,540.56C-448.15,1779,356.64,1779,853,1492.45c248.19-143.29,372.28-331.1,372.27-518.92h0Z" transform="translate(2068.51 1635.76)"/><path class="cls-8" d="M1225.29,811.61l-31.35-.28c-51.09-130.72-164.69-254.94-341-356.7C356.6,168-448.19,168-944.57,454.62c-166.42,96.08-277,212.19-331.78,334.89l-39.88-.35V951.88c-9.9,195,114,391.76,371.69,540.56C-448.15,1779,356.64,1779,853,1492.45c248.19-143.29,372.28-331.1,372.27-518.92h0Z" transform="translate(2068.51 1635.76)"/><path class="cls-9" d="M1225.29,748.71l-31.35-.28c-51.09-130.71-164.69-254.93-341-356.69-496.39-286.59-1301.18-286.6-1797.56,0-166.42,96.09-277,212.2-331.78,334.9l-39.88-.36V889c-9.9,195,114,391.75,371.69,540.55,496.39,286.59,1301.18,286.6,1797.56,0,248.19-143.3,372.28-331.11,372.27-518.92h0Z" transform="translate(2068.51 1635.76)"/><path class="cls-10" d="M1193.94,748.43c-1.77-4.54-3.7-9.06-5.63-13.59V628h-66.59v-7.64a687.19,687.19,0,0,0-56.6-66.47V628h-38.2V516.78q-26.6-24.11-56.78-47.22V628h-38V442q-27.21-18.9-57-37V628H837.31V382.91q-28-15.62-57.13-30.09V628H742.51V335q-28.18-12.9-57.31-24.77V628H647.71V370.56H590.22V628H552.91V441.22H495.24V628H458.11V511.88H400.26V628H363.31V582.54h-58V628H-396.29V582.54h-58V628h-36.95V511.88h-57.85V628h-37.13V441.22h-57.68V628h-37.3V370.56h-57.5V628h-37.49V310q-29.12,11.83-57.31,24.74V628H-871.2V352.54q-29.17,14.41-57.13,30V628h-37.85V404.63q-29.75,18-57,36.89V628h-38V469.1c-20.15,15.41-39,31.21-56.77,47.29V628h-38.21V553.25a688.11,688.11,0,0,0-56.59,66.3V628h-66.6v98.61l-28.21-.25V999.17c10.26,49,29.08,97.51,56.42,144.73V973.53h38.39V1201.8a690.1,690.1,0,0,0,56.59,66.23V973.53h38.21V1305q26.61,24.06,56.77,47.15V973.53h38v406.25q27.24,18.87,57,36.94V973.53h37.85v465.14q28,15.6,57.13,30V973.53h37.67v513q28.2,12.9,57.31,24.75V973.53h37.49V1526q28.38,10.68,57.5,20.38V973.53h37.3v584.79q28.54,8.79,57.68,16.7V973.53h37.13v611.15q28.7,7.13,57.85,13.42V973.53h36.95v632.13q28.83,5.64,58,10.46V973.53h36.77v648.31q29,4.25,58.21,7.69v-656h36.59v660q29.12,2.93,58.39,5.06V973.53h36.41V1641q29.25,1.63,58.57,2.5v-670h36.23v670.76q29.61.39,59.22,0V973.53H20.33v669.94q29.33-.87,58.57-2.51V973.53h36.41v665q29.28-2.14,58.39-5.07v-660h36.59v656q29.24-3.45,58.21-7.71V973.53h36.78V1616q29.18-4.83,58-10.47v-632h36.95V1598q29.14-6.3,57.85-13.44v-611h37.13v601.36q29.12-7.91,57.67-16.72V973.53h37.31v572.65q29.1-9.72,57.49-20.39V973.53H685.2v537.58q29.13-11.85,57.31-24.76V973.53h37.67v495q29.18-14.45,57.13-30.09V973.53h37.85v442.92q29.77-18.06,57-37V973.53h38v378.21q30.17-23.1,56.78-47.21v-331h38.2v294.13a690.47,690.47,0,0,0,56.6-66.41V973.53h38.38V1143c27.5-47.7,46.34-96.69,56.42-146.17V748.63Z" transform="translate(2068.51 1635.76)"/><ellipse class="cls-11" cx="2022.73" cy="2384.48" rx="1271.07" ry="733.85"/><path class="cls-12" d="M-45.34,14.87c-288-.07-576,56.15-810.52,168.43L-1235,1007.6c61.79,94.79,158.38,183.74,290.5,260,82,47.32,172.48,86.66,268.5,118.36Z" transform="translate(2068.51 1635.76)"/><path class="cls-12" d="M310.77,44.26-341.58,1462.43a2195.49,2195.49,0,0,0,475.66,12.76L734.61,169.66C605.44,111.49,461.45,69.6,310.77,44.26Z" transform="translate(2068.51 1635.76)"/><g class="cls-13"><ellipse class="cls-1" cx="2022.73" cy="2384.48" rx="1125.64" ry="649.89"/><g class="cls-14"><polygon class="cls-8" points="12.02 2381.67 0 2374.73 1961.01 1242.54 1973.02 1249.48 12.02 2381.67"/><polygon class="cls-8" points="46.57 2401.62 34.55 2394.68 1995.56 1262.49 2007.57 1269.43 46.57 2401.62"/><polygon class="cls-8" points="81.12 2421.56 69.1 2414.63 2030.11 1282.44 2042.12 1289.38 81.12 2421.56"/><polygon class="cls-8" points="115.67 2441.51 103.65 2434.57 2064.66 1302.38 2076.67 1309.32 115.67 2441.51"/><polygon class="cls-8" points="150.22 2461.46 138.2 2454.52 2099.2 1322.33 2111.22 1329.27 150.22 2461.46"/><polygon class="cls-8" points="184.76 2481.41 172.75 2474.47 2133.75 1342.28 2145.77 1349.22 184.76 2481.41"/><polygon class="cls-8" points="219.31 2501.35 207.3 2494.41 2168.3 1362.23 2180.32 1369.16 219.31 2501.35"/><polygon class="cls-8" points="253.86 2521.3 241.85 2514.36 2202.85 1382.17 2214.87 1389.11 253.86 2521.3"/><polygon class="cls-8" points="288.41 2541.25 276.4 2534.31 2237.4 1402.12 2249.42 1409.06 288.41 2541.25"/><polygon class="cls-8" points="322.96 2561.2 310.94 2554.26 2271.95 1422.07 2283.97 1429.01 322.96 2561.2"/><polygon class="cls-8" points="357.51 2581.14 345.49 2574.2 2306.5 1442.02 2318.52 1448.95 357.51 2581.14"/><polygon class="cls-8" points="392.06 2601.09 380.05 2594.15 2341.05 1461.96 2353.07 1468.9 392.06 2601.09"/><polygon class="cls-8" points="426.61 2621.04 414.59 2614.1 2375.6 1481.91 2387.62 1488.85 426.61 2621.04"/><polygon class="cls-8" points="461.16 2640.98 449.14 2634.04 2410.15 1501.86 2422.17 1508.8 461.16 2640.98"/><polygon class="cls-8" points="495.71 2660.93 483.69 2653.99 2444.7 1521.8 2456.72 1528.74 495.71 2660.93"/><polygon class="cls-8" points="530.26 2680.88 518.24 2673.94 2479.25 1541.75 2491.27 1548.69 530.26 2680.88"/><polygon class="cls-8" points="564.81 2700.82 552.79 2693.89 2513.8 1561.7 2525.82 1568.64 564.81 2700.82"/><polygon class="cls-8" points="599.36 2720.77 587.34 2713.83 2548.35 1581.65 2560.36 1588.58 599.36 2720.77"/><polygon class="cls-8" points="633.91 2740.72 621.89 2733.78 2582.9 1601.59 2594.91 1608.53 633.91 2740.72"/><polygon class="cls-8" points="668.46 2760.67 656.44 2753.73 2617.45 1621.54 2629.47 1628.48 668.46 2760.67"/><polygon class="cls-8" points="703.01 2780.61 690.99 2773.68 2652 1641.49 2664.01 1648.42 703.01 2780.61"/><polygon class="cls-8" points="737.56 2800.56 725.54 2793.62 2686.55 1661.43 2698.56 1668.37 737.56 2800.56"/><polygon class="cls-8" points="772.11 2820.51 760.09 2813.57 2721.09 1681.38 2733.11 1688.32 772.11 2820.51"/><polygon class="cls-8" points="806.66 2840.45 794.64 2833.52 2755.65 1701.33 2767.66 1708.27 806.66 2840.45"/><polygon class="cls-8" points="841.21 2860.4 829.19 2853.46 2790.2 1721.28 2802.21 1728.21 841.21 2860.4"/><polygon class="cls-8" points="875.75 2880.35 863.74 2873.41 2824.74 1741.22 2836.76 1748.16 875.75 2880.35"/><polygon class="cls-8" points="910.3 2900.3 898.29 2893.36 2859.29 1761.17 2871.31 1768.11 910.3 2900.3"/><polygon class="cls-8" points="944.86 2920.24 932.84 2913.3 2893.84 1781.12 2905.86 1788.06 944.86 2920.24"/><polygon class="cls-8" points="979.4 2940.19 967.39 2933.25 2928.39 1801.07 2940.41 1808 979.4 2940.19"/><polygon class="cls-8" points="1013.95 2960.14 1001.93 2953.2 2962.94 1821.01 2974.96 1827.95 1013.95 2960.14"/><polygon class="cls-8" points="1048.5 2980.09 1036.49 2973.15 2997.49 1840.96 3009.51 1847.9 1048.5 2980.09"/><polygon class="cls-8" points="1083.05 3000.03 1071.04 2993.09 3032.04 1860.91 3044.06 1867.84 1083.05 3000.03"/><polygon class="cls-8" points="1117.6 3019.98 1105.59 3013.04 3066.59 1880.85 3078.61 1887.79 1117.6 3019.98"/><polygon class="cls-8" points="1152.15 3039.93 1140.13 3032.99 3101.14 1900.8 3113.16 1907.74 1152.15 3039.93"/><polygon class="cls-8" points="1186.7 3059.87 1174.68 3052.93 3135.69 1920.75 3147.71 1927.69 1186.7 3059.87"/><polygon class="cls-8" points="1221.25 3079.82 1209.23 3072.88 3170.24 1940.69 3182.26 1947.63 1221.25 3079.82"/><polygon class="cls-8" points="1255.8 3099.77 1243.78 3092.83 3204.79 1960.64 3216.81 1967.58 1255.8 3099.77"/><polygon class="cls-8" points="1290.35 3119.72 1278.33 3112.78 3239.34 1980.59 3251.36 1987.53 1290.35 3119.72"/><polygon class="cls-8" points="1324.9 3139.66 1312.88 3132.72 3273.89 2000.54 3285.91 2007.47 1324.9 3139.66"/><polygon class="cls-8" points="1359.45 3159.61 1347.43 3152.67 3308.44 2020.48 3320.45 2027.42 1359.45 3159.61"/><polygon class="cls-8" points="1394 3179.56 1381.98 3172.62 3342.99 2040.43 3355.01 2047.37 1394 3179.56"/><polygon class="cls-8" points="1428.55 3199.5 1416.53 3192.57 3377.54 2060.38 3389.55 2067.32 1428.55 3199.5"/><polygon class="cls-8" points="1463.1 3219.45 1451.08 3212.51 3412.09 2080.32 3424.1 2087.26 1463.1 3219.45"/><polygon class="cls-8" points="1497.65 3239.4 1485.63 3232.46 3446.64 2100.27 3458.65 2107.21 1497.65 3239.4"/><polygon class="cls-8" points="1532.2 3259.34 1520.18 3252.41 3481.19 2120.22 3493.2 2127.16 1532.2 3259.34"/><polygon class="cls-8" points="1566.74 3279.29 1554.73 3272.35 3515.74 2140.17 3527.75 2147.11 1566.74 3279.29"/><polygon class="cls-8" points="1601.3 3299.24 1589.28 3292.3 3550.28 2160.11 3562.3 2167.05 1601.3 3299.24"/><polygon class="cls-8" points="1635.85 3319.19 1623.83 3312.25 3584.83 2180.06 3596.85 2187 1635.85 3319.19"/><polygon class="cls-8" points="1670.39 3339.13 1658.38 3332.2 3619.38 2200.01 3631.4 2206.95 1670.39 3339.13"/><polygon class="cls-8" points="1704.94 3359.08 1692.93 3352.14 3653.93 2219.96 3665.95 2226.89 1704.94 3359.08"/><polygon class="cls-8" points="1739.49 3379.03 1727.48 3372.09 3688.48 2239.9 3700.5 2246.84 1739.49 3379.03"/><polygon class="cls-8" points="1774.04 3398.98 1762.03 3392.04 3723.03 2259.85 3735.05 2266.79 1774.04 3398.98"/><polygon class="cls-8" points="1808.59 3418.92 1796.58 3411.98 3757.58 2279.8 3769.6 2286.74 1808.59 3418.92"/><polygon class="cls-8" points="1843.14 3438.87 1831.12 3431.93 3792.13 2299.74 3804.15 2306.68 1843.14 3438.87"/><polygon class="cls-8" points="1877.69 3458.82 1865.67 3451.88 3826.68 2319.69 3838.7 2326.63 1877.69 3458.82"/><polygon class="cls-8" points="1912.24 3478.76 1900.22 3471.83 3861.23 2339.64 3873.25 2346.58 1912.24 3478.76"/><polygon class="cls-8" points="1946.79 3498.71 1934.77 3491.77 3895.78 2359.59 3907.8 2366.52 1946.79 3498.71"/><polygon class="cls-8" points="1981.34 3518.66 1969.32 3511.72 3930.33 2379.53 3942.35 2386.47 1981.34 3518.66"/><polygon class="cls-8" points="2015.89 3538.61 2003.87 3531.67 3964.88 2399.48 3976.9 2406.42 2015.89 3538.61"/><polygon class="cls-8" points="2050.44 3558.55 2038.42 3551.61 3999.43 2419.43 4011.45 2426.36 2050.44 3558.55"/><polygon class="cls-8" points="2084.99 3578.5 2072.97 3571.56 4033.98 2439.38 4045.99 2446.31 2084.99 3578.5"/></g></g><path class="cls-15" d="M-841.73,333C-402.15,79.16,310.56,79.17,750.16,333c210.15,121.33,319.77,278.7,329,437.66,10.07-173.55-99.54-349-329-481.45-439.6-253.8-1152.31-253.81-1591.89,0-229.44,132.46-339,307.88-329,481.42C-1161.48,611.64-1051.87,454.28-841.73,333Z" transform="translate(2068.51 1635.76)"/><polygon class="cls-16" points="2466.44 2131.25 1368.94 1995.4 1604.23 2629.05 2318.81 2543.81 2466.44 2131.25"/><polygon class="cls-5" points="1604.23 2629.05 1904.5 2166.26 2318.81 2543.81 1604.23 2629.05"/><polygon class="cls-5" points="2466.44 2131.25 1904.5 2166.26 2318.81 2543.81 2466.44 2131.25"/><polygon class="cls-5" points="2466.44 2131.25 1368.94 1995.4 1904.5 2166.26 2318.81 2543.81 2466.44 2131.25"/><polygon class="cls-17" points="1707.8 2688.85 2716.72 2773.55 2570.01 2191.05 2422.26 2510.89 1707.8 2688.85"/><polygon class="cls-5" points="2422.26 2510.89 2716.72 2773.55 2570.01 2191.05 2422.26 2510.89"/><path class="cls-18" d="M-28.69,124.15c-46.66,0-93.33-10.26-128.86-30.76C-193.31,72.74-213,44.87-213,14.9s19.69-57.85,55.45-78.5c71-41,186.66-41,257.72,0,35.76,20.65,55.45,48.52,55.45,78.5s-19.69,57.84-55.45,78.49h0C64.65,113.89,18,124.15-28.69,124.15Zm0-204.54c-44.1,0-88.2,9.69-121.77,29.07-31.19,18-48.37,41.52-48.37,66.22s17.18,48.21,48.37,66.2c67.14,38.78,176.4,38.78,243.55,0h0c31.18-18,48.36-41.51,48.36-66.2S124.27-33.32,93.08-51.32C59.51-70.7,15.4-80.39-28.69-80.39Z" transform="translate(2068.51 1635.76)"/><path class="cls-18" d="M47.59,58.94C5.46,83.26-62.84,83.26-105,58.93s-42.13-63.75,0-88.08,110.43-24.32,152.56,0S89.72,34.61,47.59,58.94Z" transform="translate(2068.51 1635.76)"/><polygon class="cls-18" points="2484.78 1437.4 2409.18 1393.76 2537.9 1319.44 2613.51 1363.09 2484.78 1437.4"/><polygon class="cls-20" points="2348.86 1368.45 2253.6 1340.43 2336.24 1246.78 2431.5 1274.81 2348.86 1368.45"/><polygon class="cls-21" points="2182.69 1327.13 2077.09 1317.47 2105.56 1213.66 2211.16 1223.32 2182.69 1327.13"/><polygon class="cls-22" points="2002.53 1317.47 1896.93 1327.12 1868.45 1223.32 1974.05 1213.66 2002.53 1317.47"/><polygon class="cls-23" points="1826.02 1340.43 1730.76 1368.45 1648.11 1274.8 1743.37 1246.78 1826.02 1340.43"/><polygon class="cls-24" points="1670.44 1393.75 1594.84 1437.4 1466.11 1363.08 1541.71 1319.43 1670.44 1393.75"/><polygon class="cls-23" points="2232.45 1554.78 2205.89 1539.44 2397.95 1428.56 2424.51 1443.89 2232.45 1554.78"/><polygon class="cls-22" points="2171.7 1525.1 2138.23 1515.26 2261.54 1375.53 2295.01 1385.38 2171.7 1525.1"/><polygon class="cls-21" points="2098.04 1507.72 2060.94 1504.32 2103.43 1349.44 2140.53 1352.83 2098.04 1507.72"/><polygon class="cls-20" points="2018.68 1504.32 1981.58 1507.71 1939.09 1352.83 1976.19 1349.43 2018.68 1504.32"/><polygon class="cls-18" points="1941.39 1515.25 1907.93 1525.1 1784.61 1385.37 1818.08 1375.53 1941.39 1515.25"/><polygon class="cls-18" points="1873.74 1539.44 1847.18 1554.77 1655.11 1443.89 1681.67 1428.55 1873.74 1539.44"/><polygon class="cls-18" points="1822.34 1574.51 1805.29 1593.84 1563.28 1522.64 1580.33 1503.32 1822.34 1574.51"/><polygon class="cls-18" points="1792.23 1617.04 1786.36 1638.46 1518.08 1613.92 1523.96 1592.5 1792.23 1617.04"/><polygon class="cls-18" points="1786.36 1662.86 1792.23 1684.28 1523.96 1708.81 1518.08 1687.38 1786.36 1662.86"/><polygon class="cls-18" points="1805.29 1707.48 1822.35 1726.8 1580.34 1797.99 1563.28 1778.67 1805.29 1707.48"/><polygon class="cls-18" points="1847.18 1746.54 1873.75 1761.87 1681.69 1872.76 1655.13 1857.42 1847.18 1746.54"/><path class="cls-21" d="M725.75-345.18c282.31,196.71,298.08,477.82,47.58,684.05l101.3,93.6c345.65-248.64,338.06-606.71-22.47-850.64Z" transform="translate(2068.51 1635.76)"/><path class="cls-23" d="M124.09,573.09c-298.67,27.1-614.86-25.67-845-158.54-54.21-31.3-100.46-65.43-139.3-101.47l-172.34,34.26c49.8,50.05,111.49,97.23,185.56,140C-556,655.36-148.58,715,225.35,666.65Z" transform="translate(2068.51 1635.76)"/><path class="cls-18" d="M-1174.26,109.73l172.42-34.28c-30.47-164.1,63-334.43,280.91-460.22,360.24-208,931.32-219.9,1315.91-35.91l126.41-73C266.7-717.68-417.11-705.77-847-457.56-1114.88-302.91-1223.93-91.31-1174.26,109.73Z" transform="translate(2068.51 1635.76)"/><polygon class="cls-18" points="1934.2 2024.35 1866.72 1985.39 2732.86 1485.33 2800.34 1524.28 1934.2 2024.35"/><polygon class="cls-20" points="2030.05 2079.68 1962.58 2040.73 2339.01 1823.4 2406.48 1862.35 2030.05 2079.68"/><polygon class="cls-21" points="2132.55 2138.87 2065.08 2099.91 2664.3 1753.95 2731.78 1792.91 2132.55 2138.87"/><polygon class="cls-23" points="2233.45 2197.12 2165.98 2158.16 2632.44 1888.85 2699.91 1927.81 2233.45 2197.12"/></svg>