<?xml version="1.0" encoding="utf-8"?>
<!-- Generator: Adobe Illustrator 26.0.1, SVG Export Plug-In . SVG Version: 6.00 Build 0)  -->
<svg version="1.1" id="Layer_1" xmlns="http://www.w3.org/2000/svg" xmlns:xlink="http://www.w3.org/1999/xlink" x="0px" y="0px"
	 viewBox="0 0 637.2 508.4" style="enable-background:new 0 0 637.2 508.4;" xml:space="preserve">
<style type="text/css">
	.st0{fill:none;}
	.st1{fill:url(#SVGID_1_);}
	.st2{clip-path:url(#SVGID_00000018940836850087496880000003709624014574472609_);}
	.st3{opacity:0.5;fill:url(#SVGID_00000001649690434100229850000009966695437180304525_);enable-background:new    ;}
	.st4{fill:url(#SVGID_00000147934097283107513460000012033202697100240542_);}
	.st5{fill:#FFC136;}
	.st6{fill:#B68504;}
	.st7{font-family:'Arial-BoldMT';}
	.st8{font-size:27.74px;}
	.st9{fill:#5D3AF7;}
	.st10{fill:#5F3AF6;}
	.st11{fill:#713AF6;}
	.st12{fill:#1C3599;}
	.st13{fill:url(#SVGID_00000175304099286438897050000005299801791526646680_);}
	.st14{fill:#D5E2F7;}
	.st15{fill:#97A8D6;}
	.st16{fill:url(#SVGID_00000111184284309798500860000008709370958306589845_);}
	.st17{fill:#9DAAD4;}
	.st18{fill:#E5E3E8;}
	.st19{fill:url(#SVGID_00000096737550220638696240000004143361162382625452_);}
	.st20{fill:#FFB60D;}
	.st21{fill:#6339F6;}
	.st22{fill:#4F34EA;}
	.st23{fill:#733AF6;}
	.st24{fill:url(#SVGID_00000155865775708454770600000016564153088214623154_);}
	.st25{fill:#ACBDE2;}
	.st26{fill:#E3E0F3;}
	.st27{fill:#7DE7E8;}
	.st28{fill:#FFFCF5;}
	.st29{fill:url(#SVGID_00000088131344005685950290000002661130897866753198_);}
	.st30{fill:#5E3AF7;}
	.st31{fill:url(#SVGID_00000037689778540691312920000017005679404419286932_);}
	.st32{fill:url(#SVGID_00000096757676150641131990000011205054785860388493_);}
	.st33{fill:url(#SVGID_00000110441266165761630010000001024366684042187145_);}
	.st34{fill:#E4E2E7;}
	.st35{fill:url(#SVGID_00000111894952338458534650000002928327012982944166_);}
	.st36{fill:url(#SVGID_00000085935913331753984950000011517686379695520925_);}
	.st37{fill:url(#SVGID_00000085250398062502100940000001957268016426250683_);}
	.st38{fill:url(#SVGID_00000092458897162213619010000005598412462715382409_);}
	.st39{fill:url(#SVGID_00000155845228167376459760000017291107569366057121_);}
	.st40{fill:url(#SVGID_00000108283671542749758370000000863004726336804513_);}
	.st41{fill:url(#SVGID_00000029749482377921314330000011996728468348845470_);}
	.st42{fill:url(#SVGID_00000133516698047492971030000000946731775609919152_);}
	.st43{fill:url(#SVGID_00000065035405121232831910000004172328897940636347_);}
	.st44{fill:url(#SVGID_00000037689707955279535970000001035828494896994445_);}
	.st45{fill:url(#SVGID_00000072972655089459978070000015010444135538738086_);}
	.st46{fill:url(#SVGID_00000155140989628403383760000017185693117767021743_);}
	.st47{fill:url(#SVGID_00000080907914487938943390000013499937293886650525_);}
	.st48{fill:url(#SVGID_00000114762869236462483940000012343471576765981078_);}
	.st49{fill:url(#SVGID_00000103957935042263662340000003508682443120598929_);}
	.st50{fill:url(#SVGID_00000008854198258170096020000006014561576171714972_);}
	.st51{fill:url(#SVGID_00000000213477348423569130000008063188105578174372_);}
	.st52{fill:url(#SVGID_00000021835829585255219390000012985449748730487437_);}
	.st53{fill:url(#SVGID_00000173152889316709589280000007535917597580119448_);}
	.st54{fill:url(#SVGID_00000008120287831001722960000014171263287636893853_);}
</style>
<g>
	<g id="BACKGROUND">
		<rect x="104.9" y="0" class="st0" width="500" height="500"/>
	</g>
	<g id="OBJECTS">
		
			<radialGradient id="SVGID_1_" cx="-2347.3389" cy="-1033.5538" r="140.26" gradientTransform="matrix(0.7705 -0.5721 -1.1074 -0.4814 1061.9777 -1553.1416)" gradientUnits="userSpaceOnUse">
			<stop  offset="0" style="stop-color:#55D1FF"/>
			<stop  offset="0.16" style="stop-color:#54CEFC;stop-opacity:0.99"/>
			<stop  offset="0.29" style="stop-color:#51C6F2;stop-opacity:0.95"/>
			<stop  offset="0.41" style="stop-color:#4BB8E0;stop-opacity:0.88"/>
			<stop  offset="0.52" style="stop-color:#43A5C8;stop-opacity:0.78"/>
			<stop  offset="0.63" style="stop-color:#398CA9;stop-opacity:0.66"/>
			<stop  offset="0.74" style="stop-color:#2C6D82;stop-opacity:0.51"/>
			<stop  offset="0.84" style="stop-color:#1D4854;stop-opacity:0.33"/>
			<stop  offset="0.94" style="stop-color:#0C1F21;stop-opacity:0.13"/>
			<stop  offset="1" style="stop-color:#010400;stop-opacity:0"/>
		</radialGradient>
		<path class="st1" d="M403.6,175.7c98.4-5.3,180.7,36.5,183.8,93.4s-74.3,107.2-172.7,112.5S234,345,230.9,288.2
			S305.2,181,403.6,175.7z"/>
		<g>
			<defs>
				<rect id="SVGID_00000047743271549243532570000006935118364503418038_" x="104.9" y="0" width="500" height="500"/>
			</defs>
			<clipPath id="SVGID_00000032606414917490591820000009052594171179874478_">
				<use xlink:href="#SVGID_00000047743271549243532570000006935118364503418038_"  style="overflow:visible;"/>
			</clipPath>
			<g style="clip-path:url(#SVGID_00000032606414917490591820000009052594171179874478_);">
				
					<radialGradient id="SVGID_00000084511199698265746420000014102505049825673621_" cx="-2721.1277" cy="-1707.0266" r="171.29" gradientTransform="matrix(0.87 -0.5 -0.87 -0.5 1201.9718 -1889.5873)" gradientUnits="userSpaceOnUse">
					<stop  offset="0" style="stop-color:#DDDDDD"/>
					<stop  offset="1" style="stop-color:#FFFFFF;stop-opacity:0"/>
				</radialGradient>
				
					<path style="opacity:0.5;fill:url(#SVGID_00000084511199698265746420000014102505049825673621_);enable-background:new    ;" d="
					M0,324.5l318.5,183.9l318.7-184L318.7,140.6L0,324.5z M341.8,493.7l-23.3,13.5l-23.3-13.5l23.3-13.5L341.8,493.7z M317.4,479.6
					L294.1,493l-23.3-13.5l23.3-13.5L317.4,479.6z M292.9,465.5L269.7,479l-23.3-13.5l23.3-13.5L292.9,465.5z M268.5,451.4
					l-23.3,13.5l-23.3-13.5l23.3-13.5L268.5,451.4z M244.1,437.3l-23.3,13.5l-23.3-13.5l23.3-13.5L244.1,437.3z M219.7,423.2
					l-23.3,13.5l-23.3-13.5l23.3-13.5L219.7,423.2z M195.3,409.1L172,422.6l-23.3-13.5l23.3-13.5L195.3,409.1z M170.9,395
					l-23.4,13.5L124.3,395l23.3-13.5L170.9,395z M146.5,380.9l-23.4,13.5l-23.3-13.5l23.3-13.5L146.5,380.9z M122.1,366.8
					l-23.3,13.5l-23.3-13.5l23.3-13.5L122.1,366.8z M97.7,352.7l-23.3,13.5L51,352.7l23.3-13.5L97.7,352.7z M73.2,338.6l-23.3,13.5
					l-23.3-13.5l23.3-13.5L73.2,338.6z M48.8,324.5L25.5,338L2.2,324.5l23.3-13.5L48.8,324.5z M366.2,479.5L342.9,493l-23.3-13.5
					l23.3-13.4L366.2,479.5z M341.8,465.4l-23.3,13.5l-23.3-13.5l23.3-13.4L341.8,465.4z M317.4,451.3l-23.3,13.5l-23.3-13.5
					l23.3-13.5L317.4,451.3z M292.9,437.3l-23.3,13.5l-23.3-13.5l23.3-13.5L292.9,437.3z M268.6,423.2l-23.3,13.5l-23.3-13.5
					l23.3-13.5L268.6,423.2z M244.2,409.1l-23.3,13.5l-23.3-13.5l23.3-13.5L244.2,409.1z M219.7,395l-23.3,13.5L173.1,395l23.3-13.5
					L219.7,395z M195.3,380.9L172,394.4l-23.3-13.5l23.3-13.5L195.3,380.9z M170.9,366.8l-23.3,13.5l-23.3-13.5l23.3-13.5
					L170.9,366.8z M146.5,352.7l-23.3,13.5l-23.2-13.4l23.3-13.5L146.5,352.7z M122.1,338.6l-23.3,13.5l-23.3-13.5l23.3-13.5
					L122.1,338.6z M97.7,324.5L74.4,338l-23.3-13.5l23.3-13.5L97.7,324.5z M73.3,310.4l-23.3,13.5l-23.3-13.5L49.9,297L73.3,310.4z
					 M390.6,465.4l-23.3,13.5L344,465.4l23.3-13.4L390.6,465.4z M366.2,451.4l-23.3,13.5l-23.3-13.5l23.3-13.5L366.2,451.4z
					 M341.8,437.3l-23.3,13.5l-23.3-13.5l23.3-13.5L341.8,437.3z M317.4,423.2l-23.3,13.5l-23.3-13.5l23.3-13.5L317.4,423.2z
					 M293,409.1l-23.3,13.5l-23.3-13.5l23.3-13.5L293,409.1z M268.6,395l-23.3,13.5L221.9,395l23.3-13.5L268.6,395z M244.2,380.9
					l-23.3,13.5l-23.3-13.4l23.3-13.5L244.2,380.9z M219.8,366.8l-23.3,13.5l-23.3-13.4l23.3-13.5L219.8,366.8z M195.3,352.7
					L172,366.2l-23.3-13.5l23.3-13.5L195.3,352.7z M170.9,338.6l-23.3,13.5l-23.3-13.4l23.3-13.5L170.9,338.6z M146.5,324.5
					L123.2,338l-23.3-13.5l23.3-13.5L146.5,324.5z M122.1,310.4l-23.3,13.5l-23.3-13.5L98.8,297L122.1,310.4z M97.7,296.3
					l-23.3,13.5l-23.3-13.5l23.3-13.5L97.7,296.3z M415.1,451.3l-23.3,13.5l-23.3-13.5l23.3-13.5L415.1,451.3z M390.7,437.2
					l-23.3,13.5L344,437.2l23.3-13.5L390.7,437.2z M366.2,423.1l-23.3,13.5l-23.3-13.5l23.3-13.5L366.2,423.1z M341.8,409
					l-23.3,13.5L295.2,409l23.3-13.5L341.8,409z M317.4,395l-23.3,13.5L270.8,395l23.3-13.5L317.4,395z M293,380.9l-23.3,13.5
					l-23.3-13.5l23.3-13.5L293,380.9z M268.6,366.8l-23.3,13.5l-23.3-13.4l23.3-13.5L268.6,366.8z M244.2,352.7l-23.3,13.5
					l-23.3-13.5l23.4-13.5L244.2,352.7z M219.8,338.6l-23.3,13.5l-23.3-13.5l23.3-13.5L219.8,338.6z M195.4,324.5L172.1,338
					l-23.3-13.5l23.3-13.5L195.4,324.5z M170.9,310.4l-23.3,13.5l-23.3-13.5l23.3-13.4L170.9,310.4z M146.5,296.3l-23.3,13.5
					l-23.3-13.5l23.3-13.5L146.5,296.3z M122.1,282.2l-23.3,13.5l-23.3-13.5l23.3-13.5L122.1,282.2z M439.5,437.2l-23.3,13.5
					l-23.2-13.4l23.3-13.5L439.5,437.2z M415.1,423.1l-23.3,13.5l-23.3-13.5l23.3-13.5L415.1,423.1z M390.7,409l-23.3,13.5
					L344.1,409l23.3-13.5L390.7,409z M366.3,395l-23.3,13.4L319.7,395l23.3-13.5L366.3,395z M341.9,380.9l-23.3,13.5l-23.3-13.5
					l23.3-13.5L341.9,380.9z M317.4,366.8l-23.3,13.5l-23.3-13.5l23.3-13.5L317.4,366.8z M293,352.7l-23.3,13.5l-23.3-13.5
					l23.3-13.5L293,352.7z M268.6,338.6l-23.3,13.5L222,338.6l23.3-13.5L268.6,338.6z M244.2,324.5L220.9,338l-23.4-13.5l23.4-13.5
					L244.2,324.5z M219.8,310.4l-23.3,13.5l-23.3-13.5l23.3-13.4L219.8,310.4z M195.4,296.3l-23.3,13.5l-23.3-13.5l23.3-13.5
					L195.4,296.3z M170.9,282.2l-23.3,13.5l-23.3-13.5l23.3-13.5L170.9,282.2z M146.6,268.1l-23.3,13.5l-23.3-13.4l23.3-13.5
					L146.6,268.1z M463.9,423.2l-23.3,13.5l-23.3-13.5l23.3-13.5L463.9,423.2z M439.5,409.1l-23.3,13.5l-23.3-13.5l23.3-13.5
					L439.5,409.1z M415.1,395l-23.3,13.5L368.5,395l23.3-13.5L415.1,395z M390.7,380.9l-23.3,13.5l-23.3-13.5l23.3-13.5L390.7,380.9
					z M366.3,366.8l-23.3,13.4l-23.3-13.5l23.3-13.5L366.3,366.8z M341.9,352.7l-23.3,13.5l-23.3-13.5l23.3-13.5L341.9,352.7z
					 M317.5,338.6L294.1,352l-23.3-13.4l23.3-13.5L317.5,338.6z M293,324.5L269.7,338l-23.3-13.5l23.3-13.5L293,324.5z M268.6,310.4
					l-23.3,13.5L222,310.4l23.3-13.4L268.6,310.4z M244.2,296.3l-23.3,13.5l-23.3-13.5l23.3-13.5L244.2,296.3z M219.8,282.2
					l-23.3,13.5l-23.3-13.5l23.3-13.5L219.8,282.2z M195.4,268.1l-23.3,13.5l-23.3-13.4l23.3-13.5L195.4,268.1z M170.9,254
					l-23.3,13.5L124.4,254l23.3-13.5L170.9,254z M488.3,409L465,422.5L441.7,409l23.3-13.5L488.3,409z M463.9,395l-23.3,13.5
					L417.3,395l23.3-13.5L463.9,395z M439.5,380.9l-23.3,13.5l-23.3-13.4l23.3-13.5L439.5,380.9z M415.1,366.8l-23.3,13.5
					l-23.3-13.5l23.3-13.5L415.1,366.8z M390.7,352.7l-23.3,13.5l-23.3-13.5l23.3-13.5L390.7,352.7z M366.3,338.6L342.9,352
					l-23.3-13.5l23.3-13.5L366.3,338.6z M341.9,324.5L318.6,338l-23.3-13.5l23.3-13.5L341.9,324.5z M317.5,310.4l-23.3,13.5
					l-23.3-13.5l23.3-13.5L317.5,310.4z M293.1,296.3l-23.3,13.5l-23.3-13.5l23.3-13.5L293.1,296.3z M268.6,282.2l-23.3,13.5
					L222,282.2l23.3-13.5L268.6,282.2z M244.2,268.1l-23.3,13.5l-23.3-13.5l23.3-13.5L244.2,268.1z M219.8,254l-23.3,13.5L173.2,254
					l23.3-13.5L219.8,254z M195.4,239.9l-23.3,13.5l-23.3-13.4l23.3-13.5L195.4,239.9z M512.8,395l-23.3,13.5L466.2,395l23.3-13.5
					L512.8,395z M488.4,380.9l-23.3,13.5l-23.3-13.5l23.3-13.5L488.4,380.9z M463.9,366.8l-23.3,13.5l-23.3-13.5l23.3-13.5
					L463.9,366.8z M439.5,352.7l-23.3,13.5l-23.3-13.5l23.3-13.5L439.5,352.7z M415.1,338.6L391.8,352l-23.3-13.5l23.3-13.5
					L415.1,338.6z M390.7,324.5l-23.3,13.5l-23.3-13.5l23.4-13.5L390.7,324.5z M366.3,310.4L343,323.8l-23.3-13.5l23.3-13.5
					L366.3,310.4z M341.9,296.3l-23.3,13.5l-23.4-13.5l23.3-13.5L341.9,296.3z M317.5,282.2l-23.3,13.5l-23.3-13.5l23.3-13.5
					L317.5,282.2z M293.1,268.1l-23.3,13.5l-23.3-13.5l23.3-13.5L293.1,268.1z M268.7,254l-23.3,13.5L222,254l23.3-13.5L268.7,254z
					 M244.2,239.9l-23.3,13.5l-23.3-13.4l23.3-13.5L244.2,239.9z M219.8,225.8l-23.3,13.5l-23.3-13.5l23.3-13.5L219.8,225.8z
					 M537.2,380.8l-23.3,13.5l-23.3-13.5l23.3-13.5L537.2,380.8z M512.8,366.7l-23.3,13.5l-23.3-13.5l23.3-13.5L512.8,366.7z
					 M488.4,352.6l-23.3,13.5l-23.3-13.5l23.3-13.5L488.4,352.6z M463.9,338.6L440.7,352l-23.3-13.5l23.3-13.5L463.9,338.6z
					 M439.5,324.5l-23.3,13.5l-23.3-13.4l23.3-13.5L439.5,324.5z M415.1,310.4l-23.3,13.5l-23.3-13.5l23.3-13.5L415.1,310.4z
					 M390.7,296.3l-23.3,13.5l-23.3-13.5l23.3-13.5L390.7,296.3z M366.3,282.2L343,295.6l-23.3-13.5l23.3-13.5L366.3,282.2z
					 M341.9,268.1l-23.3,13.5l-23.3-13.5l23.3-13.5L341.9,268.1z M317.5,254l-23.3,13.5L270.9,254l23.3-13.5L317.5,254z
					 M293.1,239.9l-23.3,13.5l-23.3-13.4l23.3-13.5L293.1,239.9z M268.7,225.8l-23.3,13.5l-23.3-13.5l23.3-13.5L268.7,225.8z
					 M244.3,211.7l-23.3,13.5l-23.3-13.4l23.3-13.5L244.3,211.7z M561.7,366.7l-23.3,13.5L515,366.7l23.3-13.5L561.7,366.7z
					 M537.2,352.6l-23.3,13.5l-23.3-13.5l23.3-13.5L537.2,352.6z M512.8,338.5L489.5,352l-23.3-13.5l23.3-13.5L512.8,338.5z
					 M488.4,324.4l-23.3,13.5l-23.3-13.5l23.3-13.4L488.4,324.4z M464,310.3l-23.3,13.5l-23.3-13.5l23.3-13.5L464,310.3z
					 M439.6,296.2l-23.3,13.5l-23.3-13.4l23.3-13.5L439.6,296.2z M415.2,282.1l-23.3,13.5l-23.3-13.5l23.3-13.5L415.2,282.1z
					 M390.8,268l-23.3,13.5l-23.3-13.5l23.3-13.5L390.8,268z M366.4,254L343,267.5L319.7,254l23.3-13.5L366.4,254z M341.9,239.9
					l-23.3,13.5l-23.3-13.5l23.3-13.5L341.9,239.9z M317.5,225.8l-23.3,13.5l-23.3-13.5l23.3-13.5L317.5,225.8z M293.1,211.7
					l-23.3,13.5l-23.3-13.4l23.3-13.5L293.1,211.7z M268.7,197.6l-23.3,13.5l-23.3-13.4l23.3-13.5L268.7,197.6z M586.1,352.6
					l-23.3,13.5l-23.3-13.5l23.3-13.5L586.1,352.6z M561.7,338.5L538.3,352l-23.3-13.5l23.3-13.5L561.7,338.5z M537.2,324.4
					l-23.3,13.5l-23.3-13.5l23.3-13.5L537.2,324.4z M512.8,310.4l-23.3,13.5l-23.3-13.5l23.3-13.5L512.8,310.4z M488.4,296.3
					l-23.3,13.5l-23.3-13.5l23.3-13.5L488.4,296.3z M464,282.2l-23.3,13.5l-23.3-13.5l23.3-13.5L464,282.2z M439.6,268.1l-23.3,13.5
					l-23.3-13.4l23.3-13.5L439.6,268.1z M415.2,254l-23.3,13.5L368.6,254l23.4-13.5L415.2,254z M390.8,239.9l-23.3,13.5l-23.3-13.4
					l23.3-13.5L390.8,239.9z M366.4,225.8L343,239.2l-23.3-13.4l23.3-13.5L366.4,225.8z M341.9,211.7l-23.3,13.5l-23.3-13.5
					l23.3-13.5L341.9,211.7z M317.5,197.6l-23.3,13.5l-23.3-13.5l23.3-13.5L317.5,197.6z M293.1,183.5L269.8,197l-23.3-13.5
					l23.3-13.5L293.1,183.5z M610.5,338.5L587.2,352l-23.2-13.5l23.3-13.5L610.5,338.5z M586.1,324.4l-23.3,13.5l-23.3-13.5
					l23.3-13.4L586.1,324.4z M561.7,310.3l-23.3,13.5l-23.3-13.5l23.3-13.5L561.7,310.3z M537.3,296.2l-23.3,13.5l-23.3-13.5
					l23.3-13.5L537.3,296.2z M512.9,282.1l-23.3,13.5l-23.3-13.5l23.3-13.5L512.9,282.1z M488.4,268l-23.3,13.5L441.8,268l23.3-13.5
					L488.4,268z M464,254l-23.3,13.5L417.4,254l23.3-13.5L464,254z M439.6,239.9l-23.3,13.5L393,239.9l23.3-13.5L439.6,239.9z
					 M415.2,225.8l-23.3,13.4l-23.3-13.4l23.3-13.5L415.2,225.8z M390.8,211.7l-23.3,13.5l-23.3-13.5l23.3-13.5L390.8,211.7z
					 M366.4,197.6l-23.3,13.5l-23.3-13.4l23.3-13.5L366.4,197.6z M341.9,183.5L318.7,197l-23.3-13.5l23.3-13.5L341.9,183.5z
					 M317.5,169.4l-23.3,13.5l-23.3-13.4l23.3-13.4L317.5,169.4z M634.9,324.4l-23.3,13.5l-23.3-13.5l23.3-13.4L634.9,324.4z
					 M610.5,310.3l-23.3,13.5l-23.3-13.4l23.3-13.5L610.5,310.3z M586.1,296.2l-23.3,13.5l-23.3-13.5l23.3-13.5L586.1,296.2z
					 M561.7,282.1l-23.3,13.5l-23.3-13.5l23.3-13.5L561.7,282.1z M537.3,268l-23.3,13.5l-23.3-13.5l23.3-13.5L537.3,268z M512.9,254
					l-23.3,13.5L466.2,254l23.3-13.5L512.9,254z M488.5,239.9l-23.3,13.4l-23.3-13.5l23.3-13.5L488.5,239.9z M464,225.8l-23.3,13.5
					l-23.3-13.4l23.3-13.5L464,225.8z M439.6,211.7l-23.3,13.5L393,211.7l23.3-13.5L439.6,211.7z M415.2,197.6L391.9,211l-23.3-13.4
					l23.3-13.4L415.2,197.6z M390.8,183.5L367.5,197l-23.3-13.5l23.3-13.5L390.8,183.5z M366.4,169.4l-23.3,13.5l-23.3-13.5
					l23.3-13.5L366.4,169.4z M341.9,155.3l-23.3,13.5l-23.3-13.5l23.3-13.5L341.9,155.3z"/>
			</g>
		</g>
		
			<linearGradient id="SVGID_00000120517944357671021150000007617069736029180338_" gradientUnits="userSpaceOnUse" x1="407.55" y1="491.4057" x2="407.55" y2="369.4857" gradientTransform="matrix(1 0 0 -1 0 510.6456)">
			<stop  offset="5.000000e-02" style="stop-color:#FFC136"/>
			<stop  offset="1" style="stop-color:#B68504"/>
		</linearGradient>
		<polygon style="fill:url(#SVGID_00000120517944357671021150000007617069736029180338_);" points="407.5,16.5 397.5,24.2 
			400.8,26.1 400.8,138.4 414.3,146.2 414.3,33.9 417.6,35.9 		"/>
		<polygon class="st5" points="337.3,190.6 323.9,182.8 400.8,138.4 414.3,146.2 		"/>
		<path class="st5" d="M438.2,86.8v40.9l-24-13.9V45.3l0,0C429.1,53.9,438.2,69.7,438.2,86.8z"/>
		<text transform="matrix(0.87 0.5 0 1 418.8199 97.14)" class="st6 st7 st8">1</text>
		<polygon class="st9" points="462.9,68.9 452.8,76.6 456.1,78.5 456.1,190.8 469.6,198.5 469.6,86.3 473,88.2 		"/>
		<polygon class="st10" points="392.6,243 379.2,235.2 456.2,190.8 469.6,198.5 		"/>
		<path class="st11" d="M493.6,142.7v40.9l-24-13.9v-68.7l0,0C484.5,109.7,493.6,125.5,493.6,142.7z"/>
		<text transform="matrix(0.87 0.5 0 1 472.1599 150.4802)" class="st12 st7 st8">2</text>
		
			<linearGradient id="SVGID_00000172432451852840489150000003106445318254581923_" gradientUnits="userSpaceOnUse" x1="518.79" y1="376.0857" x2="518.79" y2="252.5457" gradientTransform="matrix(1 0 0 -1 0 510.6456)">
			<stop  offset="0" style="stop-color:#D5E2F7"/>
			<stop  offset="1" style="stop-color:#ACBDE2"/>
		</linearGradient>
		<polygon style="fill:url(#SVGID_00000172432451852840489150000003106445318254581923_);" points="518.8,132.5 508.7,140.2 
			512,142.2 512,254.4 525.5,262.2 525.5,149.9 528.9,151.9 		"/>
		<polygon class="st14" points="448.5,306.6 435.1,298.9 512.1,254.4 525.5,262.2 		"/>
		<path class="st14" d="M549.5,205.6v40.9l-24-13.9V164l0,0C540.4,172.6,549.6,188.4,549.5,205.6z"/>
		<text transform="matrix(0.87 0.5 0 1 528.94 212.61)" class="st15 st7 st8">3</text>
		
			<linearGradient id="SVGID_00000114043532790581781990000017042727113647993007_" gradientUnits="userSpaceOnUse" x1="376.1719" y1="276.1884" x2="785.962" y2="-15.1516" gradientTransform="matrix(1 0 0 -1 0 510.6456)">
			<stop  offset="0" style="stop-color:#FFFFFF"/>
			<stop  offset="1" style="stop-color:#3074E1"/>
		</linearGradient>
		<polygon style="fill:url(#SVGID_00000114043532790581781990000017042727113647993007_);" points="533.8,289 463.1,329.9 
			283.3,225.9 354,185.1 		"/>
		<polygon class="st17" points="533.8,289 533.8,318.4 463.1,359.2 463.1,329.9 		"/>
		<polygon class="st18" points="283.3,225.9 283.3,255.3 463.1,359.2 463.1,329.9 		"/>
		<path class="st5" d="M387,105.7l-31,17.9c-2.3,1.3-6.2,1.1-8.9-0.4L317.4,106c-2.6-1.5-2.9-3.8-0.6-5.1l31-17.9
			c2.3-1.3,6.2-1.1,8.9,0.4l29.8,17.2C389,102.1,389.3,104.4,387,105.7z"/>
		
			<linearGradient id="SVGID_00000026135606739915318000000012630829487442161797_" gradientUnits="userSpaceOnUse" x1="265.2796" y1="399.6657" x2="265.2796" y2="264.7357" gradientTransform="matrix(1 0 0 -1 104.94 510.6456)">
			<stop  offset="0" style="stop-color:#B68504"/>
			<stop  offset="1" style="stop-color:#7E3D00"/>
		</linearGradient>
		<path style="fill:url(#SVGID_00000026135606739915318000000012630829487442161797_);" d="M388.5,228.7V103.9l0,0
			c-0.2,0.8-0.8,1.5-1.5,1.8l-31,17.9c-1.3,0.7-2.7,1-4.1,0.9v125.6c1.4,0.1,2.8-0.2,4.1-0.9l31-17.9
			C388,230.9,388.6,229.8,388.5,228.7z"/>
		<path class="st20" d="M347.1,123.2L317.4,106c-1-0.5-1.8-1.4-2.1-2.5v124.9c-0.2,1.1,0.5,2.4,2.1,3.3l29.8,17.2
			c1.5,0.8,3.1,1.2,4.8,1.2V124.4C350.2,124.4,348.6,124,347.1,123.2z"/>
		<path class="st21" d="M441.7,182.4l-31,17.9c-2.3,1.3-6.2,1.1-8.9-0.4l-29.8-17.2c-2.6-1.5-2.9-3.8-0.6-5.1l31-17.9
			c2.3-1.3,6.2-1.1,8.9,0.4l29.8,17.2C443.7,178.8,444,181.1,441.7,182.4z"/>
		<path class="st22" d="M443.2,260.5v-79.8l0,0c-0.2,0.8-0.8,1.5-1.5,1.8l-31,17.9c-1.3,0.7-2.7,1-4.1,0.9v80.6
			c1.4,0.1,2.8-0.2,4.1-0.9l31-17.9C442.8,262.6,443.4,261.6,443.2,260.5z"/>
		<path class="st23" d="M401.9,200l-29.8-17.2c-1-0.5-1.8-1.4-2.1-2.5v79.8c-0.2,1.1,0.5,2.4,2.1,3.3l29.8,17.2
			c1.5,0.8,3.1,1.2,4.8,1.2v-80.6C404.9,201.2,403.3,200.8,401.9,200z"/>
		<path class="st14" d="M497.6,235.8l-31,17.9c-2.3,1.3-6.2,1.1-8.9-0.4l-29.8-17.2c-2.6-1.5-2.9-3.8-0.6-5.1l31-17.9
			c2.3-1.3,6.2-1.1,8.9,0.4l29.8,17.2C499.6,232.2,499.9,234.5,497.6,235.8z"/>
		
			<linearGradient id="SVGID_00000088117397888658515680000000617130909854793652_" gradientUnits="userSpaceOnUse" x1="375.8365" y1="266.8657" x2="375.8365" y2="153.8757" gradientTransform="matrix(1 0 0 -1 104.94 510.6456)">
			<stop  offset="0" style="stop-color:#ACBDE2"/>
			<stop  offset="0.92" style="stop-color:#3F4893"/>
		</linearGradient>
		<path style="fill:url(#SVGID_00000088117397888658515680000000617130909854793652_);" d="M499.1,292.3V234l0,0
			c-0.2,0.8-0.8,1.5-1.5,1.8l-31,17.9c-1.3,0.7-2.7,1-4.1,0.9v59c1.4,0.1,2.8-0.2,4.1-0.9l31-17.9
			C498.6,294.4,499.2,293.4,499.1,292.3z"/>
		<path class="st25" d="M457.7,253.4l-29.8-17.2c-1-0.5-1.8-1.4-2.1-2.5v58.2c-0.2,1.1,0.5,2.4,2.1,3.3l29.8,17.2
			c1.5,0.8,3.1,1.2,4.8,1.2v-59C460.8,254.6,459.2,254.2,457.7,253.4z"/>
		<path class="st26" d="M286,307.6c-0.7,0-1.4-0.2-2-0.6l-85.3-48.1c-7.2-4.1-9.7-13.2-5.6-20.4c1.3-2.3,3.2-4.3,5.6-5.6l69-39.5
			c4.6-2.6,10.2-2.6,14.9,0l27.8,15.8c2.1,1.1,2.9,3.7,1.8,5.7s-3.7,2.9-5.7,1.8c-0.1-0.1-0.2-0.1-0.3-0.2l-27.8-15.8
			c-2-1.1-4.4-1.1-6.4,0l-69,39.5c-3.1,1.8-4.2,5.7-2.4,8.8c0.6,1,1.4,1.9,2.4,2.4l85.3,48.1c2.1,1.1,2.8,3.7,1.7,5.8
			C289,306.8,287.6,307.6,286,307.6L286,307.6z"/>
		<path class="st27" d="M286.8,301.9l-85.3-48.1c-4.4-2.5-5.9-8-3.4-12.4c0.8-1.4,2-2.6,3.4-3.4l69-39.5c2.8-1.6,6.2-1.6,9,0
			l25.9,14.7l3.2-1.9l-27.5-15.6c-3.8-2.2-8.4-2.2-12.2,0l-69,39.5c-5.9,3.4-8,10.9-4.6,16.8c1.1,1.9,2.7,3.5,4.6,4.6l85.3,48.1
			c0.7,0.5,1.7,0.3,2.2-0.5s0.3-1.7-0.5-2.2C286.9,302,286.9,302,286.8,301.9L286.8,301.9z"/>
		<ellipse class="st28" cx="233" cy="268" rx="19.3" ry="11.1"/>
		<path class="st17" d="M246.6,275.9c-4.3,2.3-9.1,3.4-13.9,3.3c-4.7,0.1-9.3-1.1-13.4-3.3c-3.8-2.2-5.6-5-5.6-7.8l0,0v8.3
			c0,2.9,1.9,5.7,5.6,7.9c4.1,2.2,8.7,3.3,13.4,3.3c4.8,0.1,9.6-1,13.9-3.3c3.8-2.2,5.7-5.1,5.6-7.9v-8.3l0,0
			C252.3,270.9,250.4,273.8,246.6,275.9z"/>
		
			<linearGradient id="SVGID_00000159446315606423823320000008711020125290641597_" gradientUnits="userSpaceOnUse" x1="215.3177" y1="194.5017" x2="460.9477" y2="51.7418" gradientTransform="matrix(1 0 0 -1 104.94 510.6456)">
			<stop  offset="0" style="stop-color:#FFFFFF"/>
			<stop  offset="1" style="stop-color:#3074E1"/>
		</linearGradient>
		<path style="fill:url(#SVGID_00000159446315606423823320000008711020125290641597_);" d="M339.6,342.4l-52.9-30.5
			c-6.3-3.6-5.5-9.9,1.8-14.1l0,0c7.2-4.2,18.1-4.6,24.4-1l52.9,30.5c6.3,3.6,5.5,9.9-1.8,14.1l0,0
			C356.8,345.6,345.9,346,339.6,342.4z"/>
		<path class="st18" d="M364,341.4c-7.2,4.2-18.1,4.6-24.4,1l-52.9-30.5c-2.7-1.6-4.1-3.6-4.2-5.8l0,0v15.6c0,0,0,0.1,0,0.1
			c0.1,2.2,1.4,4.4,4.2,6l52.9,30.5c6.3,3.6,17.2,3.2,24.4-1c4.1-2.4,6.1-5.4,6-8.2v-15.8C370,336.1,368,339.1,364,341.4z"/>
		<path class="st17" d="M316.5,313.9c-3.1,1.6-6.7,1.6-9.8,0c-2.7-1.6-2.7-4.1,0-5.7c3.1-1.6,6.7-1.6,9.8,0
			C319.2,309.8,319.2,312.3,316.5,313.9z"/>
		<path class="st17" d="M331.8,322.7c-3.1,1.6-6.7,1.6-9.8,0c-2.7-1.6-2.7-4.1,0-5.7c3.1-1.6,6.7-1.6,9.8,0
			C334.5,318.6,334.5,321.2,331.8,322.7z"/>
		<path class="st17" d="M347.1,331.6c-3.1,1.6-6.7,1.6-9.8,0c-2.7-1.6-2.7-4.1,0-5.7c3.1-1.6,6.7-1.6,9.8,0
			C349.8,327.5,349.8,330,347.1,331.6z"/>
		<path class="st5" d="M316.2,312.8c-3.1,1.6-6.7,1.6-9.8,0c-2.7-1.6-2.7-4.1,0-5.7c3.1-1.6,6.7-1.6,9.8,0
			C318.9,308.6,318.9,311.2,316.2,312.8z"/>
		<path class="st30" d="M331.5,321.6c-3.1,1.6-6.7,1.6-9.8,0c-2.7-1.6-2.7-4.1,0-5.7c3.1-1.6,6.7-1.6,9.8,0
			C334.2,317.5,334.2,320,331.5,321.6z"/>
		<path class="st14" d="M346.8,330.5c-3.1,1.6-6.7,1.6-9.8,0c-2.7-1.6-2.7-4.1,0-5.7c3.1-1.6,6.7-1.6,9.8,0
			C349.5,326.4,349.5,328.9,346.8,330.5z"/>
		<path class="st26" d="M470.8,413.9c-2.6,0-5.3-0.7-7.5-2l-100.9-59c-2-1.2-2.7-3.8-1.5-5.8c1.2-2,3.8-2.7,5.8-1.5l100.9,59
			c2,1.2,4.5,1.2,6.5,0l68.5-39.5c3.1-1.8,4.2-5.7,2.4-8.8c-0.6-1-1.4-1.8-2.4-2.4l-40.9-23.8c-2-1.3-2.6-3.9-1.3-5.9
			c1.2-1.9,3.6-2.5,5.6-1.5l40.9,23.8c7.2,4.1,9.6,13.3,5.5,20.5c-1.3,2.3-3.2,4.2-5.5,5.5L478.3,412
			C476,413.3,473.4,414,470.8,413.9z"/>
		<path class="st27" d="M470.8,411.3c-2.2,0-4.3-0.6-6.2-1.7l-100.9-59c-0.7-0.5-0.9-1.5-0.5-2.2c0.4-0.7,1.3-0.9,2.1-0.5l100.9,59
			c2.8,1.6,6.3,1.6,9.1,0l68.6-39.4c4.4-2.5,5.9-8.1,3.4-12.5c-0.8-1.4-2-2.6-3.4-3.4l-41-23.8c-0.7-0.5-0.9-1.5-0.4-2.2
			c0.4-0.6,1.3-0.9,2-0.5l40.9,23.8c5.9,3.4,7.9,10.9,4.5,16.8c-1.1,1.9-2.7,3.5-4.5,4.5l-68.5,39.5
			C475.1,410.7,473,411.3,470.8,411.3z"/>
		<ellipse class="st28" cx="428.6" cy="383.1" rx="19.3" ry="11.1"/>
		<path class="st17" d="M442.2,391c-4.3,2.3-9.1,3.4-13.9,3.3c-4.6,0.1-9.2-1.1-13.3-3.3c-3.8-2.2-5.6-5-5.6-7.8l0,0v8.3
			c0,2.9,1.9,5.7,5.6,7.9c8.6,4.3,18.7,4.3,27.3,0c3.8-2.2,5.7-5,5.6-7.9v-8.3l0,0C447.8,386,445.9,388.8,442.2,391z"/>
		<g>
			<path class="st26" d="M190.1,389c-2.3,0.1-4.3-1.8-4.4-4.1c-0.1-1.6,0.8-3.1,2.3-3.9l102.9-59.4c2-1.3,4.6-0.7,5.9,1.3
				s0.7,4.6-1.3,5.9c-0.1,0.1-0.2,0.1-0.3,0.2l-102.9,59.4C191.6,388.8,190.8,389,190.1,389z"/>
			<path class="st26" d="M233.6,414.1c-2.3,0-4.3-1.9-4.3-4.2c0-1.5,0.8-3,2.1-3.7l102.9-59.4c2-1.3,4.6-0.7,5.9,1.3
				c1.3,2,0.7,4.6-1.3,5.9c-0.1,0.1-0.2,0.1-0.3,0.2l-102.9,59.4C235.1,413.9,234.3,414.1,233.6,414.1z"/>
		</g>
		<path class="st27" d="M190.1,386.3c-0.6,0-1.1-0.3-1.4-0.8c-0.4-0.8-0.2-1.7,0.6-2.2c0,0,0,0,0,0l102.9-59.4
			c0.8-0.4,1.7-0.1,2.2,0.6c0.4,0.7,0.2,1.7-0.6,2.1l-102.9,59.4C190.6,386.2,190.4,386.3,190.1,386.3z"/>
		<path class="st27" d="M233.6,411.4c-0.9,0-1.6-0.7-1.6-1.6c0-0.6,0.3-1.1,0.8-1.4L335.7,349c0.8-0.4,1.7-0.1,2.2,0.6
			c0.4,0.7,0.2,1.7-0.6,2.1l-102.9,59.4C234.1,411.3,233.9,411.4,233.6,411.4z"/>
		
			<linearGradient id="SVGID_00000150790504979796877600000017550172109160629172_" gradientUnits="userSpaceOnUse" x1="148.6104" y1="99.0946" x2="300.6104" y2="156.0946" gradientTransform="matrix(1 0 0 -1 0 510.6456)">
			<stop  offset="0.11" style="stop-color:#5E3AF7"/>
			<stop  offset="1" style="stop-color:#FBF9FF"/>
		</linearGradient>
		
			<ellipse style="fill:url(#SVGID_00000150790504979796877600000017550172109160629172_);" cx="215.8" cy="386.3" rx="71.3" ry="41.2"/>
		
			<linearGradient id="SVGID_00000105398366125928636800000004724701998596155576_" gradientUnits="userSpaceOnUse" x1="187.5504" y1="128.7883" x2="38.8904" y2="152.7882" gradientTransform="matrix(1 0 0 -1 104.94 510.6456)">
			<stop  offset="0" style="stop-color:#4CFFD5"/>
			<stop  offset="0.61" style="stop-color:#B9FFEE"/>
			<stop  offset="1" style="stop-color:#FFFFFF"/>
		</linearGradient>
		<path style="fill:url(#SVGID_00000105398366125928636800000004724701998596155576_);" d="M163.7,359.2c27.9-16.1,73-16.1,100.9,0
			c21.7,12.5,26.5,31.2,14.3,46.4c14.2-15.6,10-35.3-12.6-48.4c-27.9-16.1-73-16.1-100.9,0c-5.5,3-10.3,7.1-14.3,11.9
			C154.7,365.2,159,361.8,163.7,359.2z"/>
		
			<linearGradient id="SVGID_00000075862197926117908670000002835152179802157468_" gradientUnits="userSpaceOnUse" x1="39.428" y1="85.7672" x2="200.028" y2="95.7772" gradientTransform="matrix(1 0 0 -1 104.94 510.6456)">
			<stop  offset="0" style="stop-color:#412AB7"/>
			<stop  offset="0.24" style="stop-color:#5C3AF7"/>
			<stop  offset="0.48" style="stop-color:#633AF7"/>
			<stop  offset="0.58" style="stop-color:#683AF7"/>
			<stop  offset="1" style="stop-color:#773AF6"/>
		</linearGradient>
		<path style="fill:url(#SVGID_00000075862197926117908670000002835152179802157468_);" d="M266.3,415.5
			c-14.2,8.2-32.9,12.2-51.5,12c-17.9-0.1-35.8-4.1-49.4-12c-13.9-8-20.8-18.5-20.9-29l0,0v30.8c-0.1,10.6,6.9,21.2,20.9,29.3
			c13.7,7.9,31.5,11.9,49.4,12c18.6,0.1,37.3-3.9,51.5-12c14-8.1,21-18.7,20.9-29.3v-30.8l0,0C287.1,397,280.2,407.5,266.3,415.5z"
			/>
		<ellipse class="st12" cx="215.8" cy="386.3" rx="52.9" ry="30.5"/>
		<path class="st34" d="M253.3,368.3c-20.7-11.9-54.2-11.9-74.8,0c-9.6,5.5-14.7,12.6-15.4,19.8c0.7,7.2,5.8,14.3,15.4,19.8
			c20.7,11.9,54.2,11.9,74.8,0c9.5-5.5,14.7-12.6,15.4-19.8C267.9,380.9,262.8,373.8,253.3,368.3z"/>
		<path class="st6" d="M188.8,387.1c0,0.3,0,0.5,0,0.8c0.1,1.1,0.5,2.1,1.1,3c0.8,1,1.8,1.9,3,2.5c3,1.8,6.5,2.7,10,2.8
			c1.8,0,3.6-0.1,5.4-0.5l-0.5,0.3c-0.3,0.1-0.4,0.4-0.4,0.6v5.9c0,0.3,0.2,0.6,0.5,0.7c1.3,0.7,2.7,1.2,4.2,1.4
			c1.8,0.3,3.5,0.5,5.3,0.4c2,0,4.1-0.3,6.1-0.6c2.2-0.4,4.3-1,6.4-1.7l4,2.3c0.9,0.5,2,0.5,2.9,0l7.1-4.1c0.3-0.2,0.6-0.5,0.6-0.9
			v-5.9c0-0.4-0.3-0.7-0.6-0.8l-0.2-0.1c0.7-1,1.1-2.1,1.2-3.3v-5.9c0.1-1.2-0.3-2.4-0.9-3.3c-0.9-1.2-2-2.2-3.3-2.9
			c-1.6-0.9-3.3-1.7-5.1-2.1c-1.8-0.4-3.6-0.6-5.4-0.6c-2,0.1-4,0.3-6,0.8l-0.8,0.2c0.2-0.1,0.3-0.3,0.3-0.6v-5.9
			c0-0.3-0.2-0.6-0.5-0.7c-1.2-0.6-2.5-1-3.8-1.2c-1.7-0.3-3.4-0.4-5.1-0.4c-2,0-3.9,0.2-5.9,0.5c-2.1,0.3-4.1,0.9-6.1,1.6l-4-2.3
			c-0.9-0.5-2-0.5-2.9,0l-7.1,4.1c-0.3,0.2-0.6,0.5-0.6,0.9v5.9c0,0.4,0.3,0.7,0.6,0.8l1,0.6c-0.2,0.6-0.4,1.2-0.4,1.8L188.8,387.1z
			"/>
		<path class="st5" d="M202.2,369.5c2-0.7,4-1.2,6.1-1.6c1.9-0.3,3.9-0.5,5.9-0.5c1.7,0,3.4,0.1,5.1,0.4c1.3,0.2,2.6,0.6,3.8,1.2
			c0.3,0.1,0.5,0.4,0.5,0.7c0,0.3-0.2,0.5-0.4,0.6l-7.1,4.1c-0.4,0.3-0.9,0.5-1.4,0.6c-0.5,0.1-1.1,0.2-1.6,0.2h-1
			c-0.6,0-1.2,0-1.8,0.1c-0.8,0.1-1.6,0.3-2.3,0.5c-0.9,0.3-1.8,0.7-2.7,1.2c-0.6,0.4-1.3,0.8-1.8,1.2c-0.5,0.3-0.9,0.8-1.2,1.2
			c-0.3,0.3-0.4,0.7-0.3,1.2c0.1,0.5,0.5,0.8,0.9,1c0.6,0.3,1.2,0.5,1.9,0.5c0.9,0,1.8-0.2,2.7-0.4c1.1-0.3,2.5-0.7,4.1-1.3
			s3.6-1.4,6-2.3c2.2-0.9,4.4-1.6,6.7-2.1c2-0.5,4-0.8,6-0.8c1.8,0,3.7,0.2,5.4,0.6c1.8,0.5,3.5,1.2,5.1,2.1
			c1.3,0.7,2.4,1.7,3.3,2.9c0.7,1,1,2.2,0.9,3.3c-0.1,1.3-0.6,2.5-1.4,3.6c-1,1.4-2.1,2.6-3.4,3.6l3.8,2.2c0.5,0.2,0.7,0.7,0.5,1.1
			c-0.1,0.3-0.3,0.5-0.5,0.5l-7.1,4.1c-0.9,0.5-2,0.5-2.9,0l-4-2.3c-4,1.4-8.2,2.2-12.4,2.3c-1.8,0-3.6-0.1-5.3-0.4
			c-1.5-0.3-2.9-0.7-4.2-1.4c-0.3-0.1-0.5-0.4-0.5-0.7c0-0.3,0.2-0.5,0.4-0.6l7.1-4.1c0.4-0.3,0.9-0.4,1.4-0.6
			c0.5-0.1,0.9-0.2,1.4-0.2h1.4c1.7,0,3.3-0.2,4.9-0.6c1.1-0.3,2.1-0.8,3.1-1.4c1.5-0.8,2.9-1.9,4.2-3.1c0.9-1,0.8-1.8-0.3-2.4
			c-0.6-0.3-1.3-0.5-2.1-0.4c-1.1,0.1-2.1,0.3-3.1,0.6c-1.2,0.4-2.7,0.9-4.5,1.6s-3.8,1.5-6.2,2.4c-3.8,1.6-8,2.4-12.1,2.5
			c-3.5-0.1-7-1-10-2.8c-1.2-0.6-2.2-1.5-3-2.5c-0.7-0.9-1.1-1.9-1.2-3c-0.1-1.2,0.2-2.3,0.7-3.3c0.7-1.3,1.6-2.5,2.7-3.5l-4-2.3
			c-0.3-0.1-0.6-0.5-0.6-0.8c0-0.4,0.3-0.7,0.6-0.9l7.1-4.1c0.9-0.5,2-0.5,2.9,0L202.2,369.5z"/>
		<path class="st20" d="M227.7,388.9l-0.6,0.4c-1,0.6-2,1-3.1,1.4c-1.6,0.5-3.2,0.7-4.9,0.6h-1.3c-0.5,0-1,0.1-1.4,0.2
			c-0.5,0.1-0.9,0.3-1.3,0.5l-3,1.7v5.1h0.1c1.8,0.3,3.5,0.5,5.3,0.4c2,0,4.1-0.2,6.1-0.6c1.4-0.2,2.8-0.6,4.2-1L227.7,388.9z"/>
		<path class="st20" d="M235.8,375.8l-0.3-0.1c-1.1-0.3-2.2-0.4-3.3-0.5v23.1l1.7,1c0.5,0.2,1,0.4,1.5,0.3c0.2,0,0.3,0,0.4,0
			L235.8,375.8z"/>
		<path class="st20" d="M211.9,375.1h1c0.5,0,1.1-0.1,1.6-0.2c0.5-0.1,1-0.3,1.4-0.6l7.1-4.1c0.3-0.1,0.4-0.4,0.4-0.6
			c0-0.3-0.2-0.6-0.5-0.7c-1.2-0.6-2.5-1-3.8-1.2c-1.7-0.3-3.4-0.4-5.1-0.4c-0.7,0-1.4,0-2.2,0.1L211.9,375.1z"/>
		<path class="st20" d="M196.1,389.1c2.2,0.8,4.5,1.3,6.8,1.3c0.8,0,1.7,0,2.5-0.1v-8.2c-0.3,0-0.6,0.1-0.9,0.1
			c-0.7,0-1.3-0.2-1.9-0.5c-0.4-0.2-0.8-0.5-0.9-1c0-0.4,0.1-0.8,0.4-1.2c0.4-0.5,0.8-0.9,1.2-1.2c0.6-0.5,1.2-0.9,1.8-1.2l0.2-0.1
			v-8.4c-1.1,0.3-2.1,0.6-3.2,1l-4-2.3c-0.4-0.2-1-0.4-1.5-0.3c-0.2,0-0.4,0-0.6,0.1L196.1,389.1z"/>
		<path class="st20" d="M221.2,385.6c1.7-0.7,3.2-1.2,4.5-1.6c0.7-0.2,1.4-0.4,2-0.5v-8.2c-1.2,0.1-2.5,0.3-3.7,0.6
			c-2.3,0.6-4.5,1.3-6.7,2.1c-2.1,0.8-3.8,1.5-5.3,2v8.9c1-0.3,2-0.6,3-1C217.4,387.1,219.5,386.3,221.2,385.6z"/>
		<g>
			<image style="overflow:visible;" width="179" height="303" xlink:href="C7FD38EF.png"  transform="matrix(1 0 0 1 126 150.42)">
			</image>
		</g>
		
			<radialGradient id="SVGID_00000013891088782117354790000010194358550176532647_" cx="-2192.7517" cy="-2772.7451" r="38.3" gradientTransform="matrix(0.8 -0.53 -0.62 -0.31 535.1304 -1647.5299)" gradientUnits="userSpaceOnUse">
			<stop  offset="0" style="stop-color:#1B2062"/>
			<stop  offset="0.24" style="stop-color:#1A1F5F;stop-opacity:0.97"/>
			<stop  offset="0.43" style="stop-color:#171C55;stop-opacity:0.86"/>
			<stop  offset="0.61" style="stop-color:#131743;stop-opacity:0.69"/>
			<stop  offset="0.78" style="stop-color:#0C102B;stop-opacity:0.44"/>
			<stop  offset="0.95" style="stop-color:#04070C;stop-opacity:0.12"/>
			<stop  offset="1" style="stop-color:#010400;stop-opacity:0"/>
		</radialGradient>
		
			<ellipse style="fill:url(#SVGID_00000013891088782117354790000010194358550176532647_);" cx="498.9" cy="373" rx="48.7" ry="28.1"/>
		<g>
			
				<radialGradient id="SVGID_00000083793304112559736830000012744134511347200179_" cx="409.5862" cy="-660.9959" r="3.8116" gradientTransform="matrix(1 0 0 -0.59 104.94 -25.4892)" gradientUnits="userSpaceOnUse">
				<stop  offset="0" style="stop-color:#FFFFFF"/>
				<stop  offset="0.16" style="stop-color:#FCFCFC;stop-opacity:0.99"/>
				<stop  offset="0.29" style="stop-color:#F2F2F2;stop-opacity:0.95"/>
				<stop  offset="0.41" style="stop-color:#E0E1E0;stop-opacity:0.88"/>
				<stop  offset="0.52" style="stop-color:#C8C9C8;stop-opacity:0.78"/>
				<stop  offset="0.63" style="stop-color:#A9AAA9;stop-opacity:0.66"/>
				<stop  offset="0.74" style="stop-color:#838482;stop-opacity:0.51"/>
				<stop  offset="0.84" style="stop-color:#555754;stop-opacity:0.33"/>
				<stop  offset="0.94" style="stop-color:#222521;stop-opacity:0.13"/>
				<stop  offset="1" style="stop-color:#010400;stop-opacity:0"/>
			</radialGradient>
			<path style="fill:url(#SVGID_00000083793304112559736830000012744134511347200179_);" d="M517.2,362.6c1.5,0.9,1.5,2.3,0,3.1
				c-1.7,0.9-3.7,0.9-5.4,0c-1.5-0.9-1.5-2.3,0-3.1C513.5,361.7,515.5,361.7,517.2,362.6z"/>
			
				<radialGradient id="SVGID_00000183227391710953271050000010030832058353072807_" cx="401.71" cy="-665.4359" r="3.81" gradientTransform="matrix(1 0 0 -0.59 104.94 -23.6592)" gradientUnits="userSpaceOnUse">
				<stop  offset="0" style="stop-color:#FFFFFF"/>
				<stop  offset="0.16" style="stop-color:#FCFCFC;stop-opacity:0.99"/>
				<stop  offset="0.29" style="stop-color:#F2F2F2;stop-opacity:0.95"/>
				<stop  offset="0.41" style="stop-color:#E0E1E0;stop-opacity:0.88"/>
				<stop  offset="0.52" style="stop-color:#C8C9C8;stop-opacity:0.78"/>
				<stop  offset="0.63" style="stop-color:#A9AAA9;stop-opacity:0.66"/>
				<stop  offset="0.74" style="stop-color:#838482;stop-opacity:0.51"/>
				<stop  offset="0.84" style="stop-color:#555754;stop-opacity:0.33"/>
				<stop  offset="0.94" style="stop-color:#222521;stop-opacity:0.13"/>
				<stop  offset="1" style="stop-color:#010400;stop-opacity:0"/>
			</radialGradient>
			
				<ellipse style="fill:url(#SVGID_00000183227391710953271050000010030832058353072807_);" cx="506.6" cy="368.6" rx="3.9" ry="2.2"/>
			
				<radialGradient id="SVGID_00000176761514668170148350000015489233661665451454_" cx="393.83" cy="-669.8859" r="3.81" gradientTransform="matrix(1 0 0 -0.59 104.94 -21.8392)" gradientUnits="userSpaceOnUse">
				<stop  offset="0" style="stop-color:#FFFFFF"/>
				<stop  offset="0.16" style="stop-color:#FCFCFC;stop-opacity:0.99"/>
				<stop  offset="0.29" style="stop-color:#F2F2F2;stop-opacity:0.95"/>
				<stop  offset="0.41" style="stop-color:#E0E1E0;stop-opacity:0.88"/>
				<stop  offset="0.52" style="stop-color:#C8C9C8;stop-opacity:0.78"/>
				<stop  offset="0.63" style="stop-color:#A9AAA9;stop-opacity:0.66"/>
				<stop  offset="0.74" style="stop-color:#838482;stop-opacity:0.51"/>
				<stop  offset="0.84" style="stop-color:#555754;stop-opacity:0.33"/>
				<stop  offset="0.94" style="stop-color:#222521;stop-opacity:0.13"/>
				<stop  offset="1" style="stop-color:#010400;stop-opacity:0"/>
			</radialGradient>
			
				<ellipse style="fill:url(#SVGID_00000176761514668170148350000015489233661665451454_);" cx="498.8" cy="373" rx="3.9" ry="2.2"/>
			
				<radialGradient id="SVGID_00000059288851818494070400000017307815195701058960_" cx="385.95" cy="-674.3259" r="3.81" gradientTransform="matrix(1 0 0 -0.59 104.94 -20.0092)" gradientUnits="userSpaceOnUse">
				<stop  offset="0" style="stop-color:#FFFFFF"/>
				<stop  offset="0.16" style="stop-color:#FCFCFC;stop-opacity:0.99"/>
				<stop  offset="0.29" style="stop-color:#F2F2F2;stop-opacity:0.95"/>
				<stop  offset="0.41" style="stop-color:#E0E1E0;stop-opacity:0.88"/>
				<stop  offset="0.52" style="stop-color:#C8C9C8;stop-opacity:0.78"/>
				<stop  offset="0.63" style="stop-color:#A9AAA9;stop-opacity:0.66"/>
				<stop  offset="0.74" style="stop-color:#838482;stop-opacity:0.51"/>
				<stop  offset="0.84" style="stop-color:#555754;stop-opacity:0.33"/>
				<stop  offset="0.94" style="stop-color:#222521;stop-opacity:0.13"/>
				<stop  offset="1" style="stop-color:#010400;stop-opacity:0"/>
			</radialGradient>
			<path style="fill:url(#SVGID_00000059288851818494070400000017307815195701058960_);" d="M493.6,375.9c1.5,0.9,1.5,2.3,0,3.1
				c-1.7,0.9-3.7,0.9-5.4,0c-1.5-0.9-1.5-2.3,0-3.1C489.9,375,491.9,375,493.6,375.9z"/>
			
				<radialGradient id="SVGID_00000083807371102907141020000009733982006439460022_" cx="378.07" cy="-678.7659" r="3.81" gradientTransform="matrix(1 0 0 -0.59 104.94 -18.1892)" gradientUnits="userSpaceOnUse">
				<stop  offset="0" style="stop-color:#FFFFFF"/>
				<stop  offset="0.16" style="stop-color:#FCFCFC;stop-opacity:0.99"/>
				<stop  offset="0.29" style="stop-color:#F2F2F2;stop-opacity:0.95"/>
				<stop  offset="0.41" style="stop-color:#E0E1E0;stop-opacity:0.88"/>
				<stop  offset="0.52" style="stop-color:#C8C9C8;stop-opacity:0.78"/>
				<stop  offset="0.63" style="stop-color:#A9AAA9;stop-opacity:0.66"/>
				<stop  offset="0.74" style="stop-color:#838482;stop-opacity:0.51"/>
				<stop  offset="0.84" style="stop-color:#555754;stop-opacity:0.33"/>
				<stop  offset="0.94" style="stop-color:#222521;stop-opacity:0.13"/>
				<stop  offset="1" style="stop-color:#010400;stop-opacity:0"/>
			</radialGradient>
			
				<ellipse style="fill:url(#SVGID_00000083807371102907141020000009733982006439460022_);" cx="483" cy="381.9" rx="3.9" ry="2.2"/>
		</g>
		
			<radialGradient id="SVGID_00000130634623042029970060000004079089531434710667_" cx="-2186.5017" cy="-2486.6851" r="38.3" gradientTransform="matrix(0.8 -0.53 -0.62 -0.31 464.1404 -1701.8499)" gradientUnits="userSpaceOnUse">
			<stop  offset="0" style="stop-color:#1B2062"/>
			<stop  offset="0.24" style="stop-color:#1A1F5F;stop-opacity:0.97"/>
			<stop  offset="0.43" style="stop-color:#171C55;stop-opacity:0.86"/>
			<stop  offset="0.61" style="stop-color:#131743;stop-opacity:0.69"/>
			<stop  offset="0.78" style="stop-color:#0C102B;stop-opacity:0.44"/>
			<stop  offset="0.95" style="stop-color:#04070C;stop-opacity:0.12"/>
			<stop  offset="1" style="stop-color:#010400;stop-opacity:0"/>
		</radialGradient>
		
			<ellipse style="fill:url(#SVGID_00000130634623042029970060000004079089531434710667_);" cx="256.6" cy="226.9" rx="48.7" ry="28.1"/>
		<g>
			
				<radialGradient id="SVGID_00000112630516765202709390000017879232617043828387_" cx="167.27" cy="-514.8359" r="3.81" gradientTransform="matrix(1 0 0 -0.59 104.94 -85.5492)" gradientUnits="userSpaceOnUse">
				<stop  offset="0" style="stop-color:#FFFFFF"/>
				<stop  offset="0.16" style="stop-color:#FCFCFC;stop-opacity:0.99"/>
				<stop  offset="0.29" style="stop-color:#F2F2F2;stop-opacity:0.95"/>
				<stop  offset="0.41" style="stop-color:#E0E1E0;stop-opacity:0.88"/>
				<stop  offset="0.52" style="stop-color:#C8C9C8;stop-opacity:0.78"/>
				<stop  offset="0.63" style="stop-color:#A9AAA9;stop-opacity:0.66"/>
				<stop  offset="0.74" style="stop-color:#838482;stop-opacity:0.51"/>
				<stop  offset="0.84" style="stop-color:#555754;stop-opacity:0.33"/>
				<stop  offset="0.94" style="stop-color:#222521;stop-opacity:0.13"/>
				<stop  offset="1" style="stop-color:#010400;stop-opacity:0"/>
			</radialGradient>
			<path style="fill:url(#SVGID_00000112630516765202709390000017879232617043828387_);" d="M274.9,216.4c1.5,0.9,1.5,2.3,0,3.1
				c-1.7,0.9-3.7,0.9-5.4,0c-1.5-0.9-1.5-2.3,0-3.1C271.2,215.6,273.2,215.6,274.9,216.4z"/>
			
				<radialGradient id="SVGID_00000098923925111071819950000000192559224394234767_" cx="159.39" cy="-519.2859" r="3.81" gradientTransform="matrix(1 0 0 -0.59 104.94 -83.7292)" gradientUnits="userSpaceOnUse">
				<stop  offset="0" style="stop-color:#FFFFFF"/>
				<stop  offset="0.16" style="stop-color:#FCFCFC;stop-opacity:0.99"/>
				<stop  offset="0.29" style="stop-color:#F2F2F2;stop-opacity:0.95"/>
				<stop  offset="0.41" style="stop-color:#E0E1E0;stop-opacity:0.88"/>
				<stop  offset="0.52" style="stop-color:#C8C9C8;stop-opacity:0.78"/>
				<stop  offset="0.63" style="stop-color:#A9AAA9;stop-opacity:0.66"/>
				<stop  offset="0.74" style="stop-color:#838482;stop-opacity:0.51"/>
				<stop  offset="0.84" style="stop-color:#555754;stop-opacity:0.33"/>
				<stop  offset="0.94" style="stop-color:#222521;stop-opacity:0.13"/>
				<stop  offset="1" style="stop-color:#010400;stop-opacity:0"/>
			</radialGradient>
			
				<ellipse style="fill:url(#SVGID_00000098923925111071819950000000192559224394234767_);" cx="264.3" cy="222.4" rx="3.9" ry="2.2"/>
			
				<radialGradient id="SVGID_00000031166704183753153320000005980026839006880924_" cx="151.51" cy="-523.726" r="3.81" gradientTransform="matrix(1 0 0 -0.59 104.94 -81.8992)" gradientUnits="userSpaceOnUse">
				<stop  offset="0" style="stop-color:#FFFFFF"/>
				<stop  offset="0.16" style="stop-color:#FCFCFC;stop-opacity:0.99"/>
				<stop  offset="0.29" style="stop-color:#F2F2F2;stop-opacity:0.95"/>
				<stop  offset="0.41" style="stop-color:#E0E1E0;stop-opacity:0.88"/>
				<stop  offset="0.52" style="stop-color:#C8C9C8;stop-opacity:0.78"/>
				<stop  offset="0.63" style="stop-color:#A9AAA9;stop-opacity:0.66"/>
				<stop  offset="0.74" style="stop-color:#838482;stop-opacity:0.51"/>
				<stop  offset="0.84" style="stop-color:#555754;stop-opacity:0.33"/>
				<stop  offset="0.94" style="stop-color:#222521;stop-opacity:0.13"/>
				<stop  offset="1" style="stop-color:#010400;stop-opacity:0"/>
			</radialGradient>
			
				<ellipse style="fill:url(#SVGID_00000031166704183753153320000005980026839006880924_);" cx="256.5" cy="226.9" rx="3.9" ry="2.2"/>
			
				<radialGradient id="SVGID_00000022558608377941182700000007712772282559645318_" cx="143.6338" cy="-528.166" r="3.8083" gradientTransform="matrix(1 0 0 -0.59 104.94 -80.0792)" gradientUnits="userSpaceOnUse">
				<stop  offset="0" style="stop-color:#FFFFFF"/>
				<stop  offset="0.16" style="stop-color:#FCFCFC;stop-opacity:0.99"/>
				<stop  offset="0.29" style="stop-color:#F2F2F2;stop-opacity:0.95"/>
				<stop  offset="0.41" style="stop-color:#E0E1E0;stop-opacity:0.88"/>
				<stop  offset="0.52" style="stop-color:#C8C9C8;stop-opacity:0.78"/>
				<stop  offset="0.63" style="stop-color:#A9AAA9;stop-opacity:0.66"/>
				<stop  offset="0.74" style="stop-color:#838482;stop-opacity:0.51"/>
				<stop  offset="0.84" style="stop-color:#555754;stop-opacity:0.33"/>
				<stop  offset="0.94" style="stop-color:#222521;stop-opacity:0.13"/>
				<stop  offset="1" style="stop-color:#010400;stop-opacity:0"/>
			</radialGradient>
			<path style="fill:url(#SVGID_00000022558608377941182700000007712772282559645318_);" d="M251.3,229.7c1.5,0.9,1.5,2.3,0,3.1
				c-1.7,0.9-3.7,0.9-5.4,0c-1.5-0.9-1.5-2.3,0-3.1C247.6,228.9,249.6,228.9,251.3,229.7z"/>
			
				<radialGradient id="SVGID_00000173843604399750194410000008158713759052032166_" cx="135.75" cy="-532.606" r="3.81" gradientTransform="matrix(1 0 0 -0.59 104.94 -78.2492)" gradientUnits="userSpaceOnUse">
				<stop  offset="0" style="stop-color:#FFFFFF"/>
				<stop  offset="0.16" style="stop-color:#FCFCFC;stop-opacity:0.99"/>
				<stop  offset="0.29" style="stop-color:#F2F2F2;stop-opacity:0.95"/>
				<stop  offset="0.41" style="stop-color:#E0E1E0;stop-opacity:0.88"/>
				<stop  offset="0.52" style="stop-color:#C8C9C8;stop-opacity:0.78"/>
				<stop  offset="0.63" style="stop-color:#A9AAA9;stop-opacity:0.66"/>
				<stop  offset="0.74" style="stop-color:#838482;stop-opacity:0.51"/>
				<stop  offset="0.84" style="stop-color:#555754;stop-opacity:0.33"/>
				<stop  offset="0.94" style="stop-color:#222521;stop-opacity:0.13"/>
				<stop  offset="1" style="stop-color:#010400;stop-opacity:0"/>
			</radialGradient>
			
				<ellipse style="fill:url(#SVGID_00000173843604399750194410000008158713759052032166_);" cx="240.7" cy="235.8" rx="3.9" ry="2.2"/>
		</g>
		
			<radialGradient id="SVGID_00000160190575164281571700000018399355357458156706_" cx="-646.8426" cy="-6438.2881" r="27.5756" gradientTransform="matrix(0.8938 -0.4484 -0.1255 -0.2503 80.3074 -1534.6914)" gradientUnits="userSpaceOnUse">
			<stop  offset="0" style="stop-color:#55D1FF"/>
			<stop  offset="0.16" style="stop-color:#54CEFC;stop-opacity:0.99"/>
			<stop  offset="0.29" style="stop-color:#51C6F2;stop-opacity:0.95"/>
			<stop  offset="0.41" style="stop-color:#4BB8E0;stop-opacity:0.88"/>
			<stop  offset="0.52" style="stop-color:#43A5C8;stop-opacity:0.78"/>
			<stop  offset="0.63" style="stop-color:#398CA9;stop-opacity:0.66"/>
			<stop  offset="0.74" style="stop-color:#2C6D82;stop-opacity:0.51"/>
			<stop  offset="0.84" style="stop-color:#1D4854;stop-opacity:0.33"/>
			<stop  offset="0.94" style="stop-color:#0C1F21;stop-opacity:0.13"/>
			<stop  offset="1" style="stop-color:#010400;stop-opacity:0"/>
		</radialGradient>
		<path style="fill:url(#SVGID_00000160190575164281571700000018399355357458156706_);" d="M336.2,353.4c1.5,3-8.9,11.2-23.2,18.3
			s-27.1,10.5-28.6,7.5s8.9-11.2,23.2-18.3S334.7,350.4,336.2,353.4z"/>
		
			<radialGradient id="SVGID_00000110472023630515979960000006669073454084457858_" cx="-667.5059" cy="-6394.688" r="27.5775" gradientTransform="matrix(0.8938 -0.4484 -0.1255 -0.2503 66.3174 -1562.9314)" gradientUnits="userSpaceOnUse">
			<stop  offset="0" style="stop-color:#55D1FF"/>
			<stop  offset="0.16" style="stop-color:#54CEFC;stop-opacity:0.99"/>
			<stop  offset="0.29" style="stop-color:#51C6F2;stop-opacity:0.95"/>
			<stop  offset="0.41" style="stop-color:#4BB8E0;stop-opacity:0.88"/>
			<stop  offset="0.52" style="stop-color:#43A5C8;stop-opacity:0.78"/>
			<stop  offset="0.63" style="stop-color:#398CA9;stop-opacity:0.66"/>
			<stop  offset="0.74" style="stop-color:#2C6D82;stop-opacity:0.51"/>
			<stop  offset="0.84" style="stop-color:#1D4854;stop-opacity:0.33"/>
			<stop  offset="0.94" style="stop-color:#0C1F21;stop-opacity:0.13"/>
			<stop  offset="1" style="stop-color:#010400;stop-opacity:0"/>
		</radialGradient>
		<path style="fill:url(#SVGID_00000110472023630515979960000006669073454084457858_);" d="M298.2,323.6c1.5,3-8.9,11.2-23.2,18.3
			s-27.1,10.5-28.6,7.5s8.9-11.2,23.2-18.3C283.9,323.9,296.8,320.6,298.2,323.6z"/>
		
			<radialGradient id="SVGID_00000044874779356069771860000011097814031951557771_" cx="496.7639" cy="2043.9626" r="19.0246" gradientTransform="matrix(0.866 0.5 0.165 -0.2858 -377.4434 700.2793)" gradientUnits="userSpaceOnUse">
			<stop  offset="0" style="stop-color:#55D1FF"/>
			<stop  offset="0.16" style="stop-color:#54CEFC;stop-opacity:0.99"/>
			<stop  offset="0.29" style="stop-color:#51C6F2;stop-opacity:0.95"/>
			<stop  offset="0.41" style="stop-color:#4BB8E0;stop-opacity:0.88"/>
			<stop  offset="0.52" style="stop-color:#43A5C8;stop-opacity:0.78"/>
			<stop  offset="0.63" style="stop-color:#398CA9;stop-opacity:0.66"/>
			<stop  offset="0.74" style="stop-color:#2C6D82;stop-opacity:0.51"/>
			<stop  offset="0.84" style="stop-color:#1D4854;stop-opacity:0.33"/>
			<stop  offset="0.94" style="stop-color:#0C1F21;stop-opacity:0.13"/>
			<stop  offset="1" style="stop-color:#010400;stop-opacity:0"/>
		</radialGradient>
		<path style="fill:url(#SVGID_00000044874779356069771860000011097814031951557771_);" d="M371.8,353.9c1.9-3.3,11.6-1.2,21.7,4.6
			c10.1,5.8,16.7,13.2,14.9,16.5c-1.9,3.3-11.6,1.2-21.7-4.6C376.5,364.6,369.9,357.2,371.8,353.9z"/>
		
			<radialGradient id="SVGID_00000109727770086955205060000010478670649483500215_" cx="354.2539" cy="2044.3026" r="19.02" gradientTransform="matrix(0.866 0.5 0.165 -0.2858 -377.3202 700.0822)" gradientUnits="userSpaceOnUse">
			<stop  offset="0" style="stop-color:#55D1FF"/>
			<stop  offset="0.16" style="stop-color:#54CEFC;stop-opacity:0.99"/>
			<stop  offset="0.29" style="stop-color:#51C6F2;stop-opacity:0.95"/>
			<stop  offset="0.41" style="stop-color:#4BB8E0;stop-opacity:0.88"/>
			<stop  offset="0.52" style="stop-color:#43A5C8;stop-opacity:0.78"/>
			<stop  offset="0.63" style="stop-color:#398CA9;stop-opacity:0.66"/>
			<stop  offset="0.74" style="stop-color:#2C6D82;stop-opacity:0.51"/>
			<stop  offset="0.84" style="stop-color:#1D4854;stop-opacity:0.33"/>
			<stop  offset="0.94" style="stop-color:#0C1F21;stop-opacity:0.13"/>
			<stop  offset="1" style="stop-color:#010400;stop-opacity:0"/>
		</radialGradient>
		<path style="fill:url(#SVGID_00000109727770086955205060000010478670649483500215_);" d="M248.5,282.4c1.9-3.3,11.6-1.2,21.7,4.6
			c10.1,5.8,16.7,13.2,14.9,16.5s-11.6,1.2-21.7-4.6C253.3,293,246.6,285.7,248.5,282.4z"/>
		
			<radialGradient id="SVGID_00000057836698959057110700000007481168240879026838_" cx="-467.1818" cy="-6524.0898" r="43.79" gradientTransform="matrix(0.8955 -0.4451 -0.1246 -0.2507 117.9062 -1455.0183)" gradientUnits="userSpaceOnUse">
			<stop  offset="0" style="stop-color:#55D1FF"/>
			<stop  offset="0.16" style="stop-color:#54CEFC;stop-opacity:0.99"/>
			<stop  offset="0.29" style="stop-color:#51C6F2;stop-opacity:0.95"/>
			<stop  offset="0.41" style="stop-color:#4BB8E0;stop-opacity:0.88"/>
			<stop  offset="0.52" style="stop-color:#43A5C8;stop-opacity:0.78"/>
			<stop  offset="0.63" style="stop-color:#398CA9;stop-opacity:0.66"/>
			<stop  offset="0.74" style="stop-color:#2C6D82;stop-opacity:0.51"/>
			<stop  offset="0.84" style="stop-color:#1D4854;stop-opacity:0.33"/>
			<stop  offset="0.94" style="stop-color:#0C1F21;stop-opacity:0.13"/>
			<stop  offset="1" style="stop-color:#010400;stop-opacity:0"/>
		</radialGradient>
		<path style="fill:url(#SVGID_00000057836698959057110700000007481168240879026838_);" d="M508.1,378.3
			c22.7-11.3,43-16.6,45.4-11.8c2.4,4.8-14.1,17.8-36.9,29c-22.7,11.3-43,16.6-45.4,11.8C468.8,402.6,485.3,389.6,508.1,378.3z"/>
		
			<radialGradient id="SVGID_00000114073122179212215700000016189877450380478390_" cx="407.39" cy="146.83" r="14.1449" gradientTransform="matrix(1 0 0 -1.02 104.94 536.2184)" gradientUnits="userSpaceOnUse">
			<stop  offset="0" style="stop-color:#55D1FF"/>
			<stop  offset="0.16" style="stop-color:#54CEFC;stop-opacity:0.99"/>
			<stop  offset="0.29" style="stop-color:#51C6F2;stop-opacity:0.95"/>
			<stop  offset="0.41" style="stop-color:#4BB8E0;stop-opacity:0.88"/>
			<stop  offset="0.52" style="stop-color:#43A5C8;stop-opacity:0.78"/>
			<stop  offset="0.63" style="stop-color:#398CA9;stop-opacity:0.66"/>
			<stop  offset="0.74" style="stop-color:#2C6D82;stop-opacity:0.51"/>
			<stop  offset="0.84" style="stop-color:#1D4854;stop-opacity:0.33"/>
			<stop  offset="0.94" style="stop-color:#0C1F21;stop-opacity:0.13"/>
			<stop  offset="1" style="stop-color:#010400;stop-opacity:0"/>
		</radialGradient>
		<circle style="fill:url(#SVGID_00000114073122179212215700000016189877450380478390_);" cx="512.3" cy="386.6" r="14.3"/>
		
			<radialGradient id="SVGID_00000052798114074890469560000017120944832394778031_" cx="-541.1492" cy="-6202.4995" r="43.79" gradientTransform="matrix(0.91 -0.41 -0.11 -0.25 50.0011 -1559.8687)" gradientUnits="userSpaceOnUse">
			<stop  offset="0" style="stop-color:#55D1FF"/>
			<stop  offset="0.16" style="stop-color:#54CEFC;stop-opacity:0.99"/>
			<stop  offset="0.29" style="stop-color:#51C6F2;stop-opacity:0.95"/>
			<stop  offset="0.41" style="stop-color:#4BB8E0;stop-opacity:0.88"/>
			<stop  offset="0.52" style="stop-color:#43A5C8;stop-opacity:0.78"/>
			<stop  offset="0.63" style="stop-color:#398CA9;stop-opacity:0.66"/>
			<stop  offset="0.74" style="stop-color:#2C6D82;stop-opacity:0.51"/>
			<stop  offset="0.84" style="stop-color:#1D4854;stop-opacity:0.33"/>
			<stop  offset="0.94" style="stop-color:#0C1F21;stop-opacity:0.13"/>
			<stop  offset="1" style="stop-color:#010400;stop-opacity:0"/>
		</radialGradient>
		<path style="fill:url(#SVGID_00000052798114074890469560000017120944832394778031_);" d="M283,194.9c2.2,4.9-14.9,17.1-38,27.5
			s-43.7,14.7-45.9,9.9s14.9-17.1,38.1-27.5S280.8,190,283,194.9z"/>
		
			<radialGradient id="SVGID_00000158007414594445003770000014954251837976518831_" cx="133.58" cy="319.0999" r="14.1597" gradientTransform="matrix(1 0 0 -1.02 104.94 539.7285)" gradientUnits="userSpaceOnUse">
			<stop  offset="0" style="stop-color:#55D1FF"/>
			<stop  offset="0.16" style="stop-color:#54CEFC;stop-opacity:0.99"/>
			<stop  offset="0.29" style="stop-color:#51C6F2;stop-opacity:0.95"/>
			<stop  offset="0.41" style="stop-color:#4BB8E0;stop-opacity:0.88"/>
			<stop  offset="0.52" style="stop-color:#43A5C8;stop-opacity:0.78"/>
			<stop  offset="0.63" style="stop-color:#398CA9;stop-opacity:0.66"/>
			<stop  offset="0.74" style="stop-color:#2C6D82;stop-opacity:0.51"/>
			<stop  offset="0.84" style="stop-color:#1D4854;stop-opacity:0.33"/>
			<stop  offset="0.94" style="stop-color:#0C1F21;stop-opacity:0.13"/>
			<stop  offset="1" style="stop-color:#010400;stop-opacity:0"/>
		</radialGradient>
		<circle style="fill:url(#SVGID_00000158007414594445003770000014954251837976518831_);" cx="238.5" cy="214.3" r="14.3"/>
	</g>
	<g id="DESIGNED_BY_FREEPIK">
		<path class="st0" d="M366.4,464.9c-0.5,0.5-0.9,1-1.2,1.6l-0.5-0.3c-0.1-0.3-0.4-0.6-0.8-0.5c-0.4,0.1-0.6,0.4-0.6,0.8
			c0.1,0.4,0.4,0.6,0.7,0.6c0.1,0,0.1,0,0.2-0.1l0.5,0.3c-0.3,0.6-0.5,1.3-0.6,2l0.9,0.1c0.3-1.5,1-2.9,2-3.9L366.4,464.9z"/>
		<path class="st0" d="M372.6,462.3H372l-0.1-0.7c0.2-0.2,0.3-0.5,0.3-0.7c0-0.5-0.4-0.8-0.9-0.7s-0.8,0.4-0.7,0.9
			c0,0.3,0.2,0.5,0.5,0.7l0.1,0.7c-0.8,0.1-1.6,0.4-2.3,0.7l0.4,0.8c1.6-0.8,3.4-1,5.1-0.6l0.2-0.8
			C373.8,462.3,373.2,462.3,372.6,462.3z"/>
		<path class="st0" d="M380.1,465.2c0.4,0,0.6-0.4,0.6-0.8c0-0.4-0.4-0.6-0.8-0.6c-0.3,0-0.6,0.3-0.6,0.7l-0.5,0.4
			c-0.5-0.5-1-0.9-1.6-1.3l-0.5,0.7c1.3,0.8,2.3,1.9,2.9,3.3l0.8-0.4c-0.3-0.6-0.6-1.2-1.1-1.8l0.5-0.4
			C379.9,465.2,380,465.2,380.1,465.2z"/>
		<path class="st0" d="M371.9,473.8h-1.3c-0.9,0-1.9-0.1-2.8-0.2c-0.5-0.1-1-0.2-1.4-0.3c1.9,3.4,6.2,4.6,9.5,2.7
			c1.6-0.9,2.8-2.4,3.3-4.2c-0.9,0.6-1.8,1-2.8,1.3C375,473.5,373.5,473.8,371.9,473.8z"/>
		<path class="st0" d="M372.6,464c-3.8,0-6.8,3-6.9,6.7c0,0.5,0.1,1,0.2,1.4c0.8,0.5,3.1,1,6,0.8c3.3-0.2,6-1.1,7.6-2.5
			c0-0.2,0-0.4,0-0.6C379,466.5,376,464,372.6,464z M370.1,471.4c-1.2,0-2.1-0.9-2.1-2.1c0-1.2,0.9-2.1,2.1-2.1
			c1.2,0,2.1,0.9,2.1,2.1S371.3,471.4,370.1,471.4L370.1,471.4z M375.5,470.4c-0.9,0-1.5-0.7-1.5-1.5c0-0.9,0.7-1.5,1.5-1.5
			c0.9,0,1.5,0.7,1.5,1.5C377,469.7,376.4,470.4,375.5,470.4L375.5,470.4z"/>
		<path class="st0" d="M390.7,466.1c-0.5-0.2-1-0.3-1.6-0.3c-0.6,0.1-1,0.4-1,1.1v1h2.5v1.9h-2.5v6.2H386v-6.2h-1.5V468h1.5v-1
			c0-1.9,1-3.1,2.9-3.1c0.6,0,1.2,0.1,1.8,0.4L390.7,466.1z"/>
		<path class="st0" d="M396,469.9c-0.2,0-0.4,0-0.6,0c-0.9-0.1-1.7,0.6-1.7,1.5c0,0.1,0,0.2,0,0.3v4.4h-2.2V468h2.1v0.9
			c0.5-0.8,1.4-1.2,2.3-1.1c0.4,0,0.9,0.1,1.2,0.4L396,469.9z"/>
		<path class="st0" d="M404.7,472c0,0.2,0,0.5,0,0.7h-5.7c0.2,1,1.1,1.7,2.1,1.7c0.8,0,1.5-0.3,2.1-0.8l1.3,1.4
			c-0.9,0.8-2.2,1.3-3.4,1.2c-2.4-0.1-4.2-2.1-4.1-4.4c0.1-2.2,1.8-4,4-4.1C403.1,467.7,404.7,469.5,404.7,472z M398.9,471.2h3.6
			c-0.1-0.9-0.8-1.6-1.8-1.6C399.8,469.6,399,470.3,398.9,471.2L398.9,471.2z"/>
		<path class="st0" d="M413.4,472c0,0.2,0,0.5,0,0.7h-5.8c0.2,1,1.1,1.7,2.1,1.7c0.8,0,1.5-0.3,2-0.8l1.3,1.4
			c-1,0.8-2.2,1.3-3.5,1.2c-2.4-0.1-4.2-2.1-4.1-4.4c0.1-2.2,1.8-4,4-4.1C411.8,467.7,413.4,469.5,413.4,472z M407.6,471.2h3.6
			c-0.1-0.9-0.8-1.6-1.8-1.6C408.5,469.6,407.7,470.3,407.6,471.2L407.6,471.2z"/>
		<path class="st0" d="M422.8,472c0.2,2.2-1.5,4.1-3.7,4.3c-0.1,0-0.1,0-0.2,0c-0.9,0-1.8-0.4-2.4-1.1v4.2h-2.2V468h2.1v0.9
			c0.6-0.7,1.5-1.2,2.4-1.1c2.2,0,4,1.8,3.9,4.1C422.8,471.9,422.8,471.9,422.8,472z M416.4,472c0.1,1.2,1.1,2,2.2,2
			c1.2-0.1,2-1.1,2-2.2c-0.1-1.1-1-2-2.1-2c-1.2,0-2.1,0.9-2.1,2.1C416.4,471.9,416.4,472,416.4,472z"/>
		<path class="st0" d="M426.4,465.3c0,0.8-0.6,1.4-1.4,1.4c-0.8,0-1.4-0.6-1.4-1.4c0-0.8,0.6-1.4,1.4-1.4
			C425.7,463.9,426.4,464.5,426.4,465.3C426.4,465.3,426.4,465.3,426.4,465.3z M426.1,476.1h-2.2V468h2.2V476.1z"/>
		<path class="st0" d="M429.7,470.9l3.1-2.9h2.7l-3.9,3.8l4,4.3h-2.7l-3.1-3.3v3.3h-2.2V464h2.2L429.7,470.9z"/>
		<path class="st0" d="M280.7,476v-1.2c-0.6,0.9-1.6,1.4-2.7,1.4c-2.1,0-3.6-1.6-3.6-4.2s1.5-4.2,3.6-4.2c1.1,0,2.1,0.5,2.7,1.4V465
			h1.3v11H280.7z M280.7,473.8v-3.6c-0.5-0.8-1.4-1.3-2.4-1.3c-1.6,0-2.6,1.3-2.6,3.1s1,3.1,2.6,3.1
			C279.2,475.1,280.1,474.6,280.7,473.8L280.7,473.8z"/>
		<path class="st0" d="M283.5,472c-0.1-2.2,1.6-4.1,3.8-4.2c0,0,0.1,0,0.1,0c2.4,0,3.9,1.9,3.9,4.3v0.3h-6.5c0,1.6,1.3,2.8,2.9,2.8
			c0,0,0,0,0,0c0.9,0,1.8-0.4,2.5-1l0.6,0.8c-0.9,0.8-2,1.3-3.2,1.2c-2.2,0-4-1.7-4.1-3.9C283.5,472.2,283.5,472.1,283.5,472z
			 M287.5,468.8c-1.5,0-2.6,1.2-2.6,2.7h5.3c0-1.4-1.1-2.6-2.5-2.7C287.5,468.8,287.5,468.8,287.5,468.8z"/>
		<path class="st0" d="M292.2,475l0.6-0.9c0.7,0.7,1.6,1.1,2.6,1.1c1.2,0,1.9-0.6,1.9-1.4c0-1.9-5-0.8-5-3.7c0-1.2,1.1-2.3,3-2.3
			c1.1-0.1,2.2,0.4,3,1.2l-0.6,0.9c-0.6-0.7-1.5-1-2.4-1c-1.1,0-1.8,0.5-1.8,1.3c0,1.8,5,0.6,5,3.7c0,1.4-1.1,2.4-3.1,2.4
			C294.3,476.3,293.1,475.9,292.2,475z"/>
		<path class="st0" d="M300,466c0-0.5,0.4-0.8,0.8-0.8c0.5,0,0.8,0.4,0.8,0.8c0,0,0,0,0,0c0,0.5-0.4,0.8-0.8,0.8
			C300.4,466.8,300,466.5,300,466z M300.2,476v-8h1.2v8H300.2z"/>
		<path class="st0" d="M303.5,478.1l0.6-0.9c0.6,0.8,1.6,1.2,2.6,1.1c1.3,0.2,2.4-0.7,2.6-2c0-0.1,0-0.3,0-0.4v-1.1
			c-0.6,0.9-1.6,1.4-2.7,1.4c-2.1,0-3.6-1.6-3.6-4.1s1.5-4.2,3.6-4.2c1.1,0,2.1,0.5,2.7,1.4V468h1.2v7.8c0,2.7-1.9,3.5-3.8,3.5
			C305.5,479.4,304.4,478.9,303.5,478.1z M309.3,473.7v-3.5c-0.5-0.8-1.4-1.3-2.4-1.3c-1.6,0-2.6,1.3-2.6,3s1,3,2.6,3
			C307.9,474.9,308.8,474.5,309.3,473.7L309.3,473.7z"/>
		<path class="st0" d="M318,476v-5.2c0-1.4-0.7-1.9-1.8-1.9c-0.9,0-1.8,0.5-2.4,1.2v5.9h-1.2v-8h1.2v1.2c0.7-0.8,1.8-1.3,2.9-1.4
			c1.2-0.2,2.4,0.7,2.6,1.9c0,0.2,0,0.4,0,0.6v5.6H318z"/>
		<path class="st0" d="M320.9,472c-0.1-2.2,1.6-4.1,3.8-4.2c0.1,0,0.1,0,0.2,0c2.4,0,3.9,1.9,3.9,4.3v0.3h-6.5
			c0,1.6,1.3,2.8,2.9,2.8c0,0,0,0,0,0c0.9,0,1.8-0.4,2.5-1l0.6,0.8c-0.9,0.8-2,1.3-3.2,1.2c-2.2,0.1-4.1-1.7-4.1-3.9
			C320.9,472.2,320.9,472.1,320.9,472z M324.9,468.8c-1.5,0-2.6,1.2-2.6,2.7h5.3c0-1.4-1.1-2.6-2.5-2.7
			C324.9,468.8,324.9,468.8,324.9,468.8L324.9,468.8z"/>
		<path class="st0" d="M336.1,476v-1.2c-0.6,0.9-1.6,1.4-2.7,1.4c-2.1,0-3.6-1.6-3.6-4.2s1.5-4.2,3.6-4.2c1.1,0,2.1,0.5,2.7,1.4V465
			h1.2v11H336.1z M336.1,473.8v-3.6c-0.5-0.8-1.4-1.3-2.4-1.3c-1.6,0-2.6,1.3-2.6,3.1s1,3.1,2.6,3.1
			C334.6,475.1,335.5,474.6,336.1,473.8L336.1,473.8z"/>
		<path class="st0" d="M343.3,476v-11h1.2v4.3c0.6-0.9,1.6-1.4,2.7-1.4c2.1,0,3.6,1.6,3.6,4.2s-1.5,4.2-3.6,4.2
			c-1.1,0-2.1-0.5-2.7-1.4v1.1H343.3z M346.9,475.1c1.6,0,2.6-1.3,2.6-3.1s-1-3.1-2.6-3.1c-1,0-1.8,0.5-2.4,1.3v3.6
			C345.1,474.6,346,475.1,346.9,475.1L346.9,475.1z"/>
		<path class="st0" d="M352.1,478c0.2,0.1,0.4,0.1,0.7,0.1c0.6,0,1.1-0.3,1.2-0.9l0.5-1.2l-3.4-8.1h1.3l2.7,6.6l2.7-6.6h1.4l-4,9.6
			c-0.3,1-1.3,1.7-2.4,1.6c-0.3,0-0.6,0-0.9-0.1L352.1,478z"/>
	</g>
</g>
</svg>
