<?xml version="1.0" encoding="utf-8"?>
<!-- Generator: Adobe Illustrator 26.0.1, SVG Export Plug-In . SVG Version: 6.00 Build 0)  -->
<svg version="1.1" id="Layer_1" xmlns="http://www.w3.org/2000/svg" xmlns:xlink="http://www.w3.org/1999/xlink" x="0px" y="0px"
	 viewBox="0 0 539.2 508.4" style="enable-background:new 0 0 539.2 508.4;" xml:space="preserve">
<style type="text/css">
	.st0{fill:none;}
	.st1{fill:url(#SVGID_1_);}
	.st2{clip-path:url(#SVGID_00000086690982626658372620000013059276382593960383_);}
	.st3{opacity:0.5;fill:url(#SVGID_00000060020006691958579450000003283513043966703793_);enable-background:new    ;}
	.st4{fill:url(#SVGID_00000131338388121348783810000016114666969126083460_);}
	.st5{fill:#FFC136;}
	.st6{fill:#B68504;}
	.st7{font-family:'Arial-BoldMT';}
	.st8{font-size:27.74px;}
	.st9{fill:#5D3AF7;}
	.st10{fill:#5F3AF6;}
	.st11{fill:#713AF6;}
	.st12{fill:#1C3599;}
	.st13{fill:url(#SVGID_00000158715630420599741260000011270690858137285013_);}
	.st14{fill:#D5E2F7;}
	.st15{fill:#97A8D6;}
	.st16{fill:url(#SVGID_00000152266411786490177430000011166245097500295859_);}
	.st17{fill:#9DAAD4;}
	.st18{fill:#E5E3E8;}
	.st19{fill:url(#SVGID_00000091700706769920576360000000534125501377018509_);}
	.st20{fill:#FFB60D;}
	.st21{fill:#6339F6;}
	.st22{fill:#4F34EA;}
	.st23{fill:#733AF6;}
	.st24{fill:url(#SVGID_00000167372485422692513180000000540719117736853401_);}
	.st25{fill:#ACBDE2;}
	.st26{fill:#E3E0F3;}
	.st27{fill:#7DE7E8;}
	.st28{fill:#FFFCF5;}
	.st29{fill:url(#SVGID_00000030457703624740683440000006376112965264819623_);}
	.st30{fill:#5E3AF7;}
	.st31{fill:url(#SVGID_00000152956659340032044280000005199255972986985382_);}
	.st32{fill:url(#SVGID_00000145056384845507071030000017808388091264852896_);}
	.st33{fill:url(#SVGID_00000065754166207298573750000012485740880128273292_);}
	.st34{fill:#E4E2E7;}
	.st35{fill:url(#SVGID_00000087391024225765237480000008502286427940402601_);}
	.st36{fill:url(#SVGID_00000112600799758663710660000003985735681735858082_);}
	.st37{fill:url(#SVGID_00000128477383199265703820000000162192845128773051_);}
	.st38{fill:url(#SVGID_00000083791163431606279450000017975664665222424476_);}
	.st39{fill:url(#SVGID_00000054241061918988563370000012749293452673062558_);}
	.st40{fill:url(#SVGID_00000163786208740727898620000000000976755656941955_);}
	.st41{fill:url(#SVGID_00000107558112998029235520000007637917974637851530_);}
	.st42{fill:url(#SVGID_00000159450571338941617430000017669865085903499142_);}
	.st43{fill:url(#SVGID_00000008119090126762024550000003201345165937066941_);}
	.st44{fill:url(#SVGID_00000037656078124791633190000014280293556215657888_);}
	.st45{fill:url(#SVGID_00000179639895471664291530000010343716184674339258_);}
	.st46{fill:url(#SVGID_00000063604879530702328630000016631335428961110964_);}
	.st47{fill:url(#SVGID_00000036941917152978432190000010083749209885908138_);}
	.st48{fill:url(#SVGID_00000093898276047851888320000017840169654984305794_);}
	.st49{fill:url(#SVGID_00000052817419367878131930000010145397291067383992_);}
	.st50{fill:url(#SVGID_00000112628949017442913800000002623654840819965372_);}
	.st51{fill:url(#SVGID_00000112595580930003159700000011796199781934231455_);}
	.st52{fill:url(#SVGID_00000117672281776776494560000016510928102245958076_);}
	.st53{fill:url(#SVGID_00000139266194271340510070000018278295077081288860_);}
	.st54{fill:url(#SVGID_00000051371492474157755570000013692429221474171536_);}
</style>
<g>
	<g id="BACKGROUND">
		<rect x="6.9" class="st0" width="500" height="500"/>
	</g>
	<g id="OBJECTS">
		
			<radialGradient id="SVGID_1_" cx="-2080.3542" cy="1027.6226" r="140.3593" gradientTransform="matrix(0.7705 -0.5721 1.1074 0.4814 764.5726 -1397.6581)" gradientUnits="userSpaceOnUse">
			<stop  offset="0" style="stop-color:#55D1FF"/>
			<stop  offset="0.16" style="stop-color:#54CEFC;stop-opacity:0.99"/>
			<stop  offset="0.29" style="stop-color:#51C6F2;stop-opacity:0.95"/>
			<stop  offset="0.41" style="stop-color:#4BB8E0;stop-opacity:0.88"/>
			<stop  offset="0.52" style="stop-color:#43A5C8;stop-opacity:0.78"/>
			<stop  offset="0.63" style="stop-color:#398CA9;stop-opacity:0.66"/>
			<stop  offset="0.74" style="stop-color:#2C6D82;stop-opacity:0.51"/>
			<stop  offset="0.84" style="stop-color:#1D4854;stop-opacity:0.33"/>
			<stop  offset="0.94" style="stop-color:#0C1F21;stop-opacity:0.13"/>
			<stop  offset="1" style="stop-color:#010400;stop-opacity:0"/>
		</radialGradient>
		<path class="st1" d="M305.6,175.7c98.4-5.3,180.7,36.5,183.8,93.4s-74.3,107.2-172.7,112.5S136,345,132.9,288.2
			S207.2,181,305.6,175.7z"/>
		<g>
			<g>
				<defs>
					<rect id="SVGID_00000002373608563086128910000016078643312728287390_" x="6.9" width="500" height="500"/>
				</defs>
				<clipPath id="SVGID_00000124873000131324258140000015149257351068064176_">
					<use xlink:href="#SVGID_00000002373608563086128910000016078643312728287390_"  style="overflow:visible;"/>
				</clipPath>
				<g style="clip-path:url(#SVGID_00000124873000131324258140000015149257351068064176_);">
					
						<radialGradient id="SVGID_00000175311282064271519800000001616402355770622888_" cx="-2500.7253" cy="1652.429" r="171.29" gradientTransform="matrix(0.87 -0.5 0.87 0.5 959.7218 -1752.0873)" gradientUnits="userSpaceOnUse">
						<stop  offset="0" style="stop-color:#DDDDDD"/>
						<stop  offset="1" style="stop-color:#FFFFFF;stop-opacity:0"/>
					</radialGradient>
					
						<path style="opacity:0.5;fill:url(#SVGID_00000175311282064271519800000001616402355770622888_);enable-background:new    ;" d="
						M-98,324.5l318.5,183.9l318.7-184L220.7,140.6L-98,324.5z M243.8,493.7l-23.3,13.5l-23.3-13.5l23.3-13.5L243.8,493.7z
						 M219.4,479.6L196.1,493l-23.3-13.5l23.3-13.5L219.4,479.6z M194.9,465.5L171.7,479l-23.3-13.5l23.3-13.5L194.9,465.5z
						 M170.5,451.4l-23.3,13.5l-23.3-13.5l23.3-13.5L170.5,451.4z M146.1,437.3l-23.3,13.5l-23.3-13.5l23.3-13.5L146.1,437.3z
						 M121.7,423.2l-23.3,13.5l-23.3-13.5l23.3-13.5L121.7,423.2z M97.3,409.1L74,422.6l-23.3-13.5L74,395.6L97.3,409.1z M72.9,395
						l-23.4,13.5L26.3,395l23.3-13.5L72.9,395z M48.5,380.9l-23.4,13.5L1.8,380.9l23.3-13.5L48.5,380.9z M24.1,366.8L0.8,380.3
						l-23.3-13.5l23.3-13.5L24.1,366.8z M-0.3,352.7l-23.3,13.5L-47,352.7l23.3-13.5L-0.3,352.7z M-24.8,338.6l-23.3,13.5
						l-23.3-13.5l23.3-13.5L-24.8,338.6z M-49.2,324.5L-72.5,338l-23.3-13.5l23.3-13.5L-49.2,324.5z M268.2,479.5L244.9,493
						l-23.3-13.5l23.3-13.4L268.2,479.5z M243.8,465.4l-23.3,13.5l-23.3-13.5l23.3-13.4L243.8,465.4z M219.4,451.3l-23.3,13.5
						l-23.3-13.5l23.3-13.5L219.4,451.3z M194.9,437.3l-23.3,13.5l-23.3-13.5l23.3-13.5L194.9,437.3z M170.6,423.2l-23.3,13.5
						L124,423.2l23.3-13.5L170.6,423.2z M146.2,409.1l-23.3,13.5l-23.3-13.5l23.3-13.5L146.2,409.1z M121.7,395l-23.3,13.5L75.1,395
						l23.3-13.5L121.7,395z M97.3,380.9L74,394.4l-23.3-13.5L74,367.4L97.3,380.9z M72.9,366.8l-23.3,13.5l-23.3-13.5l23.3-13.5
						L72.9,366.8z M48.5,352.7l-23.3,13.5L2,352.8l23.3-13.5L48.5,352.7z M24.1,338.6L0.8,352.1l-23.3-13.5l23.3-13.5L24.1,338.6z
						 M-0.3,324.5L-23.6,338l-23.3-13.5l23.3-13.5L-0.3,324.5z M-24.7,310.4L-48,323.9l-23.3-13.5l23.2-13.4L-24.7,310.4z
						 M292.6,465.4l-23.3,13.5L246,465.4l23.3-13.4L292.6,465.4z M268.2,451.4l-23.3,13.5l-23.3-13.5l23.3-13.5L268.2,451.4z
						 M243.8,437.3l-23.3,13.5l-23.3-13.5l23.3-13.5L243.8,437.3z M219.4,423.2l-23.3,13.5l-23.3-13.5l23.3-13.5L219.4,423.2z
						 M195,409.1l-23.3,13.5l-23.3-13.5l23.3-13.5L195,409.1z M170.6,395l-23.3,13.5L123.9,395l23.3-13.5L170.6,395z M146.2,380.9
						l-23.3,13.5L99.6,381l23.3-13.5L146.2,380.9z M121.8,366.8l-23.3,13.5l-23.3-13.4l23.3-13.5L121.8,366.8z M97.3,352.7L74,366.2
						l-23.3-13.5L74,339.2L97.3,352.7z M72.9,338.6l-23.3,13.5l-23.3-13.4l23.3-13.5L72.9,338.6z M48.5,324.5L25.2,338L1.9,324.5
						L25.2,311L48.5,324.5z M24.1,310.4L0.8,323.9l-23.3-13.5L0.8,297L24.1,310.4z M-0.3,296.3l-23.3,13.5l-23.3-13.5l23.3-13.5
						L-0.3,296.3z M317.1,451.3l-23.3,13.5l-23.3-13.5l23.3-13.5L317.1,451.3z M292.7,437.2l-23.3,13.5L246,437.2l23.3-13.5
						L292.7,437.2z M268.2,423.1l-23.3,13.5l-23.3-13.5l23.3-13.5L268.2,423.1z M243.8,409l-23.3,13.5L197.2,409l23.3-13.5
						L243.8,409z M219.4,395l-23.3,13.5L172.8,395l23.3-13.5L219.4,395z M195,380.9l-23.3,13.5l-23.3-13.5l23.3-13.5L195,380.9z
						 M170.6,366.8l-23.3,13.5L124,366.9l23.3-13.5L170.6,366.8z M146.2,352.7l-23.3,13.5l-23.3-13.5l23.4-13.5L146.2,352.7z
						 M121.8,338.6l-23.3,13.5l-23.3-13.5l23.3-13.5L121.8,338.6z M97.4,324.5L74.1,338l-23.3-13.5L74.1,311L97.4,324.5z
						 M72.9,310.4l-23.3,13.5l-23.3-13.5L49.6,297L72.9,310.4z M48.5,296.3l-23.3,13.5L1.9,296.3l23.3-13.5L48.5,296.3z M24.1,282.2
						L0.8,295.7l-23.3-13.5l23.3-13.5L24.1,282.2z M341.5,437.2l-23.3,13.5L295,437.3l23.3-13.5L341.5,437.2z M317.1,423.1
						l-23.3,13.5l-23.3-13.5l23.3-13.5L317.1,423.1z M292.7,409l-23.3,13.5L246.1,409l23.3-13.5L292.7,409z M268.3,395L245,408.4
						L221.7,395l23.3-13.5L268.3,395z M243.9,380.9l-23.3,13.5l-23.3-13.5l23.3-13.5L243.9,380.9z M219.4,366.8l-23.3,13.5
						l-23.3-13.5l23.3-13.5L219.4,366.8z M195,352.7l-23.3,13.5l-23.3-13.5l23.3-13.5L195,352.7z M170.6,338.6l-23.3,13.5L124,338.6
						l23.3-13.5L170.6,338.6z M146.2,324.5L122.9,338l-23.4-13.5l23.4-13.5L146.2,324.5z M121.8,310.4l-23.3,13.5l-23.3-13.5
						L98.5,297L121.8,310.4z M97.4,296.3l-23.3,13.5l-23.3-13.5l23.3-13.5L97.4,296.3z M72.9,282.2l-23.3,13.5l-23.3-13.5l23.3-13.5
						L72.9,282.2z M48.6,268.1l-23.3,13.5L2,268.2l23.3-13.5L48.6,268.1z M365.9,423.2l-23.3,13.5l-23.3-13.5l23.3-13.5L365.9,423.2
						z M341.5,409.1l-23.3,13.5l-23.3-13.5l23.3-13.5L341.5,409.1z M317.1,395l-23.3,13.5L270.5,395l23.3-13.5L317.1,395z
						 M292.7,380.9l-23.3,13.5l-23.3-13.5l23.3-13.5L292.7,380.9z M268.3,366.8L245,380.2l-23.3-13.5l23.3-13.5L268.3,366.8z
						 M243.9,352.7l-23.3,13.5l-23.3-13.5l23.3-13.5L243.9,352.7z M219.5,338.6L196.1,352l-23.3-13.4l23.3-13.5L219.5,338.6z
						 M195,324.5L171.7,338l-23.3-13.5l23.3-13.5L195,324.5z M170.6,310.4l-23.3,13.5L124,310.4l23.3-13.4L170.6,310.4z
						 M146.2,296.3l-23.3,13.5l-23.3-13.5l23.3-13.5L146.2,296.3z M121.8,282.2l-23.3,13.5l-23.3-13.5l23.3-13.5L121.8,282.2z
						 M97.4,268.1l-23.3,13.5l-23.3-13.4l23.3-13.5L97.4,268.1z M72.9,254l-23.3,13.5L26.4,254l23.3-13.5L72.9,254z M390.3,409
						L367,422.5L343.7,409l23.3-13.5L390.3,409z M365.9,395l-23.3,13.5L319.3,395l23.3-13.5L365.9,395z M341.5,380.9l-23.3,13.5
						L294.9,381l23.3-13.5L341.5,380.9z M317.1,366.8l-23.3,13.5l-23.3-13.5l23.3-13.5L317.1,366.8z M292.7,352.7l-23.3,13.5
						l-23.3-13.5l23.3-13.5L292.7,352.7z M268.3,338.6L244.9,352l-23.3-13.5l23.3-13.5L268.3,338.6z M243.9,324.5L220.6,338
						l-23.3-13.5l23.3-13.5L243.9,324.5z M219.5,310.4l-23.3,13.5l-23.3-13.5l23.3-13.5L219.5,310.4z M195.1,296.3l-23.3,13.5
						l-23.3-13.5l23.3-13.5L195.1,296.3z M170.6,282.2l-23.3,13.5L124,282.2l23.3-13.5L170.6,282.2z M146.2,268.1l-23.3,13.5
						l-23.3-13.5l23.3-13.5L146.2,268.1z M121.8,254l-23.3,13.5L75.2,254l23.3-13.5L121.8,254z M97.4,239.9l-23.3,13.5L50.8,240
						l23.3-13.5L97.4,239.9z M414.8,395l-23.3,13.5L368.2,395l23.3-13.5L414.8,395z M390.4,380.9l-23.3,13.5l-23.3-13.5l23.3-13.5
						L390.4,380.9z M365.9,366.8l-23.3,13.5l-23.3-13.5l23.3-13.5L365.9,366.8z M341.5,352.7l-23.3,13.5l-23.3-13.5l23.3-13.5
						L341.5,352.7z M317.1,338.6L293.8,352l-23.3-13.5l23.3-13.5L317.1,338.6z M292.7,324.5L269.4,338l-23.3-13.5l23.4-13.5
						L292.7,324.5z M268.3,310.4L245,323.8l-23.3-13.5l23.3-13.5L268.3,310.4z M243.9,296.3l-23.3,13.5l-23.4-13.5l23.3-13.5
						L243.9,296.3z M219.5,282.2l-23.3,13.5l-23.3-13.5l23.3-13.5L219.5,282.2z M195.1,268.1l-23.3,13.5l-23.3-13.5l23.3-13.5
						L195.1,268.1z M170.7,254l-23.3,13.5L124,254l23.3-13.5L170.7,254z M146.2,239.9l-23.3,13.5L99.6,240l23.3-13.5L146.2,239.9z
						 M121.8,225.8l-23.3,13.5l-23.3-13.5l23.3-13.5L121.8,225.8z M439.2,380.8l-23.3,13.5l-23.3-13.5l23.3-13.5L439.2,380.8z
						 M414.8,366.7l-23.3,13.5l-23.3-13.5l23.3-13.5L414.8,366.7z M390.4,352.6l-23.3,13.5l-23.3-13.5l23.3-13.5L390.4,352.6z
						 M365.9,338.6L342.7,352l-23.3-13.5l23.3-13.5L365.9,338.6z M341.5,324.5L318.2,338l-23.3-13.4l23.3-13.5L341.5,324.5z
						 M317.1,310.4l-23.3,13.5l-23.3-13.5l23.3-13.5L317.1,310.4z M292.7,296.3l-23.3,13.5l-23.3-13.5l23.3-13.5L292.7,296.3z
						 M268.3,282.2L245,295.6l-23.3-13.5l23.3-13.5L268.3,282.2z M243.9,268.1l-23.3,13.5l-23.3-13.5l23.3-13.5L243.9,268.1z
						 M219.5,254l-23.3,13.5L172.9,254l23.3-13.5L219.5,254z M195.1,239.9l-23.3,13.5L148.5,240l23.3-13.5L195.1,239.9z
						 M170.7,225.8l-23.3,13.5l-23.3-13.5l23.3-13.5L170.7,225.8z M146.3,211.7L123,225.2l-23.3-13.4l23.3-13.5L146.3,211.7z
						 M463.7,366.7l-23.3,13.5L417,366.7l23.3-13.5L463.7,366.7z M439.2,352.6l-23.3,13.5l-23.3-13.5l23.3-13.5L439.2,352.6z
						 M414.8,338.5L391.5,352l-23.3-13.5l23.3-13.5L414.8,338.5z M390.4,324.4l-23.3,13.5l-23.3-13.5l23.3-13.4L390.4,324.4z
						 M366,310.3l-23.3,13.5l-23.3-13.5l23.3-13.5L366,310.3z M341.6,296.2l-23.3,13.5L295,296.3l23.3-13.5L341.6,296.2z
						 M317.2,282.1l-23.3,13.5l-23.3-13.5l23.3-13.5L317.2,282.1z M292.8,268l-23.3,13.5L246.2,268l23.3-13.5L292.8,268z M268.4,254
						L245,267.5L221.7,254l23.3-13.5L268.4,254z M243.9,239.9l-23.3,13.5l-23.3-13.5l23.3-13.5L243.9,239.9z M219.5,225.8
						l-23.3,13.5l-23.3-13.5l23.3-13.5L219.5,225.8z M195.1,211.7l-23.3,13.5l-23.3-13.4l23.3-13.5L195.1,211.7z M170.7,197.6
						l-23.3,13.5l-23.3-13.4l23.3-13.5L170.7,197.6z M488.1,352.6l-23.3,13.5l-23.3-13.5l23.3-13.5L488.1,352.6z M463.7,338.5
						L440.3,352L417,338.5l23.3-13.5L463.7,338.5z M439.2,324.4l-23.3,13.5l-23.3-13.5l23.3-13.5L439.2,324.4z M414.8,310.4
						l-23.3,13.5l-23.3-13.5l23.3-13.5L414.8,310.4z M390.4,296.3l-23.3,13.5l-23.3-13.5l23.3-13.5L390.4,296.3z M366,282.2
						l-23.3,13.5l-23.3-13.5l23.3-13.5L366,282.2z M341.6,268.1l-23.3,13.5L295,268.2l23.3-13.5L341.6,268.1z M317.2,254l-23.3,13.5
						L270.6,254l23.4-13.5L317.2,254z M292.8,239.9l-23.3,13.5L246.2,240l23.3-13.5L292.8,239.9z M268.4,225.8L245,239.2l-23.3-13.4
						l23.3-13.5L268.4,225.8z M243.9,211.7l-23.3,13.5l-23.3-13.5l23.3-13.5L243.9,211.7z M219.5,197.6l-23.3,13.5l-23.3-13.5
						l23.3-13.5L219.5,197.6z M195.1,183.5L171.8,197l-23.3-13.5l23.3-13.5L195.1,183.5z M512.5,338.5L489.2,352L466,338.5
						l23.3-13.5L512.5,338.5z M488.1,324.4l-23.3,13.5l-23.3-13.5l23.3-13.4L488.1,324.4z M463.7,310.3l-23.3,13.5l-23.3-13.5
						l23.3-13.5L463.7,310.3z M439.3,296.2L416,309.7l-23.3-13.5l23.3-13.5L439.3,296.2z M414.9,282.1l-23.3,13.5l-23.3-13.5
						l23.3-13.5L414.9,282.1z M390.4,268l-23.3,13.5L343.8,268l23.3-13.5L390.4,268z M366,254l-23.3,13.5L319.4,254l23.3-13.5
						L366,254z M341.6,239.9l-23.3,13.5L295,239.9l23.3-13.5L341.6,239.9z M317.2,225.8l-23.3,13.4l-23.3-13.4l23.3-13.5
						L317.2,225.8z M292.8,211.7l-23.3,13.5l-23.3-13.5l23.3-13.5L292.8,211.7z M268.4,197.6l-23.3,13.5l-23.3-13.4l23.3-13.5
						L268.4,197.6z M243.9,183.5L220.7,197l-23.3-13.5l23.3-13.5L243.9,183.5z M219.5,169.4l-23.3,13.5l-23.3-13.4l23.3-13.4
						L219.5,169.4z M536.9,324.4l-23.3,13.5l-23.3-13.5l23.3-13.4L536.9,324.4z M512.5,310.3l-23.3,13.5l-23.3-13.4l23.3-13.5
						L512.5,310.3z M488.1,296.2l-23.3,13.5l-23.3-13.5l23.3-13.5L488.1,296.2z M463.7,282.1l-23.3,13.5l-23.3-13.5l23.3-13.5
						L463.7,282.1z M439.3,268L416,281.5L392.7,268l23.3-13.5L439.3,268z M414.9,254l-23.3,13.5L368.2,254l23.3-13.5L414.9,254z
						 M390.5,239.9l-23.3,13.4l-23.3-13.5l23.3-13.5L390.5,239.9z M366,225.8l-23.3,13.5l-23.3-13.4l23.3-13.5L366,225.8z
						 M341.6,211.7l-23.3,13.5L295,211.7l23.3-13.5L341.6,211.7z M317.2,197.6L293.9,211l-23.3-13.4l23.3-13.4L317.2,197.6z
						 M292.8,183.5L269.5,197l-23.3-13.5l23.3-13.5L292.8,183.5z M268.4,169.4l-23.3,13.5l-23.3-13.5l23.3-13.5L268.4,169.4z
						 M243.9,155.3l-23.3,13.5l-23.3-13.5l23.3-13.5L243.9,155.3z"/>
				</g>
			</g>
		</g>
		
			<linearGradient id="SVGID_00000163032905531085696260000012359164523145044135_" gradientUnits="userSpaceOnUse" x1="309.55" y1="-391.4057" x2="309.55" y2="-269.4857" gradientTransform="matrix(1 0 0 1 0 410.6456)">
			<stop  offset="5.000000e-02" style="stop-color:#FFC136"/>
			<stop  offset="1" style="stop-color:#B68504"/>
		</linearGradient>
		<polygon style="fill:url(#SVGID_00000163032905531085696260000012359164523145044135_);" points="309.5,16.5 299.5,24.2 
			302.8,26.1 302.8,138.4 316.3,146.2 316.3,33.9 319.6,35.9 		"/>
		<polygon class="st5" points="239.3,190.6 225.9,182.8 302.8,138.4 316.3,146.2 		"/>
		<path class="st5" d="M340.2,86.8v40.9l-24-13.9V45.3l0,0C331.1,53.9,340.2,69.7,340.2,86.8z"/>
		<text transform="matrix(0.87 0.5 0 1 320.8194 97.1395)" class="st6 st7 st8">1</text>
		<polygon class="st9" points="364.9,68.9 354.8,76.6 358.1,78.5 358.1,190.8 371.6,198.5 371.6,86.3 375,88.2 		"/>
		<polygon class="st10" points="294.6,243 281.2,235.2 358.2,190.8 371.6,198.5 		"/>
		<path class="st11" d="M395.6,142.7v40.9l-24-13.9V101l0,0C386.5,109.7,395.6,125.5,395.6,142.7z"/>
		<text transform="matrix(0.87 0.5 0 1 374.1593 150.4797)" class="st12 st7 st8">2</text>
		
			<linearGradient id="SVGID_00000005229867633248921220000008209381929876042146_" gradientUnits="userSpaceOnUse" x1="420.8" y1="-276.0857" x2="420.8" y2="-152.5457" gradientTransform="matrix(1 0 0 1 0 410.6456)">
			<stop  offset="0" style="stop-color:#D5E2F7"/>
			<stop  offset="1" style="stop-color:#ACBDE2"/>
		</linearGradient>
		<polygon style="fill:url(#SVGID_00000005229867633248921220000008209381929876042146_);" points="420.8,132.5 410.7,140.2 
			414,142.2 414,254.4 427.5,262.2 427.5,149.9 430.9,151.9 		"/>
		<polygon class="st14" points="350.5,306.6 337.1,298.9 414.1,254.4 427.5,262.2 		"/>
		<path class="st14" d="M451.5,205.6v40.9l-24-13.9V164l0,0C442.4,172.6,451.6,188.4,451.5,205.6z"/>
		<text transform="matrix(0.87 0.5 0 1 430.9395 212.6095)" class="st15 st7 st8">3</text>
		
			<linearGradient id="SVGID_00000123436464933208374980000014548513047026649735_" gradientUnits="userSpaceOnUse" x1="278.1844" y1="-176.2059" x2="687.9744" y2="115.1341" gradientTransform="matrix(1 0 0 1 0 410.6456)">
			<stop  offset="0" style="stop-color:#FFFFFF"/>
			<stop  offset="1" style="stop-color:#3074E1"/>
		</linearGradient>
		<polygon style="fill:url(#SVGID_00000123436464933208374980000014548513047026649735_);" points="435.8,289 365.1,329.9 
			185.3,225.9 256,185.1 		"/>
		<polygon class="st17" points="435.8,289 435.8,318.4 365.1,359.2 365.1,329.9 		"/>
		<polygon class="st18" points="185.3,225.9 185.3,255.3 365.1,359.2 365.1,329.9 		"/>
		<path class="st5" d="M289,105.7l-31,17.9c-2.3,1.3-6.2,1.1-8.9-0.4L219.4,106c-2.6-1.5-2.9-3.8-0.6-5.1l31-17.9
			c2.3-1.3,6.2-1.1,8.9,0.4l29.8,17.2C291,102.1,291.3,104.4,289,105.7z"/>
		
			<linearGradient id="SVGID_00000015326576887602906000000014288182482912554127_" gradientUnits="userSpaceOnUse" x1="167.2654" y1="-299.6657" x2="167.2654" y2="-164.7357" gradientTransform="matrix(1 0 0 1 104.94 410.6456)">
			<stop  offset="0" style="stop-color:#B68504"/>
			<stop  offset="1" style="stop-color:#7E3D00"/>
		</linearGradient>
		<path style="fill:url(#SVGID_00000015326576887602906000000014288182482912554127_);" d="M290.5,228.7V103.9l0,0
			c-0.2,0.8-0.8,1.5-1.5,1.8l-31,17.9c-1.3,0.7-2.7,1-4.1,0.9v125.6c1.4,0.1,2.8-0.2,4.1-0.9l31-17.9
			C290,230.9,290.6,229.8,290.5,228.7z"/>
		<path class="st20" d="M249.1,123.2L219.4,106c-1-0.5-1.8-1.4-2.1-2.5v124.9c-0.2,1.1,0.5,2.4,2.1,3.3l29.8,17.2
			c1.5,0.8,3.1,1.2,4.8,1.2V124.4C252.2,124.4,250.6,124,249.1,123.2z"/>
		<path class="st21" d="M343.7,182.4l-31,17.9c-2.3,1.3-6.2,1.1-8.9-0.4L274,182.7c-2.6-1.5-2.9-3.8-0.6-5.1l31-17.9
			c2.3-1.3,6.2-1.1,8.9,0.4l29.8,17.2C345.7,178.8,346,181.1,343.7,182.4z"/>
		<path class="st22" d="M345.2,260.5v-79.8l0,0c-0.2,0.8-0.8,1.5-1.5,1.8l-31,17.9c-1.3,0.7-2.7,1-4.1,0.9v80.6
			c1.4,0.1,2.8-0.2,4.1-0.9l31-17.9C344.8,262.6,345.4,261.6,345.2,260.5z"/>
		<path class="st23" d="M303.9,200l-29.8-17.2c-1-0.5-1.8-1.4-2.1-2.5v79.8c-0.2,1.1,0.5,2.4,2.1,3.3l29.8,17.2
			c1.5,0.8,3.1,1.2,4.8,1.2v-80.6C306.9,201.2,305.3,200.8,303.9,200z"/>
		<path class="st14" d="M399.6,235.8l-31,17.9c-2.3,1.3-6.2,1.1-8.9-0.4l-29.8-17.2c-2.6-1.5-2.9-3.8-0.6-5.1l31-17.9
			c2.3-1.3,6.2-1.1,8.9,0.4l29.8,17.2C401.6,232.2,401.9,234.5,399.6,235.8z"/>
		
			<linearGradient id="SVGID_00000101083097978229112620000013358078056038670978_" gradientUnits="userSpaceOnUse" x1="277.8654" y1="-166.8657" x2="277.8654" y2="-53.8757" gradientTransform="matrix(1 0 0 1 104.94 410.6456)">
			<stop  offset="0" style="stop-color:#ACBDE2"/>
			<stop  offset="0.92" style="stop-color:#3F4893"/>
		</linearGradient>
		<path style="fill:url(#SVGID_00000101083097978229112620000013358078056038670978_);" d="M401.1,292.3V234l0,0
			c-0.2,0.8-0.8,1.5-1.5,1.8l-31,17.9c-1.3,0.7-2.7,1-4.1,0.9v59c1.4,0.1,2.8-0.2,4.1-0.9l31-17.9
			C400.6,294.4,401.2,293.4,401.1,292.3z"/>
		<path class="st25" d="M359.7,253.4l-29.8-17.2c-1-0.5-1.8-1.4-2.1-2.5v58.2c-0.2,1.1,0.5,2.4,2.1,3.3l29.8,17.2
			c1.5,0.8,3.1,1.2,4.8,1.2v-59C362.8,254.6,361.2,254.2,359.7,253.4z"/>
		<path class="st26" d="M188,307.6c-0.7,0-1.4-0.2-2-0.6l-85.3-48.1c-7.2-4.1-9.7-13.2-5.6-20.4c1.3-2.3,3.2-4.3,5.6-5.6l69-39.5
			c4.6-2.6,10.2-2.6,14.9,0l27.8,15.8c2.1,1.1,2.9,3.7,1.8,5.7s-3.7,2.9-5.7,1.8c-0.1-0.1-0.2-0.1-0.3-0.2l-27.8-15.8
			c-2-1.1-4.4-1.1-6.4,0l-69,39.5c-3.1,1.8-4.2,5.7-2.4,8.8c0.6,1,1.4,1.9,2.4,2.4l85.3,48.1c2.1,1.1,2.8,3.7,1.7,5.8
			C191,306.8,189.6,307.6,188,307.6L188,307.6z"/>
		<path class="st27" d="M188.8,301.9l-85.3-48.1c-4.4-2.5-5.9-8-3.4-12.4c0.8-1.4,2-2.6,3.4-3.4l69-39.5c2.8-1.6,6.2-1.6,9,0
			l25.9,14.7l3.2-1.9l-27.5-15.6c-3.8-2.2-8.4-2.2-12.2,0l-69,39.5c-5.9,3.4-8,10.9-4.6,16.8c1.1,1.9,2.7,3.5,4.6,4.6l85.3,48.1
			c0.7,0.5,1.7,0.3,2.2-0.5s0.3-1.7-0.5-2.2C188.9,302,188.9,302,188.8,301.9L188.8,301.9z"/>
		<ellipse class="st28" cx="135" cy="268" rx="19.3" ry="11.1"/>
		<path class="st17" d="M148.6,275.9c-4.3,2.3-9.1,3.4-13.9,3.3c-4.7,0.1-9.3-1.1-13.4-3.3c-3.8-2.2-5.6-5-5.6-7.8l0,0v8.3
			c0,2.9,1.9,5.7,5.6,7.9c4.1,2.2,8.7,3.3,13.4,3.3c4.8,0.1,9.6-1,13.9-3.3c3.8-2.2,5.7-5.1,5.6-7.9v-8.3l0,0
			C154.3,270.9,152.4,273.8,148.6,275.9z"/>
		
			<linearGradient id="SVGID_00000006690224107392749790000000749192788896281786_" gradientUnits="userSpaceOnUse" x1="117.3293" y1="-94.5216" x2="362.9593" y2="48.2383" gradientTransform="matrix(1 0 0 1 104.94 410.6456)">
			<stop  offset="0" style="stop-color:#FFFFFF"/>
			<stop  offset="1" style="stop-color:#3074E1"/>
		</linearGradient>
		<path style="fill:url(#SVGID_00000006690224107392749790000000749192788896281786_);" d="M241.6,342.4l-52.9-30.5
			c-6.3-3.6-5.5-9.9,1.8-14.1l0,0c7.2-4.2,18.1-4.6,24.4-1l52.9,30.5c6.3,3.6,5.5,9.9-1.8,14.1l0,0
			C258.8,345.6,247.9,346,241.6,342.4z"/>
		<path class="st18" d="M266,341.4c-7.2,4.2-18.1,4.6-24.4,1l-52.9-30.5c-2.7-1.6-4.1-3.6-4.2-5.8l0,0v15.6v0.1
			c0.1,2.2,1.4,4.4,4.2,6l52.9,30.5c6.3,3.6,17.2,3.2,24.4-1c4.1-2.4,6.1-5.4,6-8.2v-15.8C272,336.1,270,339.1,266,341.4z"/>
		<path class="st17" d="M218.5,313.9c-3.1,1.6-6.7,1.6-9.8,0c-2.7-1.6-2.7-4.1,0-5.7c3.1-1.6,6.7-1.6,9.8,0
			C221.2,309.8,221.2,312.3,218.5,313.9z"/>
		<path class="st17" d="M233.8,322.7c-3.1,1.6-6.7,1.6-9.8,0c-2.7-1.6-2.7-4.1,0-5.7c3.1-1.6,6.7-1.6,9.8,0
			C236.5,318.6,236.5,321.2,233.8,322.7z"/>
		<path class="st17" d="M249.1,331.6c-3.1,1.6-6.7,1.6-9.8,0c-2.7-1.6-2.7-4.1,0-5.7c3.1-1.6,6.7-1.6,9.8,0
			C251.8,327.5,251.8,330,249.1,331.6z"/>
		<path class="st5" d="M218.2,312.8c-3.1,1.6-6.7,1.6-9.8,0c-2.7-1.6-2.7-4.1,0-5.7c3.1-1.6,6.7-1.6,9.8,0
			C220.9,308.6,220.9,311.2,218.2,312.8z"/>
		<path class="st30" d="M233.5,321.6c-3.1,1.6-6.7,1.6-9.8,0c-2.7-1.6-2.7-4.1,0-5.7c3.1-1.6,6.7-1.6,9.8,0
			C236.2,317.5,236.2,320,233.5,321.6z"/>
		<path class="st14" d="M248.8,330.5c-3.1,1.6-6.7,1.6-9.8,0c-2.7-1.6-2.7-4.1,0-5.7c3.1-1.6,6.7-1.6,9.8,0
			C251.5,326.4,251.5,328.9,248.8,330.5z"/>
		<path class="st26" d="M372.8,413.9c-2.6,0-5.3-0.7-7.5-2l-100.9-59c-2-1.2-2.7-3.8-1.5-5.8s3.8-2.7,5.8-1.5l100.9,59
			c2,1.2,4.5,1.2,6.5,0l68.5-39.5c3.1-1.8,4.2-5.7,2.4-8.8c-0.6-1-1.4-1.8-2.4-2.4l-40.9-23.8c-2-1.3-2.6-3.9-1.3-5.9
			c1.2-1.9,3.6-2.5,5.6-1.5l40.9,23.8c7.2,4.1,9.6,13.3,5.5,20.5c-1.3,2.3-3.2,4.2-5.5,5.5L380.3,412
			C378,413.3,375.4,414,372.8,413.9z"/>
		<path class="st27" d="M372.8,411.3c-2.2,0-4.3-0.6-6.2-1.7l-100.9-59c-0.7-0.5-0.9-1.5-0.5-2.2s1.3-0.9,2.1-0.5l100.9,59
			c2.8,1.6,6.3,1.6,9.1,0l68.6-39.4c4.4-2.5,5.9-8.1,3.4-12.5c-0.8-1.4-2-2.6-3.4-3.4l-41-23.8c-0.7-0.5-0.9-1.5-0.4-2.2
			c0.4-0.6,1.3-0.9,2-0.5l40.9,23.8c5.9,3.4,7.9,10.9,4.5,16.8c-1.1,1.9-2.7,3.5-4.5,4.5l-68.5,39.5
			C377.1,410.7,375,411.3,372.8,411.3z"/>
		<ellipse class="st28" cx="330.6" cy="383.1" rx="19.3" ry="11.1"/>
		<path class="st17" d="M344.2,391c-4.3,2.3-9.1,3.4-13.9,3.3c-4.6,0.1-9.2-1.1-13.3-3.3c-3.8-2.2-5.6-5-5.6-7.8l0,0v8.3
			c0,2.9,1.9,5.7,5.6,7.9c8.6,4.3,18.7,4.3,27.3,0c3.8-2.2,5.7-5,5.6-7.9v-8.3l0,0C349.8,386,347.9,388.8,344.2,391z"/>
		<g>
			<path class="st26" d="M92.1,389c-2.3,0.1-4.3-1.8-4.4-4.1c-0.1-1.6,0.8-3.1,2.3-3.9l102.9-59.4c2-1.3,4.6-0.7,5.9,1.3
				s0.7,4.6-1.3,5.9c-0.1,0.1-0.2,0.1-0.3,0.2L94.3,388.4C93.6,388.8,92.8,389,92.1,389z"/>
			<path class="st26" d="M135.6,414.1c-2.3,0-4.3-1.9-4.3-4.2c0-1.5,0.8-3,2.1-3.7l102.9-59.4c2-1.3,4.6-0.7,5.9,1.3
				s0.7,4.6-1.3,5.9c-0.1,0.1-0.2,0.1-0.3,0.2l-102.9,59.4C137.1,413.9,136.3,414.1,135.6,414.1z"/>
		</g>
		<path class="st27" d="M92.1,386.3c-0.6,0-1.1-0.3-1.4-0.8c-0.4-0.8-0.2-1.7,0.6-2.2l0,0l102.9-59.4c0.8-0.4,1.7-0.1,2.2,0.6
			c0.4,0.7,0.2,1.7-0.6,2.1L92.9,386C92.6,386.2,92.4,386.3,92.1,386.3z"/>
		<path class="st27" d="M135.6,411.4c-0.9,0-1.6-0.7-1.6-1.6c0-0.6,0.3-1.1,0.8-1.4L237.7,349c0.8-0.4,1.7-0.1,2.2,0.6
			c0.4,0.7,0.2,1.7-0.6,2.1l-102.9,59.4C136.1,411.3,135.9,411.4,135.6,411.4z"/>
		
			<linearGradient id="SVGID_00000039843443702521706500000002125702415200695973_" gradientUnits="userSpaceOnUse" x1="50.5923" y1="0.8573" x2="202.5924" y2="-56.1427" gradientTransform="matrix(1 0 0 1 0 410.6456)">
			<stop  offset="0.11" style="stop-color:#5E3AF7"/>
			<stop  offset="1" style="stop-color:#FBF9FF"/>
		</linearGradient>
		
			<ellipse style="fill:url(#SVGID_00000039843443702521706500000002125702415200695973_);" cx="117.8" cy="386.3" rx="71.3" ry="41.2"/>
		
			<linearGradient id="SVGID_00000095311410108272975380000004242303011584528784_" gradientUnits="userSpaceOnUse" x1="89.551" y1="-28.792" x2="-59.109" y2="-52.7919" gradientTransform="matrix(1 0 0 1 104.94 410.6456)">
			<stop  offset="0" style="stop-color:#4CFFD5"/>
			<stop  offset="0.61" style="stop-color:#B9FFEE"/>
			<stop  offset="1" style="stop-color:#FFFFFF"/>
		</linearGradient>
		<path style="fill:url(#SVGID_00000095311410108272975380000004242303011584528784_);" d="M65.7,359.2c27.9-16.1,73-16.1,100.9,0
			c21.7,12.5,26.5,31.2,14.3,46.4c14.2-15.6,10-35.3-12.6-48.4c-27.9-16.1-73-16.1-100.9,0c-5.5,3-10.3,7.1-14.3,11.9
			C56.7,365.2,61,361.8,65.7,359.2z"/>
		
			<linearGradient id="SVGID_00000096781715920089651790000002617024755195350701_" gradientUnits="userSpaceOnUse" x1="-58.571" y1="14.2482" x2="102.029" y2="4.2382" gradientTransform="matrix(1 0 0 1 104.94 410.6456)">
			<stop  offset="0" style="stop-color:#412AB7"/>
			<stop  offset="0.24" style="stop-color:#5C3AF7"/>
			<stop  offset="0.48" style="stop-color:#633AF7"/>
			<stop  offset="0.58" style="stop-color:#683AF7"/>
			<stop  offset="1" style="stop-color:#773AF6"/>
		</linearGradient>
		<path style="fill:url(#SVGID_00000096781715920089651790000002617024755195350701_);" d="M168.3,415.5
			c-14.2,8.2-32.9,12.2-51.5,12c-17.9-0.1-35.8-4.1-49.4-12c-13.9-8-20.8-18.5-20.9-29l0,0v30.8c-0.1,10.6,6.9,21.2,20.9,29.3
			c13.7,7.9,31.5,11.9,49.4,12c18.6,0.1,37.3-3.9,51.5-12c14-8.1,21-18.7,20.9-29.3v-30.8l0,0C189.1,397,182.2,407.5,168.3,415.5z"
			/>
		<ellipse class="st12" cx="117.8" cy="386.3" rx="52.9" ry="30.5"/>
		<path class="st34" d="M155.3,368.3c-20.7-11.9-54.2-11.9-74.8,0c-9.6,5.5-14.7,12.6-15.4,19.8c0.7,7.2,5.8,14.3,15.4,19.8
			c20.7,11.9,54.2,11.9,74.8,0c9.5-5.5,14.7-12.6,15.4-19.8C169.9,380.9,164.8,373.8,155.3,368.3z"/>
		<path class="st6" d="M90.8,387.1c0,0.3,0,0.5,0,0.8c0.1,1.1,0.5,2.1,1.1,3c0.8,1,1.8,1.9,3,2.5c3,1.8,6.5,2.7,10,2.8
			c1.8,0,3.6-0.1,5.4-0.5l-0.5,0.3c-0.3,0.1-0.4,0.4-0.4,0.6v5.9c0,0.3,0.2,0.6,0.5,0.7c1.3,0.7,2.7,1.2,4.2,1.4
			c1.8,0.3,3.5,0.5,5.3,0.4c2,0,4.1-0.3,6.1-0.6c2.2-0.4,4.3-1,6.4-1.7l4,2.3c0.9,0.5,2,0.5,2.9,0l7.1-4.1c0.3-0.2,0.6-0.5,0.6-0.9
			v-5.9c0-0.4-0.3-0.7-0.6-0.8l-0.2-0.1c0.7-1,1.1-2.1,1.2-3.3V384c0.1-1.2-0.3-2.4-0.9-3.3c-0.9-1.2-2-2.2-3.3-2.9
			c-1.6-0.9-3.3-1.7-5.1-2.1s-3.6-0.6-5.4-0.6c-2,0.1-4,0.3-6,0.8l-0.8,0.2c0.2-0.1,0.3-0.3,0.3-0.6v-5.9c0-0.3-0.2-0.6-0.5-0.7
			c-1.2-0.6-2.5-1-3.8-1.2c-1.7-0.3-3.4-0.4-5.1-0.4c-2,0-3.9,0.2-5.9,0.5c-2.1,0.3-4.1,0.9-6.1,1.6l-4-2.3c-0.9-0.5-2-0.5-2.9,0
			l-7.1,4.1c-0.3,0.2-0.6,0.5-0.6,0.9v5.9c0,0.4,0.3,0.7,0.6,0.8l1,0.6c-0.2,0.6-0.4,1.2-0.4,1.8L90.8,387.1z"/>
		<path class="st5" d="M104.2,369.5c2-0.7,4-1.2,6.1-1.6c1.9-0.3,3.9-0.5,5.9-0.5c1.7,0,3.4,0.1,5.1,0.4c1.3,0.2,2.6,0.6,3.8,1.2
			c0.3,0.1,0.5,0.4,0.5,0.7c0,0.3-0.2,0.5-0.4,0.6l-7.1,4.1c-0.4,0.3-0.9,0.5-1.4,0.6s-1.1,0.2-1.6,0.2h-1c-0.6,0-1.2,0-1.8,0.1
			c-0.8,0.1-1.6,0.3-2.3,0.5c-0.9,0.3-1.8,0.7-2.7,1.2c-0.6,0.4-1.3,0.8-1.8,1.2c-0.5,0.3-0.9,0.8-1.2,1.2c-0.3,0.3-0.4,0.7-0.3,1.2
			c0.1,0.5,0.5,0.8,0.9,1c0.6,0.3,1.2,0.5,1.9,0.5c0.9,0,1.8-0.2,2.7-0.4c1.1-0.3,2.5-0.7,4.1-1.3s3.6-1.4,6-2.3
			c2.2-0.9,4.4-1.6,6.7-2.1c2-0.5,4-0.8,6-0.8c1.8,0,3.7,0.2,5.4,0.6c1.8,0.5,3.5,1.2,5.1,2.1c1.3,0.7,2.4,1.7,3.3,2.9
			c0.7,1,1,2.2,0.9,3.3c-0.1,1.3-0.6,2.5-1.4,3.6c-1,1.4-2.1,2.6-3.4,3.6l3.8,2.2c0.5,0.2,0.7,0.7,0.5,1.1c-0.1,0.3-0.3,0.5-0.5,0.5
			l-7.1,4.1c-0.9,0.5-2,0.5-2.9,0l-4-2.3c-4,1.4-8.2,2.2-12.4,2.3c-1.8,0-3.6-0.1-5.3-0.4c-1.5-0.3-2.9-0.7-4.2-1.4
			c-0.3-0.1-0.5-0.4-0.5-0.7c0-0.3,0.2-0.5,0.4-0.6l7.1-4.1c0.4-0.3,0.9-0.4,1.4-0.6c0.5-0.1,0.9-0.2,1.4-0.2h1.4
			c1.7,0,3.3-0.2,4.9-0.6c1.1-0.3,2.1-0.8,3.1-1.4c1.5-0.8,2.9-1.9,4.2-3.1c0.9-1,0.8-1.8-0.3-2.4c-0.6-0.3-1.3-0.5-2.1-0.4
			c-1.1,0.1-2.1,0.3-3.1,0.6c-1.2,0.4-2.7,0.9-4.5,1.6s-3.8,1.5-6.2,2.4c-3.8,1.6-8,2.4-12.1,2.5c-3.5-0.1-7-1-10-2.8
			c-1.2-0.6-2.2-1.5-3-2.5c-0.7-0.9-1.1-1.9-1.2-3c-0.1-1.2,0.2-2.3,0.7-3.3c0.7-1.3,1.6-2.5,2.7-3.5l-4-2.3
			c-0.3-0.1-0.6-0.5-0.6-0.8c0-0.4,0.3-0.7,0.6-0.9l7.1-4.1c0.9-0.5,2-0.5,2.9,0L104.2,369.5z"/>
		<path class="st20" d="M129.7,388.9l-0.6,0.4c-1,0.6-2,1-3.1,1.4c-1.6,0.5-3.2,0.7-4.9,0.6h-1.3c-0.5,0-1,0.1-1.4,0.2
			c-0.5,0.1-0.9,0.3-1.3,0.5l-3,1.7v5.1h0.1c1.8,0.3,3.5,0.5,5.3,0.4c2,0,4.1-0.2,6.1-0.6c1.4-0.2,2.8-0.6,4.2-1L129.7,388.9z"/>
		<path class="st20" d="M137.8,375.8l-0.3-0.1c-1.1-0.3-2.2-0.4-3.3-0.5v23.1l1.7,1c0.5,0.2,1,0.4,1.5,0.3c0.2,0,0.3,0,0.4,0
			L137.8,375.8z"/>
		<path class="st20" d="M113.9,375.1h1c0.5,0,1.1-0.1,1.6-0.2s1-0.3,1.4-0.6l7.1-4.1c0.3-0.1,0.4-0.4,0.4-0.6c0-0.3-0.2-0.6-0.5-0.7
			c-1.2-0.6-2.5-1-3.8-1.2c-1.7-0.3-3.4-0.4-5.1-0.4c-0.7,0-1.4,0-2.2,0.1L113.9,375.1z"/>
		<path class="st20" d="M98.1,389.1c2.2,0.8,4.5,1.3,6.8,1.3c0.8,0,1.7,0,2.5-0.1v-8.2c-0.3,0-0.6,0.1-0.9,0.1
			c-0.7,0-1.3-0.2-1.9-0.5c-0.4-0.2-0.8-0.5-0.9-1c0-0.4,0.1-0.8,0.4-1.2c0.4-0.5,0.8-0.9,1.2-1.2c0.6-0.5,1.2-0.9,1.8-1.2l0.2-0.1
			v-8.4c-1.1,0.3-2.1,0.6-3.2,1l-4-2.3c-0.4-0.2-1-0.4-1.5-0.3c-0.2,0-0.4,0-0.6,0.1L98.1,389.1z"/>
		<path class="st20" d="M123.2,385.6c1.7-0.7,3.2-1.2,4.5-1.6c0.7-0.2,1.4-0.4,2-0.5v-8.2c-1.2,0.1-2.5,0.3-3.7,0.6
			c-2.3,0.6-4.5,1.3-6.7,2.1c-2.1,0.8-3.8,1.5-5.3,2v8.9c1-0.3,2-0.6,3-1C119.4,387.1,121.5,386.3,123.2,385.6z"/>
		<g>
			
				<image style="overflow:visible;enable-background:new    ;" width="179" height="303" xlink:href="C7FD38EF.png"  transform="matrix(1 0 0 1 28 150.42)">
			</image>
		</g>
		
			<radialGradient id="SVGID_00000064328990310517525300000007462387601068809097_" cx="-1947.0205" cy="2546.4468" r="38.3" gradientTransform="matrix(0.8 -0.53 0.62 0.31 380.8504 -1447.1399)" gradientUnits="userSpaceOnUse">
			<stop  offset="0" style="stop-color:#1B2062"/>
			<stop  offset="0.24" style="stop-color:#1A1F5F;stop-opacity:0.97"/>
			<stop  offset="0.43" style="stop-color:#171C55;stop-opacity:0.86"/>
			<stop  offset="0.61" style="stop-color:#131743;stop-opacity:0.69"/>
			<stop  offset="0.78" style="stop-color:#0C102B;stop-opacity:0.44"/>
			<stop  offset="0.95" style="stop-color:#04070C;stop-opacity:0.12"/>
			<stop  offset="1" style="stop-color:#010400;stop-opacity:0"/>
		</radialGradient>
		
			<ellipse style="fill:url(#SVGID_00000064328990310517525300000007462387601068809097_);" cx="400.9" cy="373" rx="48.7" ry="28.1"/>
		<g>
			
				<radialGradient id="SVGID_00000133501497119001468280000000926040339515488444_" cx="311.5862" cy="619.2332" r="3.8116" gradientTransform="matrix(1 0 0 0.59 104.94 -0.8492)" gradientUnits="userSpaceOnUse">
				<stop  offset="0" style="stop-color:#FFFFFF"/>
				<stop  offset="0.16" style="stop-color:#FCFCFC;stop-opacity:0.99"/>
				<stop  offset="0.29" style="stop-color:#F2F2F2;stop-opacity:0.95"/>
				<stop  offset="0.41" style="stop-color:#E0E1E0;stop-opacity:0.88"/>
				<stop  offset="0.52" style="stop-color:#C8C9C8;stop-opacity:0.78"/>
				<stop  offset="0.63" style="stop-color:#A9AAA9;stop-opacity:0.66"/>
				<stop  offset="0.74" style="stop-color:#838482;stop-opacity:0.51"/>
				<stop  offset="0.84" style="stop-color:#555754;stop-opacity:0.33"/>
				<stop  offset="0.94" style="stop-color:#222521;stop-opacity:0.13"/>
				<stop  offset="1" style="stop-color:#010400;stop-opacity:0"/>
			</radialGradient>
			<path style="fill:url(#SVGID_00000133501497119001468280000000926040339515488444_);" d="M419.2,362.6c1.5,0.9,1.5,2.3,0,3.1
				c-1.7,0.9-3.7,0.9-5.4,0c-1.5-0.9-1.5-2.3,0-3.1C415.5,361.7,417.5,361.7,419.2,362.6z"/>
			
				<radialGradient id="SVGID_00000176024849938592108080000007188206817496531095_" cx="303.71" cy="623.6732" r="3.81" gradientTransform="matrix(1 0 0 0.59 104.94 0.9808)" gradientUnits="userSpaceOnUse">
				<stop  offset="0" style="stop-color:#FFFFFF"/>
				<stop  offset="0.16" style="stop-color:#FCFCFC;stop-opacity:0.99"/>
				<stop  offset="0.29" style="stop-color:#F2F2F2;stop-opacity:0.95"/>
				<stop  offset="0.41" style="stop-color:#E0E1E0;stop-opacity:0.88"/>
				<stop  offset="0.52" style="stop-color:#C8C9C8;stop-opacity:0.78"/>
				<stop  offset="0.63" style="stop-color:#A9AAA9;stop-opacity:0.66"/>
				<stop  offset="0.74" style="stop-color:#838482;stop-opacity:0.51"/>
				<stop  offset="0.84" style="stop-color:#555754;stop-opacity:0.33"/>
				<stop  offset="0.94" style="stop-color:#222521;stop-opacity:0.13"/>
				<stop  offset="1" style="stop-color:#010400;stop-opacity:0"/>
			</radialGradient>
			
				<ellipse style="fill:url(#SVGID_00000176024849938592108080000007188206817496531095_);" cx="408.6" cy="368.6" rx="3.9" ry="2.2"/>
			
				<radialGradient id="SVGID_00000093873299264754868170000007973850458932400001_" cx="295.83" cy="628.1232" r="3.81" gradientTransform="matrix(1 0 0 0.59 104.94 2.8008)" gradientUnits="userSpaceOnUse">
				<stop  offset="0" style="stop-color:#FFFFFF"/>
				<stop  offset="0.16" style="stop-color:#FCFCFC;stop-opacity:0.99"/>
				<stop  offset="0.29" style="stop-color:#F2F2F2;stop-opacity:0.95"/>
				<stop  offset="0.41" style="stop-color:#E0E1E0;stop-opacity:0.88"/>
				<stop  offset="0.52" style="stop-color:#C8C9C8;stop-opacity:0.78"/>
				<stop  offset="0.63" style="stop-color:#A9AAA9;stop-opacity:0.66"/>
				<stop  offset="0.74" style="stop-color:#838482;stop-opacity:0.51"/>
				<stop  offset="0.84" style="stop-color:#555754;stop-opacity:0.33"/>
				<stop  offset="0.94" style="stop-color:#222521;stop-opacity:0.13"/>
				<stop  offset="1" style="stop-color:#010400;stop-opacity:0"/>
			</radialGradient>
			
				<ellipse style="fill:url(#SVGID_00000093873299264754868170000007973850458932400001_);" cx="400.8" cy="373" rx="3.9" ry="2.2"/>
			
				<radialGradient id="SVGID_00000170976067702685041040000012998651536030080403_" cx="287.95" cy="632.5632" r="3.81" gradientTransform="matrix(1 0 0 0.59 104.94 4.6308)" gradientUnits="userSpaceOnUse">
				<stop  offset="0" style="stop-color:#FFFFFF"/>
				<stop  offset="0.16" style="stop-color:#FCFCFC;stop-opacity:0.99"/>
				<stop  offset="0.29" style="stop-color:#F2F2F2;stop-opacity:0.95"/>
				<stop  offset="0.41" style="stop-color:#E0E1E0;stop-opacity:0.88"/>
				<stop  offset="0.52" style="stop-color:#C8C9C8;stop-opacity:0.78"/>
				<stop  offset="0.63" style="stop-color:#A9AAA9;stop-opacity:0.66"/>
				<stop  offset="0.74" style="stop-color:#838482;stop-opacity:0.51"/>
				<stop  offset="0.84" style="stop-color:#555754;stop-opacity:0.33"/>
				<stop  offset="0.94" style="stop-color:#222521;stop-opacity:0.13"/>
				<stop  offset="1" style="stop-color:#010400;stop-opacity:0"/>
			</radialGradient>
			<path style="fill:url(#SVGID_00000170976067702685041040000012998651536030080403_);" d="M395.6,375.9c1.5,0.9,1.5,2.3,0,3.1
				c-1.7,0.9-3.7,0.9-5.4,0c-1.5-0.9-1.5-2.3,0-3.1C391.9,375,393.9,375,395.6,375.9z"/>
			
				<radialGradient id="SVGID_00000130629741333404729730000006246643001011730056_" cx="280.07" cy="637.0032" r="3.81" gradientTransform="matrix(1 0 0 0.59 104.94 6.4508)" gradientUnits="userSpaceOnUse">
				<stop  offset="0" style="stop-color:#FFFFFF"/>
				<stop  offset="0.16" style="stop-color:#FCFCFC;stop-opacity:0.99"/>
				<stop  offset="0.29" style="stop-color:#F2F2F2;stop-opacity:0.95"/>
				<stop  offset="0.41" style="stop-color:#E0E1E0;stop-opacity:0.88"/>
				<stop  offset="0.52" style="stop-color:#C8C9C8;stop-opacity:0.78"/>
				<stop  offset="0.63" style="stop-color:#A9AAA9;stop-opacity:0.66"/>
				<stop  offset="0.74" style="stop-color:#838482;stop-opacity:0.51"/>
				<stop  offset="0.84" style="stop-color:#555754;stop-opacity:0.33"/>
				<stop  offset="0.94" style="stop-color:#222521;stop-opacity:0.13"/>
				<stop  offset="1" style="stop-color:#010400;stop-opacity:0"/>
			</radialGradient>
			
				<ellipse style="fill:url(#SVGID_00000130629741333404729730000006246643001011730056_);" cx="385" cy="381.9" rx="3.9" ry="2.2"/>
		</g>
		
			<radialGradient id="SVGID_00000044895388458102715040000000933842590414901392_" cx="-1940.7705" cy="2260.3867" r="38.3" gradientTransform="matrix(0.8 -0.53 0.62 0.31 309.8604 -1501.4598)" gradientUnits="userSpaceOnUse">
			<stop  offset="0" style="stop-color:#1B2062"/>
			<stop  offset="0.24" style="stop-color:#1A1F5F;stop-opacity:0.97"/>
			<stop  offset="0.43" style="stop-color:#171C55;stop-opacity:0.86"/>
			<stop  offset="0.61" style="stop-color:#131743;stop-opacity:0.69"/>
			<stop  offset="0.78" style="stop-color:#0C102B;stop-opacity:0.44"/>
			<stop  offset="0.95" style="stop-color:#04070C;stop-opacity:0.12"/>
			<stop  offset="1" style="stop-color:#010400;stop-opacity:0"/>
		</radialGradient>
		
			<ellipse style="fill:url(#SVGID_00000044895388458102715040000000933842590414901392_);" cx="158.6" cy="226.9" rx="48.7" ry="28.1"/>
		<g>
			
				<radialGradient id="SVGID_00000077324497318445381650000018198294233990577070_" cx="69.27" cy="473.0732" r="3.81" gradientTransform="matrix(1 0 0 0.59 104.94 -60.9092)" gradientUnits="userSpaceOnUse">
				<stop  offset="0" style="stop-color:#FFFFFF"/>
				<stop  offset="0.16" style="stop-color:#FCFCFC;stop-opacity:0.99"/>
				<stop  offset="0.29" style="stop-color:#F2F2F2;stop-opacity:0.95"/>
				<stop  offset="0.41" style="stop-color:#E0E1E0;stop-opacity:0.88"/>
				<stop  offset="0.52" style="stop-color:#C8C9C8;stop-opacity:0.78"/>
				<stop  offset="0.63" style="stop-color:#A9AAA9;stop-opacity:0.66"/>
				<stop  offset="0.74" style="stop-color:#838482;stop-opacity:0.51"/>
				<stop  offset="0.84" style="stop-color:#555754;stop-opacity:0.33"/>
				<stop  offset="0.94" style="stop-color:#222521;stop-opacity:0.13"/>
				<stop  offset="1" style="stop-color:#010400;stop-opacity:0"/>
			</radialGradient>
			<path style="fill:url(#SVGID_00000077324497318445381650000018198294233990577070_);" d="M176.9,216.4c1.5,0.9,1.5,2.3,0,3.1
				c-1.7,0.9-3.7,0.9-5.4,0c-1.5-0.9-1.5-2.3,0-3.1C173.2,215.6,175.2,215.6,176.9,216.4z"/>
			
				<radialGradient id="SVGID_00000027573250511404306950000002649166308871890561_" cx="61.39" cy="477.5232" r="3.81" gradientTransform="matrix(1 0 0 0.59 104.94 -59.0892)" gradientUnits="userSpaceOnUse">
				<stop  offset="0" style="stop-color:#FFFFFF"/>
				<stop  offset="0.16" style="stop-color:#FCFCFC;stop-opacity:0.99"/>
				<stop  offset="0.29" style="stop-color:#F2F2F2;stop-opacity:0.95"/>
				<stop  offset="0.41" style="stop-color:#E0E1E0;stop-opacity:0.88"/>
				<stop  offset="0.52" style="stop-color:#C8C9C8;stop-opacity:0.78"/>
				<stop  offset="0.63" style="stop-color:#A9AAA9;stop-opacity:0.66"/>
				<stop  offset="0.74" style="stop-color:#838482;stop-opacity:0.51"/>
				<stop  offset="0.84" style="stop-color:#555754;stop-opacity:0.33"/>
				<stop  offset="0.94" style="stop-color:#222521;stop-opacity:0.13"/>
				<stop  offset="1" style="stop-color:#010400;stop-opacity:0"/>
			</radialGradient>
			
				<ellipse style="fill:url(#SVGID_00000027573250511404306950000002649166308871890561_);" cx="166.3" cy="222.4" rx="3.9" ry="2.2"/>
			
				<radialGradient id="SVGID_00000177477208991619125700000018148821669318054821_" cx="53.51" cy="481.9633" r="3.81" gradientTransform="matrix(1 0 0 0.59 104.94 -57.2592)" gradientUnits="userSpaceOnUse">
				<stop  offset="0" style="stop-color:#FFFFFF"/>
				<stop  offset="0.16" style="stop-color:#FCFCFC;stop-opacity:0.99"/>
				<stop  offset="0.29" style="stop-color:#F2F2F2;stop-opacity:0.95"/>
				<stop  offset="0.41" style="stop-color:#E0E1E0;stop-opacity:0.88"/>
				<stop  offset="0.52" style="stop-color:#C8C9C8;stop-opacity:0.78"/>
				<stop  offset="0.63" style="stop-color:#A9AAA9;stop-opacity:0.66"/>
				<stop  offset="0.74" style="stop-color:#838482;stop-opacity:0.51"/>
				<stop  offset="0.84" style="stop-color:#555754;stop-opacity:0.33"/>
				<stop  offset="0.94" style="stop-color:#222521;stop-opacity:0.13"/>
				<stop  offset="1" style="stop-color:#010400;stop-opacity:0"/>
			</radialGradient>
			
				<ellipse style="fill:url(#SVGID_00000177477208991619125700000018148821669318054821_);" cx="158.5" cy="226.9" rx="3.9" ry="2.2"/>
			
				<radialGradient id="SVGID_00000008136132074906879970000015075339633871888794_" cx="45.6338" cy="486.4033" r="3.8083" gradientTransform="matrix(1 0 0 0.59 104.94 -55.4392)" gradientUnits="userSpaceOnUse">
				<stop  offset="0" style="stop-color:#FFFFFF"/>
				<stop  offset="0.16" style="stop-color:#FCFCFC;stop-opacity:0.99"/>
				<stop  offset="0.29" style="stop-color:#F2F2F2;stop-opacity:0.95"/>
				<stop  offset="0.41" style="stop-color:#E0E1E0;stop-opacity:0.88"/>
				<stop  offset="0.52" style="stop-color:#C8C9C8;stop-opacity:0.78"/>
				<stop  offset="0.63" style="stop-color:#A9AAA9;stop-opacity:0.66"/>
				<stop  offset="0.74" style="stop-color:#838482;stop-opacity:0.51"/>
				<stop  offset="0.84" style="stop-color:#555754;stop-opacity:0.33"/>
				<stop  offset="0.94" style="stop-color:#222521;stop-opacity:0.13"/>
				<stop  offset="1" style="stop-color:#010400;stop-opacity:0"/>
			</radialGradient>
			<path style="fill:url(#SVGID_00000008136132074906879970000015075339633871888794_);" d="M153.3,229.7c1.5,0.9,1.5,2.3,0,3.1
				c-1.7,0.9-3.7,0.9-5.4,0c-1.5-0.9-1.5-2.3,0-3.1C149.6,228.9,151.6,228.9,153.3,229.7z"/>
			
				<radialGradient id="SVGID_00000056420391257618332090000006478072358527107971_" cx="37.75" cy="490.8433" r="3.81" gradientTransform="matrix(1 0 0 0.59 104.94 -53.6092)" gradientUnits="userSpaceOnUse">
				<stop  offset="0" style="stop-color:#FFFFFF"/>
				<stop  offset="0.16" style="stop-color:#FCFCFC;stop-opacity:0.99"/>
				<stop  offset="0.29" style="stop-color:#F2F2F2;stop-opacity:0.95"/>
				<stop  offset="0.41" style="stop-color:#E0E1E0;stop-opacity:0.88"/>
				<stop  offset="0.52" style="stop-color:#C8C9C8;stop-opacity:0.78"/>
				<stop  offset="0.63" style="stop-color:#A9AAA9;stop-opacity:0.66"/>
				<stop  offset="0.74" style="stop-color:#838482;stop-opacity:0.51"/>
				<stop  offset="0.84" style="stop-color:#555754;stop-opacity:0.33"/>
				<stop  offset="0.94" style="stop-color:#222521;stop-opacity:0.13"/>
				<stop  offset="1" style="stop-color:#010400;stop-opacity:0"/>
			</radialGradient>
			
				<ellipse style="fill:url(#SVGID_00000056420391257618332090000006478072358527107971_);" cx="142.7" cy="235.8" rx="3.9" ry="2.2"/>
		</g>
		
			<radialGradient id="SVGID_00000124876302049098461380000016613855551942233518_" cx="-624.8777" cy="5660.2769" r="27.5756" gradientTransform="matrix(0.8938 -0.4484 0.1255 0.2503 60.3156 -1330.1062)" gradientUnits="userSpaceOnUse">
			<stop  offset="0" style="stop-color:#55D1FF"/>
			<stop  offset="0.16" style="stop-color:#54CEFC;stop-opacity:0.99"/>
			<stop  offset="0.29" style="stop-color:#51C6F2;stop-opacity:0.95"/>
			<stop  offset="0.41" style="stop-color:#4BB8E0;stop-opacity:0.88"/>
			<stop  offset="0.52" style="stop-color:#43A5C8;stop-opacity:0.78"/>
			<stop  offset="0.63" style="stop-color:#398CA9;stop-opacity:0.66"/>
			<stop  offset="0.74" style="stop-color:#2C6D82;stop-opacity:0.51"/>
			<stop  offset="0.84" style="stop-color:#1D4854;stop-opacity:0.33"/>
			<stop  offset="0.94" style="stop-color:#0C1F21;stop-opacity:0.13"/>
			<stop  offset="1" style="stop-color:#010400;stop-opacity:0"/>
		</radialGradient>
		<path style="fill:url(#SVGID_00000124876302049098461380000016613855551942233518_);" d="M238.2,353.4c1.5,3-8.9,11.2-23.2,18.3
			s-27.1,10.5-28.6,7.5s8.9-11.2,23.2-18.3S236.7,350.4,238.2,353.4z"/>
		
			<radialGradient id="SVGID_00000086689334798234162110000018029912256359256764_" cx="-645.5411" cy="5616.6768" r="27.5775" gradientTransform="matrix(0.8938 -0.4484 0.1255 0.2503 46.3256 -1358.3462)" gradientUnits="userSpaceOnUse">
			<stop  offset="0" style="stop-color:#55D1FF"/>
			<stop  offset="0.16" style="stop-color:#54CEFC;stop-opacity:0.99"/>
			<stop  offset="0.29" style="stop-color:#51C6F2;stop-opacity:0.95"/>
			<stop  offset="0.41" style="stop-color:#4BB8E0;stop-opacity:0.88"/>
			<stop  offset="0.52" style="stop-color:#43A5C8;stop-opacity:0.78"/>
			<stop  offset="0.63" style="stop-color:#398CA9;stop-opacity:0.66"/>
			<stop  offset="0.74" style="stop-color:#2C6D82;stop-opacity:0.51"/>
			<stop  offset="0.84" style="stop-color:#1D4854;stop-opacity:0.33"/>
			<stop  offset="0.94" style="stop-color:#0C1F21;stop-opacity:0.13"/>
			<stop  offset="1" style="stop-color:#010400;stop-opacity:0"/>
		</radialGradient>
		<path style="fill:url(#SVGID_00000086689334798234162110000018029912256359256764_);" d="M200.2,323.6c1.5,3-8.9,11.2-23.2,18.3
			s-27.1,10.5-28.6,7.5s8.9-11.2,23.2-18.3C185.9,323.9,198.8,320.6,200.2,323.6z"/>
		
			<radialGradient id="SVGID_00000036249376122501697540000008816328075385183635_" cx="332.7964" cy="-1867.7312" r="19.0246" gradientTransform="matrix(0.866 0.5 -0.165 0.2858 -304.3694 731.8961)" gradientUnits="userSpaceOnUse">
			<stop  offset="0" style="stop-color:#55D1FF"/>
			<stop  offset="0.16" style="stop-color:#54CEFC;stop-opacity:0.99"/>
			<stop  offset="0.29" style="stop-color:#51C6F2;stop-opacity:0.95"/>
			<stop  offset="0.41" style="stop-color:#4BB8E0;stop-opacity:0.88"/>
			<stop  offset="0.52" style="stop-color:#43A5C8;stop-opacity:0.78"/>
			<stop  offset="0.63" style="stop-color:#398CA9;stop-opacity:0.66"/>
			<stop  offset="0.74" style="stop-color:#2C6D82;stop-opacity:0.51"/>
			<stop  offset="0.84" style="stop-color:#1D4854;stop-opacity:0.33"/>
			<stop  offset="0.94" style="stop-color:#0C1F21;stop-opacity:0.13"/>
			<stop  offset="1" style="stop-color:#010400;stop-opacity:0"/>
		</radialGradient>
		<path style="fill:url(#SVGID_00000036249376122501697540000008816328075385183635_);" d="M273.8,353.9c1.9-3.3,11.6-1.2,21.7,4.6
			c10.1,5.8,16.7,13.2,14.9,16.5c-1.9,3.3-11.6,1.2-21.7-4.6C278.5,364.6,271.9,357.2,273.8,353.9z"/>
		
			<radialGradient id="SVGID_00000039103498009904072500000009548487905467337904_" cx="190.3109" cy="-1868.1047" r="19.0239" gradientTransform="matrix(0.866 0.5 -0.165 0.2858 -304.2462 731.699)" gradientUnits="userSpaceOnUse">
			<stop  offset="0" style="stop-color:#55D1FF"/>
			<stop  offset="0.16" style="stop-color:#54CEFC;stop-opacity:0.99"/>
			<stop  offset="0.29" style="stop-color:#51C6F2;stop-opacity:0.95"/>
			<stop  offset="0.41" style="stop-color:#4BB8E0;stop-opacity:0.88"/>
			<stop  offset="0.52" style="stop-color:#43A5C8;stop-opacity:0.78"/>
			<stop  offset="0.63" style="stop-color:#398CA9;stop-opacity:0.66"/>
			<stop  offset="0.74" style="stop-color:#2C6D82;stop-opacity:0.51"/>
			<stop  offset="0.84" style="stop-color:#1D4854;stop-opacity:0.33"/>
			<stop  offset="0.94" style="stop-color:#0C1F21;stop-opacity:0.13"/>
			<stop  offset="1" style="stop-color:#010400;stop-opacity:0"/>
		</radialGradient>
		<path style="fill:url(#SVGID_00000039103498009904072500000009548487905467337904_);" d="M150.5,282.4c1.9-3.3,11.6-1.2,21.7,4.6
			c10.1,5.8,16.7,13.2,14.9,16.5s-11.6,1.2-21.7-4.6C155.3,293,148.6,285.7,150.5,282.4z"/>
		
			<radialGradient id="SVGID_00000139993655234877462740000018163283280229308818_" cx="-446.2736" cy="5747.8911" r="43.79" gradientTransform="matrix(0.8955 -0.4451 0.1246 0.2507 97.8973 -1251.119)" gradientUnits="userSpaceOnUse">
			<stop  offset="0" style="stop-color:#55D1FF"/>
			<stop  offset="0.16" style="stop-color:#54CEFC;stop-opacity:0.99"/>
			<stop  offset="0.29" style="stop-color:#51C6F2;stop-opacity:0.95"/>
			<stop  offset="0.41" style="stop-color:#4BB8E0;stop-opacity:0.88"/>
			<stop  offset="0.52" style="stop-color:#43A5C8;stop-opacity:0.78"/>
			<stop  offset="0.63" style="stop-color:#398CA9;stop-opacity:0.66"/>
			<stop  offset="0.74" style="stop-color:#2C6D82;stop-opacity:0.51"/>
			<stop  offset="0.84" style="stop-color:#1D4854;stop-opacity:0.33"/>
			<stop  offset="0.94" style="stop-color:#0C1F21;stop-opacity:0.13"/>
			<stop  offset="1" style="stop-color:#010400;stop-opacity:0"/>
		</radialGradient>
		<path style="fill:url(#SVGID_00000139993655234877462740000018163283280229308818_);" d="M410.1,378.3
			c22.7-11.3,43-16.6,45.4-11.8c2.4,4.8-14.1,17.8-36.9,29c-22.7,11.3-43,16.6-45.4,11.8C370.8,402.6,387.3,389.6,410.1,378.3z"/>
		
			<radialGradient id="SVGID_00000063606467253968855150000010198629476908205469_" cx="309.39" cy="-42.83" r="14.1449" gradientTransform="matrix(1 0 0 1.02 104.94 430.1384)" gradientUnits="userSpaceOnUse">
			<stop  offset="0" style="stop-color:#55D1FF"/>
			<stop  offset="0.16" style="stop-color:#54CEFC;stop-opacity:0.99"/>
			<stop  offset="0.29" style="stop-color:#51C6F2;stop-opacity:0.95"/>
			<stop  offset="0.41" style="stop-color:#4BB8E0;stop-opacity:0.88"/>
			<stop  offset="0.52" style="stop-color:#43A5C8;stop-opacity:0.78"/>
			<stop  offset="0.63" style="stop-color:#398CA9;stop-opacity:0.66"/>
			<stop  offset="0.74" style="stop-color:#2C6D82;stop-opacity:0.51"/>
			<stop  offset="0.84" style="stop-color:#1D4854;stop-opacity:0.33"/>
			<stop  offset="0.94" style="stop-color:#0C1F21;stop-opacity:0.13"/>
			<stop  offset="1" style="stop-color:#010400;stop-opacity:0"/>
		</radialGradient>
		<circle style="fill:url(#SVGID_00000063606467253968855150000010198629476908205469_);" cx="414.3" cy="386.6" r="14.3"/>
		
			<radialGradient id="SVGID_00000088821469491435410630000017129737360743297168_" cx="-534.5292" cy="5420.916" r="43.79" gradientTransform="matrix(0.91 -0.41 0.11 0.25 31.9511 -1361.7587)" gradientUnits="userSpaceOnUse">
			<stop  offset="0" style="stop-color:#55D1FF"/>
			<stop  offset="0.16" style="stop-color:#54CEFC;stop-opacity:0.99"/>
			<stop  offset="0.29" style="stop-color:#51C6F2;stop-opacity:0.95"/>
			<stop  offset="0.41" style="stop-color:#4BB8E0;stop-opacity:0.88"/>
			<stop  offset="0.52" style="stop-color:#43A5C8;stop-opacity:0.78"/>
			<stop  offset="0.63" style="stop-color:#398CA9;stop-opacity:0.66"/>
			<stop  offset="0.74" style="stop-color:#2C6D82;stop-opacity:0.51"/>
			<stop  offset="0.84" style="stop-color:#1D4854;stop-opacity:0.33"/>
			<stop  offset="0.94" style="stop-color:#0C1F21;stop-opacity:0.13"/>
			<stop  offset="1" style="stop-color:#010400;stop-opacity:0"/>
		</radialGradient>
		<path style="fill:url(#SVGID_00000088821469491435410630000017129737360743297168_);" d="M185,194.9c2.2,4.9-14.9,17.1-38,27.5
			s-43.7,14.7-45.9,9.9s14.9-17.1,38.1-27.5S182.8,190,185,194.9z"/>
		
			<radialGradient id="SVGID_00000012453940837233611270000012666736369336726417_" cx="35.56" cy="-215.0999" r="14.1698" gradientTransform="matrix(1 0 0 1.02 104.94 433.6485)" gradientUnits="userSpaceOnUse">
			<stop  offset="0" style="stop-color:#55D1FF"/>
			<stop  offset="0.16" style="stop-color:#54CEFC;stop-opacity:0.99"/>
			<stop  offset="0.29" style="stop-color:#51C6F2;stop-opacity:0.95"/>
			<stop  offset="0.41" style="stop-color:#4BB8E0;stop-opacity:0.88"/>
			<stop  offset="0.52" style="stop-color:#43A5C8;stop-opacity:0.78"/>
			<stop  offset="0.63" style="stop-color:#398CA9;stop-opacity:0.66"/>
			<stop  offset="0.74" style="stop-color:#2C6D82;stop-opacity:0.51"/>
			<stop  offset="0.84" style="stop-color:#1D4854;stop-opacity:0.33"/>
			<stop  offset="0.94" style="stop-color:#0C1F21;stop-opacity:0.13"/>
			<stop  offset="1" style="stop-color:#010400;stop-opacity:0"/>
		</radialGradient>
		<circle style="fill:url(#SVGID_00000012453940837233611270000012666736369336726417_);" cx="140.5" cy="214.3" r="14.3"/>
	</g>
	<g id="DESIGNED_BY_FREEPIK">
		<path class="st0" d="M268.4,464.9c-0.5,0.5-0.9,1-1.2,1.6l-0.5-0.3c-0.1-0.3-0.4-0.6-0.8-0.5s-0.6,0.4-0.6,0.8
			c0.1,0.4,0.4,0.6,0.7,0.6c0.1,0,0.1,0,0.2-0.1l0.5,0.3c-0.3,0.6-0.5,1.3-0.6,2l0.9,0.1c0.3-1.5,1-2.9,2-3.9L268.4,464.9z"/>
		<path class="st0" d="M274.6,462.3H274l-0.1-0.7c0.2-0.2,0.3-0.5,0.3-0.7c0-0.5-0.4-0.8-0.9-0.7s-0.8,0.4-0.7,0.9
			c0,0.3,0.2,0.5,0.5,0.7l0.1,0.7c-0.8,0.1-1.6,0.4-2.3,0.7l0.4,0.8c1.6-0.8,3.4-1,5.1-0.6l0.2-0.8
			C275.8,462.3,275.2,462.3,274.6,462.3z"/>
		<path class="st0" d="M282.1,465.2c0.4,0,0.6-0.4,0.6-0.8s-0.4-0.6-0.8-0.6c-0.3,0-0.6,0.3-0.6,0.7l-0.5,0.4
			c-0.5-0.5-1-0.9-1.6-1.3l-0.5,0.7c1.3,0.8,2.3,1.9,2.9,3.3l0.8-0.4c-0.3-0.6-0.6-1.2-1.1-1.8l0.5-0.4
			C281.9,465.2,282,465.2,282.1,465.2z"/>
		<path class="st0" d="M273.9,473.8h-1.3c-0.9,0-1.9-0.1-2.8-0.2c-0.5-0.1-1-0.2-1.4-0.3c1.9,3.4,6.2,4.6,9.5,2.7
			c1.6-0.9,2.8-2.4,3.3-4.2c-0.9,0.6-1.8,1-2.8,1.3C277,473.5,275.5,473.8,273.9,473.8z"/>
		<path class="st0" d="M274.6,464c-3.8,0-6.8,3-6.9,6.7c0,0.5,0.1,1,0.2,1.4c0.8,0.5,3.1,1,6,0.8c3.3-0.2,6-1.1,7.6-2.5
			c0-0.2,0-0.4,0-0.6C281,466.5,278,464,274.6,464z M272.1,471.4c-1.2,0-2.1-0.9-2.1-2.1s0.9-2.1,2.1-2.1s2.1,0.9,2.1,2.1
			S273.3,471.4,272.1,471.4L272.1,471.4z M277.5,470.4c-0.9,0-1.5-0.7-1.5-1.5c0-0.9,0.7-1.5,1.5-1.5c0.9,0,1.5,0.7,1.5,1.5
			C279,469.7,278.4,470.4,277.5,470.4L277.5,470.4z"/>
		<path class="st0" d="M292.7,466.1c-0.5-0.2-1-0.3-1.6-0.3c-0.6,0.1-1,0.4-1,1.1v1h2.5v1.9h-2.5v6.2H288v-6.2h-1.5V468h1.5v-1
			c0-1.9,1-3.1,2.9-3.1c0.6,0,1.2,0.1,1.8,0.4L292.7,466.1z"/>
		<path class="st0" d="M298,469.9c-0.2,0-0.4,0-0.6,0c-0.9-0.1-1.7,0.6-1.7,1.5c0,0.1,0,0.2,0,0.3v4.4h-2.2V468h2.1v0.9
			c0.5-0.8,1.4-1.2,2.3-1.1c0.4,0,0.9,0.1,1.2,0.4L298,469.9z"/>
		<path class="st0" d="M306.7,472c0,0.2,0,0.5,0,0.7H301c0.2,1,1.1,1.7,2.1,1.7c0.8,0,1.5-0.3,2.1-0.8l1.3,1.4
			c-0.9,0.8-2.2,1.3-3.4,1.2c-2.4-0.1-4.2-2.1-4.1-4.4c0.1-2.2,1.8-4,4-4.1C305.1,467.7,306.7,469.5,306.7,472z M300.9,471.2h3.6
			c-0.1-0.9-0.8-1.6-1.8-1.6C301.8,469.6,301,470.3,300.9,471.2L300.9,471.2z"/>
		<path class="st0" d="M315.4,472c0,0.2,0,0.5,0,0.7h-5.8c0.2,1,1.1,1.7,2.1,1.7c0.8,0,1.5-0.3,2-0.8l1.3,1.4
			c-1,0.8-2.2,1.3-3.5,1.2c-2.4-0.1-4.2-2.1-4.1-4.4c0.1-2.2,1.8-4,4-4.1C313.8,467.7,315.4,469.5,315.4,472z M309.6,471.2h3.6
			c-0.1-0.9-0.8-1.6-1.8-1.6C310.5,469.6,309.7,470.3,309.6,471.2L309.6,471.2z"/>
		<path class="st0" d="M324.8,472c0.2,2.2-1.5,4.1-3.7,4.3c-0.1,0-0.1,0-0.2,0c-0.9,0-1.8-0.4-2.4-1.1v4.2h-2.2V468h2.1v0.9
			c0.6-0.7,1.5-1.2,2.4-1.1c2.2,0,4,1.8,3.9,4.1C324.8,471.9,324.8,471.9,324.8,472z M318.4,472c0.1,1.2,1.1,2,2.2,2
			c1.2-0.1,2-1.1,2-2.2c-0.1-1.1-1-2-2.1-2c-1.2,0-2.1,0.9-2.1,2.1V472z"/>
		<path class="st0" d="M328.4,465.3c0,0.8-0.6,1.4-1.4,1.4s-1.4-0.6-1.4-1.4s0.6-1.4,1.4-1.4C327.7,463.9,328.4,464.5,328.4,465.3
			L328.4,465.3z M328.1,476.1h-2.2V468h2.2V476.1z"/>
		<path class="st0" d="M331.7,470.9l3.1-2.9h2.7l-3.9,3.8l4,4.3h-2.7l-3.1-3.3v3.3h-2.2V464h2.2L331.7,470.9z"/>
		<path class="st0" d="M182.7,476v-1.2c-0.6,0.9-1.6,1.4-2.7,1.4c-2.1,0-3.6-1.6-3.6-4.2s1.5-4.2,3.6-4.2c1.1,0,2.1,0.5,2.7,1.4V465
			h1.3v11H182.7z M182.7,473.8v-3.6c-0.5-0.8-1.4-1.3-2.4-1.3c-1.6,0-2.6,1.3-2.6,3.1s1,3.1,2.6,3.1
			C181.2,475.1,182.1,474.6,182.7,473.8L182.7,473.8z"/>
		<path class="st0" d="M185.5,472c-0.1-2.2,1.6-4.1,3.8-4.2h0.1c2.4,0,3.9,1.9,3.9,4.3v0.3h-6.5c0,1.6,1.3,2.8,2.9,2.8l0,0
			c0.9,0,1.8-0.4,2.5-1l0.6,0.8c-0.9,0.8-2,1.3-3.2,1.2c-2.2,0-4-1.7-4.1-3.9C185.5,472.2,185.5,472.1,185.5,472z M189.5,468.8
			c-1.5,0-2.6,1.2-2.6,2.7h5.3c0-1.4-1.1-2.6-2.5-2.7C189.5,468.8,189.5,468.8,189.5,468.8z"/>
		<path class="st0" d="M194.2,475l0.6-0.9c0.7,0.7,1.6,1.1,2.6,1.1c1.2,0,1.9-0.6,1.9-1.4c0-1.9-5-0.8-5-3.7c0-1.2,1.1-2.3,3-2.3
			c1.1-0.1,2.2,0.4,3,1.2l-0.6,0.9c-0.6-0.7-1.5-1-2.4-1c-1.1,0-1.8,0.5-1.8,1.3c0,1.8,5,0.6,5,3.7c0,1.4-1.1,2.4-3.1,2.4
			C196.3,476.3,195.1,475.9,194.2,475z"/>
		<path class="st0" d="M202,466c0-0.5,0.4-0.8,0.8-0.8c0.5,0,0.8,0.4,0.8,0.8l0,0c0,0.5-0.4,0.8-0.8,0.8S202,466.5,202,466z
			 M202.2,476v-8h1.2v8H202.2z"/>
		<path class="st0" d="M205.5,478.1l0.6-0.9c0.6,0.8,1.6,1.2,2.6,1.1c1.3,0.2,2.4-0.7,2.6-2c0-0.1,0-0.3,0-0.4v-1.1
			c-0.6,0.9-1.6,1.4-2.7,1.4c-2.1,0-3.6-1.6-3.6-4.1s1.5-4.2,3.6-4.2c1.1,0,2.1,0.5,2.7,1.4V468h1.2v7.8c0,2.7-1.9,3.5-3.8,3.5
			C207.5,479.4,206.4,478.9,205.5,478.1z M211.3,473.7v-3.5c-0.5-0.8-1.4-1.3-2.4-1.3c-1.6,0-2.6,1.3-2.6,3s1,3,2.6,3
			C209.9,474.9,210.8,474.5,211.3,473.7L211.3,473.7z"/>
		<path class="st0" d="M220,476v-5.2c0-1.4-0.7-1.9-1.8-1.9c-0.9,0-1.8,0.5-2.4,1.2v5.9h-1.2v-8h1.2v1.2c0.7-0.8,1.8-1.3,2.9-1.4
			c1.2-0.2,2.4,0.7,2.6,1.9c0,0.2,0,0.4,0,0.6v5.6L220,476L220,476z"/>
		<path class="st0" d="M222.9,472c-0.1-2.2,1.6-4.1,3.8-4.2c0.1,0,0.1,0,0.2,0c2.4,0,3.9,1.9,3.9,4.3v0.3h-6.5
			c0,1.6,1.3,2.8,2.9,2.8l0,0c0.9,0,1.8-0.4,2.5-1l0.6,0.8c-0.9,0.8-2,1.3-3.2,1.2c-2.2,0.1-4.1-1.7-4.1-3.9
			C222.9,472.2,222.9,472.1,222.9,472z M226.9,468.8c-1.5,0-2.6,1.2-2.6,2.7h5.3c0-1.4-1.1-2.6-2.5-2.7
			C226.9,468.8,226.9,468.8,226.9,468.8L226.9,468.8z"/>
		<path class="st0" d="M238.1,476v-1.2c-0.6,0.9-1.6,1.4-2.7,1.4c-2.1,0-3.6-1.6-3.6-4.2s1.5-4.2,3.6-4.2c1.1,0,2.1,0.5,2.7,1.4V465
			h1.2v11H238.1z M238.1,473.8v-3.6c-0.5-0.8-1.4-1.3-2.4-1.3c-1.6,0-2.6,1.3-2.6,3.1s1,3.1,2.6,3.1
			C236.6,475.1,237.5,474.6,238.1,473.8L238.1,473.8z"/>
		<path class="st0" d="M245.3,476v-11h1.2v4.3c0.6-0.9,1.6-1.4,2.7-1.4c2.1,0,3.6,1.6,3.6,4.2s-1.5,4.2-3.6,4.2
			c-1.1,0-2.1-0.5-2.7-1.4v1.1L245.3,476L245.3,476z M248.9,475.1c1.6,0,2.6-1.3,2.6-3.1s-1-3.1-2.6-3.1c-1,0-1.8,0.5-2.4,1.3v3.6
			C247.1,474.6,248,475.1,248.9,475.1L248.9,475.1z"/>
		<path class="st0" d="M254.1,478c0.2,0.1,0.4,0.1,0.7,0.1c0.6,0,1.1-0.3,1.2-0.9l0.5-1.2l-3.4-8.1h1.3l2.7,6.6l2.7-6.6h1.4l-4,9.6
			c-0.3,1-1.3,1.7-2.4,1.6c-0.3,0-0.6,0-0.9-0.1L254.1,478z"/>
	</g>
</g>
</svg>
