<?xml version="1.0" encoding="utf-8"?>
<!-- Generator: Adobe Illustrator 26.0.1, SVG Export Plug-In . SVG Version: 6.00 Build 0)  -->
<svg version="1.1" id="Layer_1" xmlns="http://www.w3.org/2000/svg" xmlns:xlink="http://www.w3.org/1999/xlink" x="0px" y="0px"
	 viewBox="0 0 123.3 30" style="enable-background:new 0 0 123.3 30;" xml:space="preserve">
<style type="text/css">
	.st0{fill-rule:evenodd;clip-rule:evenodd;fill:url(#SVGID_1_);}
	.st1{fill:#FFFFFF;}
</style>
<linearGradient id="SVGID_1_" gradientUnits="userSpaceOnUse" x1="26.9594" y1="329.9561" x2="-6.0284" y2="361.2311" gradientTransform="matrix(1 0 0 1 0 -324.252)">
	<stop  offset="0" style="stop-color:#5E2FF4"/>
	<stop  offset="0.1747" style="stop-color:#8CA7FF"/>
	<stop  offset="0.3954" style="stop-color:#E4DAFF"/>
	<stop  offset="0.8444" style="stop-color:#C3B1FE"/>
	<stop  offset="1" style="stop-color:#5E2FF4"/>
</linearGradient>
<path class="st0" d="M5.7,5.4l3.4-2.3c0.3-0.2,0.8-0.2,1.1,0l3.4,2.3C13.9,5.6,14,5.9,14,6.2v3.1c0,0.4-0.2,0.7-0.5,0.9l-3.4,2
	c-0.3,0.2-0.7,0.2-1,0l-3.4-2C5.4,10,5.2,9.7,5.2,9.3v-3C5.3,5.9,5.5,5.6,5.7,5.4z M20.6,3.2l-3.4,2.3c-0.3,0.2-0.4,0.5-0.4,0.8v3.1
	c0,0.4,0.2,0.7,0.5,0.9l3.4,2c0.3,0.2,0.7,0.2,1,0l3.4-2c0.3-0.2,0.5-0.5,0.5-0.9V6.3c0-0.3-0.2-0.6-0.4-0.8l-3.4-2.3
	C21.4,2.9,20.9,2.9,20.6,3.2z M15.3,12l-3.4,2.3c-0.3,0.2-0.4,0.5-0.4,0.8v3.1c0,0.4,0.2,0.7,0.5,0.9l3.4,2c0.3,0.2,0.7,0.2,1,0
	l3.4-2c0.3-0.2,0.5-0.5,0.5-0.9v-3.1c0-0.3-0.2-0.6-0.4-0.8L16.4,12C16.1,11.8,15.6,11.8,15.3,12z M3.8,12l-3.4,2.3
	C0.2,14.4,0,14.8,0,15.1v3.1c0,0.4,0.2,0.7,0.5,0.9l3.4,2c0.3,0.2,0.7,0.2,1,0l3.4-2c0.3-0.2,0.5-0.5,0.5-0.9v-3.1
	c0-0.3-0.2-0.6-0.4-0.8L5,12C4.6,11.8,4.2,11.8,3.8,12z M5.7,23.1l3.4-2.3c0.3-0.2,0.8-0.2,1.1,0l3.4,2.3c0.3,0.2,0.4,0.5,0.4,0.8
	V27c0,0.4-0.2,0.7-0.5,0.9l-3.4,2c-0.3,0.2-0.7,0.2-1,0l-3.4-2c-0.3-0.2-0.5-0.5-0.5-0.9v-3.1C5.3,23.6,5.5,23.3,5.7,23.1z
	 M20.6,20.8l-3.4,2.3c-0.3,0.2-0.4,0.5-0.4,0.8V27c0,0.4,0.2,0.7,0.5,0.9l3.4,2c0.3,0.2,0.7,0.2,1,0l3.4-2c0.3-0.2,0.5-0.5,0.5-0.9
	v-3.1c0-0.3-0.2-0.6-0.4-0.8l-3.4-2.3C21.4,20.6,20.9,20.6,20.6,20.8z M23.3,14.3l3.4-2.3c0.3-0.2,0.8-0.2,1.1,0l3.4,2.3
	c0.3,0.2,0.4,0.5,0.4,0.8v3.1c0,0.4-0.2,0.7-0.5,0.9l-3.4,2c-0.3,0.2-0.7,0.2-1,0l-3.4-2c-0.3-0.2-0.5-0.5-0.5-0.9v-3.1
	C22.9,14.8,23.1,14.4,23.3,14.3z"/>
<g>
	<g>
		<path class="st1" d="M38.6,4.2h3l5.2,14.7l-0.4,0.6V4.2h3.4v22h-3l-5.1-13.8l0.4-0.6v14.4h-3.4V4.2z"/>
		<path class="st1" d="M54.5,25.9c-0.7-0.4-1.3-0.9-1.7-1.6s-0.6-1.6-0.6-2.6v-6.3c0-1.1,0.2-2,0.6-2.8c0.4-0.8,0.9-1.3,1.7-1.7
			c0.7-0.4,1.6-0.6,2.6-0.6c1,0,1.9,0.2,2.7,0.6c0.7,0.4,1.3,1,1.7,1.7c0.4,0.7,0.6,1.6,0.6,2.7v4.5h-6.7v-2.7h3.1V15
			c0-0.5-0.1-0.8-0.3-1.1c-0.2-0.3-0.5-0.4-0.9-0.4c-0.4,0-0.7,0.1-0.9,0.4c-0.2,0.3-0.3,0.7-0.3,1.2v6.6c0,0.4,0.1,0.8,0.3,1
			c0.2,0.2,0.6,0.3,1,0.3c0.4,0,0.7-0.1,0.9-0.3c0.2-0.2,0.3-0.5,0.3-0.8v-0.5l3.6,0v0.4c0,1.4-0.4,2.6-1.3,3.4s-2,1.2-3.6,1.2
			C56.2,26.4,55.3,26.2,54.5,25.9z"/>
		<path class="st1" d="M68.4,17.5l1.7,3l-2.5,5.7h-3.9L68.4,17.5z M68.1,19.1L64,10.5h3.9l2.8,7l4.6,8.7h-3.9L68.1,19.1z M69.1,15.9
			l2.1-5.4h3.9L70.6,19L69.1,15.9z"/>
		<path class="st1" d="M82.7,4.2h2.9L88,19.5l1.1-15.3h3.8l-2.8,22h-3.6L84.2,12l-2.4,14.2h-3.6l-2.8-22h3.8l1.1,15.3L82.7,4.2z"/>
		<path class="st1" d="M94.1,4.2h3.8v3.7h-3.8V4.2z M94.1,10.5h3.8v15.7h-3.8V10.5z"/>
		<path class="st1" d="M102.1,25.8c-0.7-0.4-1.3-1-1.7-1.7c-0.4-0.7-0.6-1.6-0.6-2.5v-0.3l3.5,0v0.2c0,0.4,0.1,0.8,0.4,1.1
			c0.3,0.3,0.6,0.4,1,0.4s0.8-0.1,1-0.4c0.3-0.3,0.4-0.6,0.4-1c0-0.3-0.1-0.6-0.3-0.8c-0.2-0.2-0.4-0.4-0.7-0.6s-0.7-0.3-1.2-0.5
			c-0.1,0-0.2-0.1-0.3-0.1s-0.2-0.1-0.3-0.1c0,0,0,0-0.1,0s-0.1,0-0.1,0c-0.6-0.3-1.2-0.6-1.6-0.9c-0.5-0.4-0.9-0.8-1.2-1.4
			s-0.5-1.3-0.5-2.2c0-0.9,0.2-1.7,0.6-2.4c0.4-0.7,0.9-1.3,1.6-1.6c0.7-0.4,1.5-0.6,2.4-0.6c0.9,0,1.7,0.2,2.4,0.6
			c0.7,0.4,1.2,0.9,1.6,1.6c0.4,0.7,0.6,1.5,0.6,2.4v0.3l-3.5,0v-0.3c0-0.4-0.1-0.7-0.3-0.9c-0.2-0.2-0.5-0.3-0.8-0.3
			c-0.3,0-0.6,0.1-0.8,0.4s-0.3,0.6-0.3,0.9c0,0.4,0.1,0.7,0.3,0.9c0.2,0.2,0.5,0.4,0.8,0.6c0.3,0.2,0.7,0.3,1.3,0.5c0,0,0,0,0.1,0
			c0,0,0,0,0.1,0c0,0,0,0,0.1,0c0,0,0,0,0.1,0c0.7,0.3,1.3,0.5,1.8,0.8s0.9,0.8,1.2,1.4c0.3,0.6,0.5,1.4,0.5,2.5
			c0,0.9-0.2,1.8-0.6,2.5c-0.4,0.7-1,1.3-1.7,1.7s-1.6,0.6-2.6,0.6C103.7,26.4,102.8,26.2,102.1,25.8z"/>
		<path class="st1" d="M113.6,25.9c-0.7-0.4-1.3-0.9-1.7-1.6s-0.6-1.6-0.6-2.6v-6.3c0-1.1,0.2-2,0.6-2.8c0.4-0.8,0.9-1.3,1.7-1.7
			c0.7-0.4,1.6-0.6,2.6-0.6c1,0,1.9,0.2,2.7,0.6c0.7,0.4,1.3,1,1.7,1.7c0.4,0.7,0.6,1.6,0.6,2.7v4.5h-6.7v-2.7h3.1V15
			c0-0.5-0.1-0.8-0.3-1.1c-0.2-0.3-0.5-0.4-0.9-0.4c-0.4,0-0.7,0.1-0.9,0.4c-0.2,0.3-0.3,0.7-0.3,1.2v6.6c0,0.4,0.1,0.8,0.3,1
			c0.2,0.2,0.6,0.3,1,0.3c0.4,0,0.7-0.1,0.9-0.3c0.2-0.2,0.3-0.5,0.3-0.8v-0.5l3.6,0v0.4c0,1.4-0.4,2.6-1.3,3.4s-2,1.2-3.6,1.2
			C115.3,26.4,114.4,26.2,113.6,25.9z"/>
	</g>
</g>
</svg>
