<?xml version="1.0" encoding="utf-8"?>
<!-- Generator: Adobe Illustrator 26.0.1, SVG Export Plug-In . SVG Version: 6.00 Build 0)  -->
<svg version="1.1" id="Layer_1" xmlns="http://www.w3.org/2000/svg" xmlns:xlink="http://www.w3.org/1999/xlink" x="0px" y="0px"
	 viewBox="0 0 77.9 44.9" style="enable-background:new 0 0 77.9 44.9;" xml:space="preserve">
<style type="text/css">
	.st0{fill:#FFFFFF;}
</style>
<g>
	<g transform="translate(134.851878, 215.146671)">
		<g>
			<path class="st0" d="M-124.1-176h1v-7h0l5.3,7h1.3v-8.1h-1v7h0l-5.3-7h-1.3V-176z"/>
		</g>
	</g>
</g>
<g>
	<g transform="translate(152.108751, 215.146671)">
		<g>
			<path class="st0" d="M-128.4-175.8c1.5,0,2.9-0.6,3.4-1.5l-0.6-0.5c-0.5,0.7-1.6,1.2-2.8,1.2c-1.5,0-2.7-0.8-2.9-2h6
				c0-0.1,0-0.3,0-0.4c0-1.8-1.4-3.1-3.4-3.1c-2.1,0-3.5,1.3-3.5,3.1C-132.2-177.1-130.6-175.8-128.4-175.8z M-131.2-179.4
				c0.1-1.1,1.2-1.9,2.5-1.9c1.4,0,2.4,0.7,2.5,1.9H-131.2z"/>
		</g>
	</g>
</g>
<g>
	<g transform="translate(167.616783, 215.146671)">
		<g>
			<path class="st0" d="M-139.5-176h1.1l2.1-2.5l2.1,2.5h1.1l-2.7-3l2.6-2.8h-1.1l-2,2.3l-2-2.3h-1.1l2.6,2.8L-139.5-176z"/>
		</g>
	</g>
</g>
<g>
	<g transform="translate(180.891354, 215.146671)">
		<g>
			<path class="st0" d="M-142.5-176h1.4l2.5-7.2h0l2.4,7.2h1.4l3-8.1h-1l-2.6,7.2h0l-2.4-7.2h-1.5l-2.4,7.2h0l-2.7-7.2h-1
				L-142.5-176z"/>
		</g>
	</g>
</g>
<g>
	<g transform="translate(207.082061, 215.146671)">
		<g>
			<path class="st0" d="M-156.4-183c0.4,0,0.7-0.3,0.7-0.6c0-0.4-0.3-0.6-0.7-0.6c-0.4,0-0.6,0.3-0.6,0.6
				C-157.1-183.2-156.8-183-156.4-183z M-156.9-176h0.9v-5.8h-0.9V-176z"/>
		</g>
	</g>
</g>
<g>
	<g transform="translate(212.09705, 215.146671)">
		<g>
			<path class="st0" d="M-156-175.8c1.6,0,2.9-0.8,2.9-1.9c0-1-0.9-1.4-2.2-1.6l-1.3-0.2c-1-0.1-1.4-0.4-1.4-0.8c0-0.5,0.7-1,1.7-1
				c1,0,1.8,0.5,2.1,1.1l0.8-0.4c-0.3-0.9-1.5-1.5-2.8-1.5c-1.5,0-2.6,0.7-2.6,1.8c0,1,0.8,1.4,2.1,1.6l1.3,0.2
				c1.1,0.2,1.6,0.4,1.6,0.9c0,0.6-0.9,1-2,1c-1.4,0-2.5-0.6-2.6-1.5l-0.8,0.3C-159.3-176.6-157.8-175.8-156-175.8z"/>
		</g>
	</g>
</g>
<g>
	<g transform="translate(225.708749, 215.146671)">
		<g>
			<path class="st0" d="M-161.8-175.8c1.5,0,2.9-0.6,3.4-1.5l-0.6-0.5c-0.5,0.7-1.6,1.2-2.8,1.2c-1.5,0-2.7-0.8-2.9-2h6
				c0-0.1,0-0.3,0-0.4c0-1.8-1.4-3.1-3.4-3.1c-2.1,0-3.5,1.3-3.5,3.1C-165.6-177.1-164-175.8-161.8-175.8z M-164.6-179.4
				c0.1-1.1,1.2-1.9,2.5-1.9c1.4,0,2.4,0.7,2.5,1.9H-164.6z"/>
		</g>
	</g>
</g>
<g>
	<path class="st0" d="M42.5,11.9c0.3,0.8,0.7,1.6,1,2.4c0.7,1.7,1.4,3.3,2.1,5c0.3,0.8,0.9,1.1,1.8,1.1c0.8,0,1.5-0.4,1.8-1.1
		c0.7-1.7,1.4-3.4,2-5.1c0.9-2.2,1.7-4.4,2.7-6.6c0.9-2.2,3.3-3.5,5.7-3.2c2.2,0.3,3.6,1.5,4.5,3.4c1.2,2.6,2.4,5.2,3.6,7.7
		c0.1,0.3,0.3,0.6,0.4,0.8c0,0,0.1,0,0.1,0c0.1-0.3,0.3-0.6,0.4-0.8c1.1-2.6,2.2-5.1,3.3-7.7c0.6-1.3,1.2-2.5,2.1-3.6
		c0.5-0.6,1.1-1,1.9-0.9c1.2,0.1,1.9,1.4,1.4,2.5c-1.7,3.9-3.3,7.7-5,11.6c-0.7,1.6-1.4,3.2-2.2,4.9c-0.4,0.8-1,1.3-1.9,1.3
		c-1.3,0-1.9-0.4-2.5-1.6c-1.4-2.9-2.7-5.9-4.1-8.8c-0.6-1.3-1.2-2.5-1.8-3.8c-0.3-0.6-0.6-0.8-1.1-0.8c-0.4,0-0.7,0.2-0.8,0.6
		c-0.9,2.2-1.7,4.3-2.6,6.5c-0.7,1.8-1.4,3.6-2.2,5.3c-1,2.2-3.5,3.7-6,3.5c-2.7-0.2-4.6-1.5-5.7-3.9c-0.9-2-1.7-4-2.5-6
		c-0.1-0.2-0.1-0.4,0.2-0.5c1.1-0.7,2.2-1.5,3.2-2.2C42.3,12,42.4,12,42.5,11.9z"/>
	<path class="st0" d="M37.5,11.3c-0.4-0.7-0.7-1.5-1.2-2.2c-0.3-0.5-0.7-1-1.1-1.5c-0.5-0.6-1-0.6-1.5,0c-0.5,0.6-1,1.2-1.3,1.9
		c-0.8,1.7-1.4,3.4-2.1,5.2c-0.9,2.1-1.7,4.3-2.6,6.4c-0.9,2-3,3.6-6,3.3c-2.1-0.2-4.1-1.6-4.9-3.9c-0.8-2-1.5-4-2.3-6.1
		c-0.7-1.7-1.3-3.5-2-5.2c-0.2-0.4-0.4-0.7-0.9-0.8c-0.5,0-0.8,0.2-1,0.7c-0.1,0.2-0.2,0.5-0.3,0.7c-1.6,3.7-3.3,7.3-4.9,11
		c-0.4,0.9-0.8,1.9-1.5,2.7c-0.3,0.4-0.7,0.7-1.2,0.9c-0.6,0.3-1.2,0.1-1.8-0.2c-0.6-0.4-0.6-0.9-0.5-1.5c0-0.9,0.3-1.7,0.7-2.4
		c1.4-3.1,2.8-6.3,4.2-9.4c0.6-1.4,1.1-2.7,1.8-4c0.9-1.7,2.4-2.6,4.4-2.6c2,0,3.5,0.9,4.4,2.6c0.5,0.9,0.8,1.8,1.1,2.8
		c1,2.6,2,5.3,3,7.9c0.2,0.5,0.4,1,0.6,1.5c0.3,0.7,1,1.2,1.7,1.2c0.7,0,1.4-0.5,1.7-1.2c1.3-3.3,2.6-6.7,4-10
		C28.5,8,29,6.9,29.6,5.9c0.9-1.5,2.4-2.1,4-2.4c1.2-0.2,2.4-0.2,3.5,0.3c1.5,0.7,2.6,1.8,3.2,3.3c0.2,0.5,0.4,1,0.7,1.5
		C41.1,8.8,41.2,8.9,41,9C39.8,9.8,38.7,10.6,37.5,11.3C37.6,11.3,37.5,11.3,37.5,11.3z"/>
</g>
</svg>
