<?xml version="1.0" encoding="utf-8"?>
<!-- Generator: Adobe Illustrator 26.0.1, SVG Export Plug-In . SVG Version: 6.00 Build 0)  -->
<svg version="1.1" id="Layer_1" xmlns="http://www.w3.org/2000/svg" xmlns:xlink="http://www.w3.org/1999/xlink" x="0px" y="0px"
	 viewBox="0 0 83.1 30" style="enable-background:new 0 0 83.1 30;" xml:space="preserve">
<style type="text/css">
	.st0{fill:#FFFFFF;}
</style>
<g>
	<g>
		<path class="st0" d="M0.2,3.8h3l5.2,14.7L8,19.1V3.8h3.4v22h-3L3.3,12l0.4-0.6v14.4H0.3v-22H0.2z"/>
		<path class="st0" d="M16.1,25.5c-0.7-0.4-1.3-0.9-1.7-1.6s-0.6-1.6-0.6-2.6V15c0-1.1,0.2-2,0.6-2.8c0.4-0.8,0.9-1.3,1.7-1.7
			c0.7-0.4,1.6-0.6,2.6-0.6s1.9,0.2,2.7,0.6c0.7,0.4,1.3,1,1.7,1.7c0.4,0.7,0.6,1.6,0.6,2.7v4.5H17v-2.7h3.1v-2.1
			c0-0.5-0.1-0.8-0.3-1.1c-0.2-0.3-0.5-0.4-0.9-0.4s-0.7,0.1-0.9,0.4c-0.2,0.3-0.3,0.7-0.3,1.2v6.6c0,0.4,0.1,0.8,0.3,1
			s0.6,0.3,1,0.3s0.7-0.1,0.9-0.3c0.2-0.2,0.3-0.5,0.3-0.8V21h3.6v0.4c0,1.4-0.4,2.6-1.3,3.4s-2,1.2-3.6,1.2
			C17.8,26,16.9,25.8,16.1,25.5z"/>
		<path class="st0" d="M30,17.1l1.7,3l-2.5,5.7h-3.9L30,17.1z M29.7,18.7l-4.1-8.6h3.9l2.8,7l4.6,8.7H33L29.7,18.7z M30.7,15.5
			l2.1-5.4h3.9l-4.5,8.5L30.7,15.5z"/>
		<path class="st0" d="M44.3,3.8h2.9l2.4,15.3l1.1-15.3h3.8l-2.8,22h-3.6l-2.3-14.2l-2.4,14.2h-3.6L37,3.8h3.8l1.1,15.3L44.3,3.8z"
			/>
		<path class="st0" d="M55.7,3.8h3.8v3.7h-3.8V3.8z M55.7,10.1h3.8v15.7h-3.8V10.1z"/>
		<path class="st0" d="M63.7,25.4c-0.7-0.4-1.3-1-1.7-1.7c-0.4-0.7-0.6-1.6-0.6-2.5v-0.3h3.5v0.2c0,0.4,0.1,0.8,0.4,1.1
			c0.3,0.3,0.6,0.4,1,0.4s0.8-0.1,1-0.4c0.3-0.3,0.4-0.6,0.4-1c0-0.3-0.1-0.6-0.3-0.8c-0.2-0.2-0.4-0.4-0.7-0.6s-0.7-0.3-1.2-0.5
			c-0.1,0-0.2-0.1-0.3-0.1s-0.2-0.1-0.3-0.1c0,0,0,0-0.1,0s-0.1,0-0.1,0c-0.6-0.3-1.2-0.6-1.6-0.9c-0.5-0.4-0.9-0.8-1.2-1.4
			s-0.5-1.3-0.5-2.2s0.2-1.7,0.6-2.4c0.4-0.7,0.9-1.3,1.6-1.6c0.7-0.4,1.5-0.6,2.4-0.6s1.7,0.2,2.4,0.6c0.7,0.4,1.2,0.9,1.6,1.6
			s0.6,1.5,0.6,2.4v0.3h-3.5v-0.3c0-0.4-0.1-0.7-0.3-0.9c-0.2-0.2-0.5-0.3-0.8-0.3s-0.6,0.1-0.8,0.4s-0.3,0.6-0.3,0.9
			c0,0.4,0.1,0.7,0.3,0.9c0.2,0.2,0.5,0.4,0.8,0.6c0.3,0.2,0.7,0.3,1.3,0.5c0,0,0,0,0.1,0c0,0,0,0,0.1,0c0,0,0,0,0.1,0
			c0,0,0,0,0.1,0c0.7,0.3,1.3,0.5,1.8,0.8s0.9,0.8,1.2,1.4c0.3,0.6,0.5,1.4,0.5,2.5c0,0.9-0.2,1.8-0.6,2.5s-1,1.3-1.7,1.7
			s-1.6,0.6-2.6,0.6C65.3,26,64.4,25.8,63.7,25.4z"/>
		<path class="st0" d="M75.2,25.5c-0.7-0.4-1.3-0.9-1.7-1.6s-0.6-1.6-0.6-2.6V15c0-1.1,0.2-2,0.6-2.8c0.4-0.8,0.9-1.3,1.7-1.7
			c0.7-0.4,1.6-0.6,2.6-0.6s1.9,0.2,2.7,0.6c0.7,0.4,1.3,1,1.7,1.7c0.4,0.7,0.6,1.6,0.6,2.7v4.5h-6.7v-2.7h3.1v-2.1
			c0-0.5-0.1-0.8-0.3-1.1c-0.2-0.3-0.5-0.4-0.9-0.4s-0.7,0.1-0.9,0.4c-0.2,0.3-0.3,0.7-0.3,1.2v6.6c0,0.4,0.1,0.8,0.3,1
			c0.2,0.2,0.6,0.3,1,0.3s0.7-0.1,0.9-0.3c0.2-0.2,0.3-0.5,0.3-0.8V21h3.6v0.4c0,1.4-0.4,2.6-1.3,3.4S79.6,26,78,26
			C76.9,26,76,25.8,75.2,25.5z"/>
	</g>
</g>
</svg>
