<?xml version="1.0" standalone="no"?>
<!DOCTYPE svg PUBLIC "-//W3C//DTD SVG 1.1//EN" "http://www.w3.org/Graphics/SVG/1.1/DTD/svg11.dtd" >
<svg xmlns="http://www.w3.org/2000/svg" xmlns:xlink="http://www.w3.org/1999/xlink" version="1.1">
<metadata>
Created by FontForge 20190801 at Tue May 12 11:22:03 2020
 By Unknown
Copyright (c) 2020, wep (Wahyu Eka Prasetya)
</metadata>
<defs>
<font id="aAstroSpace" horiz-adv-x="300" >
  <font-face 
    font-family="a Astro Space"
    font-weight="400"
    font-stretch="normal"
    units-per-em="1000"
    panose-1="2 0 5 3 0 0 0 0 0 0"
    ascent="800"
    descent="-200"
    x-height="742"
    cap-height="742"
    bbox="-59 -180 970 782"
    underline-thickness="50"
    underline-position="-100"
    unicode-range="U+0020-007E"
  />
<missing-glyph horiz-adv-x="733" 
d="M42 383q0 133 95 228t228 95t228 -95t95 -228t-95 -228t-228 -95t-228 95t-95 228zM543 430h49q34 0 34 -31v-7q0 -31 -34 -31h-26l-20 -32h46q31 0 51 17t20 46v7q0 29 -20 46t-51 17h-51q-15 0 -25 -9.5t-10 -23.5v-153h37v154zM366 352h88v32h-88v46h95l18 32h-116
q-15 0 -25 -9.5t-10 -23.5v-120q0 -14 10 -23.5t25 -9.5h116l-18 33h-95v43zM124 315l-14 147h-40l17 -155q1 -15 11.5 -23.5t23.5 -8.5q21 0 29 20l35 101l34 -101q8 -20 30 -20q31 0 34 32l17 155h-40l-14 -147l-42 120h-39z" />
    <glyph glyph-name=".notdef" horiz-adv-x="733" 
d="M42 383q0 133 95 228t228 95t228 -95t95 -228t-95 -228t-228 -95t-228 95t-95 228zM543 430h49q34 0 34 -31v-7q0 -31 -34 -31h-26l-20 -32h46q31 0 51 17t20 46v7q0 29 -20 46t-51 17h-51q-15 0 -25 -9.5t-10 -23.5v-153h37v154zM366 352h88v32h-88v46h95l18 32h-116
q-15 0 -25 -9.5t-10 -23.5v-120q0 -14 10 -23.5t25 -9.5h116l-18 33h-95v43zM124 315l-14 147h-40l17 -155q1 -15 11.5 -23.5t23.5 -8.5q21 0 29 20l35 101l34 -101q8 -20 30 -20q31 0 34 32l17 155h-40l-14 -147l-42 120h-39z" />
    <glyph glyph-name=".null" horiz-adv-x="0" 
 />
    <glyph glyph-name="nonmarkingreturn" horiz-adv-x="333" 
 />
    <glyph glyph-name="space" unicode=" " 
 />
    <glyph glyph-name="exclam" unicode="!" horiz-adv-x="295" 
d="M72 742h150l-15 -572h-120zM53 41q0 38 27.5 65.5t65.5 27.5t65.5 -27.5t27.5 -65.5t-27.5 -65.5t-65.5 -27.5t-65.5 27.5t-27.5 65.5z" />
    <glyph glyph-name="quotedbl" unicode="&#x22;" horiz-adv-x="513" 
d="M291 742h150l-15 -242h-120zM71 742h150l-15 -242h-120z" />
    <glyph glyph-name="numbersign" unicode="#" horiz-adv-x="766" 
d="M212 193l-109 -193h-110l109 193h-77v129h150l52 91h-72v129h145l113 200h110l-113 -200h120l113 200h110l-113 -200h82v-129h-155l-52 -91h77v-129h-150l-109 -193h-110l109 193h-120zM285 322h120l52 91h-120z" />
    <glyph glyph-name="dollar" unicode="$" horiz-adv-x="687" 
d="M306 782h70v-40h39q60 0 128 -22.5t104 -58.5l-130 -100q-17 24 -45.5 38t-56.5 14h-39v-178q49 -13 80.5 -23t73.5 -29.5t66.5 -41t42.5 -55t18 -74.5q0 -86 -82.5 -148t-198.5 -64v-40h-70v40h-36q-62 0 -133.5 22.5t-108.5 58.5l129 100q18 -24 50 -38t63 -14h36v188
q-47 12 -78 22t-70.5 28t-63 39t-40 53t-16.5 71q0 86 78 147.5t190 64.5v40zM306 613q-50 -2 -84 -26t-34 -57q0 -26 30 -43.5t88 -33.5v160zM376 129q55 2 93 25.5t38 57.5q0 31 -33.5 50.5t-97.5 36.5v-170z" />
    <glyph glyph-name="percent" unicode="%" horiz-adv-x="843" 
d="M641 742h110l-541 -742h-110zM214 361h-24q-59 0 -101.5 41.5t-42.5 99.5v99q0 58 42.5 99.5t101.5 41.5h24q59 0 101.5 -41.5t42.5 -99.5v-99q0 -58 -42.5 -99.5t-101.5 -41.5zM192 451h20q23 0 39 18t16 43v79q0 25 -16 43t-39 18h-20q-23 0 -39 -18t-16 -43v-79
q0 -25 16 -43t39 -18zM670 0h-26q-59 0 -101 41.5t-42 99.5v99q0 58 42 99.5t101 41.5h26q59 0 101 -41.5t42 -99.5v-99q0 -58 -42 -99.5t-101 -41.5zM647 90h20q23 0 39 18t16 43v79q0 25 -16 43t-39 18h-20q-23 0 -39 -18t-16 -43v-79q0 -25 16 -43t39 -18z" />
    <glyph glyph-name="ampersand" unicode="&#x26;" horiz-adv-x="761" 
d="M394 129q64 0 100 26.5t36 63.5t-36 64t-100 27h-83q-64 0 -100 -27t-36 -64t36 -63.5t100 -26.5h83zM394 0h-83q-133 0 -207.5 62t-74.5 147q0 52 29 98t85 75q-74 60 -74 154q0 84 64 145t178 61h83q62 0 133.5 -22.5t108.5 -58.5l-130 -100q-18 24 -49.5 38t-62.5 14
h-83q-45 0 -70.5 -25.5t-25.5 -61.5q0 -35 25.5 -61t70.5 -26h453l-80 -129h-39q31 -46 31 -101q0 -85 -74.5 -147t-207.5 -62z" />
    <glyph glyph-name="quotesingle" unicode="'" horiz-adv-x="240" 
d="M44 742h150l-15 -242h-120z" />
    <glyph glyph-name="parenleft" unicode="(" horiz-adv-x="378" 
d="M356 643q-49 0 -85.5 -50t-53 -125t-16.5 -163t16.5 -163t53 -125t85.5 -50v-129q-75 0 -135.5 40t-97.5 106.5t-57 148.5t-20 172q0 89 20 171.5t57 149t97.5 106.5t135.5 40v-129z" />
    <glyph glyph-name="parenright" unicode=")" horiz-adv-x="366" 
d="M16 -33q49 0 85.5 50t53 125t16.5 163t-16.5 163t-53 125t-85.5 50v129q75 0 135.5 -40t97.5 -106.5t57 -148.5t20 -172q0 -89 -20 -171.5t-57 -149t-97.5 -106.5t-135.5 -40v129z" />
    <glyph glyph-name="asterisk" unicode="*" horiz-adv-x="561" 
d="M209 742h150l-9 -147l138 55l47 -142l-152 -40l100 -121l-121 -88l-81 127l-77 -122l-122 89l90 108l-147 38l46 143l148 -58z" />
    <glyph glyph-name="plus" unicode="+" horiz-adv-x="453" 
d="M166 303h-129v129h129v129h129v-129h129v-129h-129v-129h-129v129z" />
    <glyph glyph-name="comma" unicode="," horiz-adv-x="260" 
d="M29 41q0 38 27.5 65.5t65.5 27.5t65.5 -27.5t27.5 -65.5q0 -34 -19.5 -69.5t-56 -79t-43.5 -54.5h-60l36 125q-43 28 -43 78z" />
    <glyph glyph-name="hyphen" unicode="-" horiz-adv-x="489" 
d="M55 303v129h387v-129h-387z" />
    <glyph glyph-name="period" unicode="." horiz-adv-x="255" 
d="M25 41q0 38 27.5 65.5t65.5 27.5t65.5 -27.5t27.5 -65.5t-27.5 -65.5t-65.5 -27.5t-65.5 27.5t-27.5 65.5z" />
    <glyph glyph-name="slash" unicode="/" horiz-adv-x="487" 
d="M411 742h110l-470 -742h-110z" />
    <glyph glyph-name="zero" unicode="0" horiz-adv-x="744" 
d="M406 -10h-50q-119 0 -203 82.5t-84 199.5v198q0 117 84 199.5t203 82.5h50q119 0 203 -82.5t84 -199.5v-198q0 -117 -84 -199.5t-203 -82.5zM356 119h50q57 0 97 45t40 108v198q0 63 -40 108t-97 45h-50q-57 0 -97 -45t-40 -108v-198q0 -63 40 -108t97 -45z" />
    <glyph glyph-name="one" unicode="1" 
d="M75 742h150v-742h-150v742z" />
    <glyph glyph-name="two" unicode="2" horiz-adv-x="684" 
d="M650 530q0 -52 -24 -91.5t-62 -62.5t-84 -40.5t-92.5 -30t-84.5 -25.5t-62 -32t-24 -46v-73h363l70 -129h-442q-58 0 -99.5 38.5t-41.5 92.5v71q0 61 32 105.5t80 68t104.5 43t104.5 31.5t80 32.5t32 47.5q0 35 -34 59t-83 24h-100q-28 0 -57 -14t-46 -38l-129 100
q36 36 104 58.5t128 22.5h100q110 0 188.5 -62t78.5 -150z" />
    <glyph glyph-name="three" unicode="3" horiz-adv-x="668" 
d="M344 0h-83q-62 0 -133.5 22.5t-108.5 58.5l129 100q18 -24 50 -38t63 -14h83q64 0 100 26.5t36 63.5t-36 64t-100 27h-183l80 129h103q45 0 70.5 26t25.5 61q0 36 -25.5 61.5t-70.5 25.5h-83q-31 0 -63 -14t-50 -38l-129 100q37 36 108.5 58.5t133.5 22.5h83
q114 0 178 -61t64 -145q0 -94 -74 -154q56 -29 85 -75t29 -98q0 -85 -74.5 -147t-207.5 -62z" />
    <glyph glyph-name="four" unicode="4" horiz-adv-x="669" 
d="M377 742h200v-514h62l-62 -100v-128h-150v99h-266q-60 0 -87.5 30t-27.5 78q0 71 50 140zM427 228v345l-235 -345h235z" />
    <glyph glyph-name="five" unicode="5" horiz-adv-x="699" 
d="M372 129q63 0 98 32t35 75q0 44 -35 75.5t-98 31.5h-100q-31 0 -63 -14t-50 -38l-95 69v251q0 54 41.5 92.5t99.5 38.5h432l-70 -129h-353v-150q30 9 58 9h100q132 0 205.5 -70t73.5 -166t-73.5 -166t-205.5 -70h-100q-62 0 -133.5 22.5t-108.5 58.5l129 100
q18 -24 50 -38t63 -14h100z" />
    <glyph glyph-name="six" unicode="6" horiz-adv-x="774" 
d="M218 460v-52q88 44 187 44h50q132 0 205.5 -67t73.5 -159t-73.5 -159t-205.5 -67h-100q-119 0 -203 82.5t-84 199.5v178q0 117 84 199.5t203 82.5h100q62 0 133.5 -22.5t108.5 -58.5l-130 -100q-18 24 -49.5 38t-62.5 14h-100q-57 0 -97 -45t-40 -108zM218 329v-47
q0 -63 40 -108t97 -45h100q63 0 98 29t35 68q0 40 -35 68.5t-98 28.5h-50q-31 0 -62.5 -14t-49.5 -38z" />
    <glyph glyph-name="seven" unicode="7" horiz-adv-x="605" 
d="M242 0h-165l350 613h-367l-80 129h478q110 0 110 -100q0 -68 -45 -148z" />
    <glyph glyph-name="eight" unicode="8" horiz-adv-x="749" 
d="M425 0h-83q-133 0 -207.5 62t-74.5 147q0 52 29 98t85 75q-74 60 -74 154q0 84 64 145t178 61h83q114 0 178 -61t64 -145q0 -94 -74 -154q56 -29 85 -75t29 -98q0 -85 -74.5 -147t-207.5 -62zM425 129q64 0 100 26.5t36 63.5t-36 64t-100 27h-83q-64 0 -100 -27t-36 -64
t36 -63.5t100 -26.5h83zM425 613h-83q-45 0 -70.5 -25.5t-25.5 -61.5q0 -35 25.5 -61t70.5 -26h83q45 0 70.5 26t25.5 61q0 36 -25.5 61.5t-70.5 25.5z" />
    <glyph glyph-name="nine" unicode="9" horiz-adv-x="756" 
d="M557 282v52q-88 -44 -187 -44h-50q-132 0 -205.5 67t-73.5 159t73.5 159t205.5 67h100q119 0 203 -82.5t84 -199.5v-178q0 -117 -84 -199.5t-203 -82.5h-100q-62 0 -133.5 22.5t-108.5 58.5l130 100q18 -24 49.5 -38t62.5 -14h100q57 0 97 45t40 108zM557 413v47
q0 63 -40 108t-97 45h-100q-63 0 -98 -29t-35 -68q0 -40 35 -68.5t98 -28.5h50q31 0 62.5 14t49.5 38z" />
    <glyph glyph-name="colon" unicode=":" horiz-adv-x="329" 
d="M72 451q0 38 27.5 65.5t65.5 27.5t65.5 -27.5t27.5 -65.5t-27.5 -65.5t-65.5 -27.5t-65.5 27.5t-27.5 65.5zM72 41q0 38 27.5 65.5t65.5 27.5t65.5 -27.5t27.5 -65.5t-27.5 -65.5t-65.5 -27.5t-65.5 27.5t-27.5 65.5z" />
    <glyph glyph-name="semicolon" unicode=";" horiz-adv-x="328" 
d="M69 451q0 38 27.5 65.5t65.5 27.5t65.5 -27.5t27.5 -65.5t-27.5 -65.5t-65.5 -27.5t-65.5 27.5t-27.5 65.5zM73 41q0 38 27.5 65.5t65.5 27.5t65.5 -27.5t27.5 -65.5q0 -34 -19.5 -69.5t-56 -79t-43.5 -54.5h-60l36 125q-43 28 -43 78z" />
    <glyph glyph-name="less" unicode="&#x3c;" horiz-adv-x="436" 
d="M193 370l195 -91v-162l-310 150q-65 32 -65 103t65 103l310 150v-162z" />
    <glyph glyph-name="equal" unicode="=" horiz-adv-x="601" 
d="M60 413v129h487v-129h-487zM60 193v129h487v-129h-487z" />
    <glyph glyph-name="greater" unicode="&#x3e;" horiz-adv-x="427" 
d="M244 370l-195 91v162l310 -150q65 -32 65 -103t-65 -103l-310 -150v162z" />
    <glyph glyph-name="question" unicode="?" horiz-adv-x="588" 
d="M573 530q0 -53 -21 -91.5t-52.5 -57.5t-68 -35.5t-68 -27.5t-52.5 -30t-21 -46v-72h-150v72q0 63 29 106t71 64t83.5 36.5t70.5 34.5t29 47q0 35 -34 59t-83 24h-100q-28 0 -57 -14t-46 -38l-129 100q36 36 104 58.5t128 22.5h100q110 0 188.5 -62t78.5 -150zM125 41
q0 38 27.5 65.5t65.5 27.5t65.5 -27.5t27.5 -65.5t-27.5 -65.5t-65.5 -27.5t-65.5 27.5t-27.5 65.5z" />
    <glyph glyph-name="at" unicode="@" horiz-adv-x="875" 
d="M435 164q-70 0 -120.5 46.5t-50.5 115.5v90q0 69 50.5 115.5t120.5 46.5q36 0 74 -34v24h119v-328q40 4 67 44.5t27 96.5v110q0 77 -58.5 131t-140.5 54h-145q-82 0 -140.5 -54t-58.5 -131v-240q0 -45 49 -86.5t99 -67.5t51 -31l12 -76q-143 0 -243.5 82.5t-100.5 199.5
v198q0 117 100.5 199.5t243.5 82.5h120q143 0 244 -82.5t101 -199.5v-68q0 -93 -65.5 -161.5t-161.5 -76.5h-109l-10 34q-38 -34 -74 -34zM383 416v-90q0 -23 14 -38.5t33 -15.5h50q13 0 29 9v180q-16 9 -29 9h-50q-19 0 -33 -15.5t-14 -38.5z" />
    <glyph glyph-name="A" unicode="A" horiz-adv-x="753" 
d="M540 99h-325l80 129h200l-127 364l-207 -592h-160l218 621q46 131 149 131t149 -131l218 -621h-160z" />
    <glyph glyph-name="B" unicode="B" horiz-adv-x="734" 
d="M576 382q56 -29 85 -75t29 -98q0 -85 -74.5 -147t-207.5 -62h-343v611q0 54 41.5 92.5t99.5 38.5h202q114 0 178 -61t64 -145q0 -94 -74 -154zM305 439h103q45 0 70.5 26t25.5 61q0 36 -25.5 61.5t-70.5 25.5h-193v-484h193q64 0 100 26.5t36 63.5t-36 64t-100 27h-183z
" />
    <glyph glyph-name="C" unicode="C" horiz-adv-x="706" 
d="M183 460v-178q0 -63 40 -108t97 -45h100q31 0 62.5 14t49.5 38l130 -100q-37 -36 -108.5 -58.5t-133.5 -22.5h-100q-119 0 -203 82.5t-84 199.5v178q0 117 84 199.5t203 82.5h100q62 0 133.5 -22.5t108.5 -58.5l-130 -100q-18 24 -49.5 38t-62.5 14h-100q-57 0 -97 -45
t-40 -108z" />
    <glyph glyph-name="D" unicode="D" horiz-adv-x="747" 
d="M545 282v178q0 63 -40 108t-97 45h-193v-484h193q57 0 97 45t40 108zM65 611q0 54 41.5 92.5t99.5 38.5h202q119 0 203 -82.5t84 -199.5v-178q0 -117 -84 -199.5t-203 -82.5h-343v611z" />
    <glyph glyph-name="E" unicode="E" horiz-adv-x="705" 
d="M208 303v-174h383l70 -129h-462q-58 0 -99.5 38.5t-41.5 92.5v480q0 54 41.5 92.5t99.5 38.5h462l-70 -129h-383v-181h353v-129h-353z" />
    <glyph glyph-name="F" unicode="F" horiz-adv-x="678" 
d="M215 303v-303h-150v611q0 54 41.5 92.5t99.5 38.5h462l-70 -129h-383v-181h353v-129h-353z" />
    <glyph glyph-name="G" unicode="G" horiz-adv-x="728" 
d="M318 742h100q62 0 133.5 -22.5t108.5 -58.5l-130 -100q-18 24 -49.5 38t-62.5 14h-100q-56 0 -95.5 -45t-39.5 -108v-178q0 -63 40 -108t97 -45h193v241h150v-239q0 -54 -41.5 -92.5t-99.5 -38.5h-202q-119 0 -203 82.5t-84 199.5v178q0 117 83.5 199.5t201.5 82.5z" />
    <glyph glyph-name="H" unicode="H" horiz-adv-x="771" 
d="M222 351l50 81h271v310h150v-742h-150v303h-321v-303h-150v742h150v-391z" />
    <glyph glyph-name="I" unicode="I" 
d="M72 742h150v-742h-150v742z" />
    <glyph glyph-name="J" unicode="J" horiz-adv-x="606" 
d="M388 282v460h150v-460q0 -118 -84 -202.5t-203 -84.5h-40q-62 0 -133.5 24t-108.5 62l129 100q18 -26 50 -41.5t63 -15.5h40q57 0 97 46.5t40 111.5z" />
    <glyph glyph-name="K" unicode="K" horiz-adv-x="720" 
d="M72 742h152v-310h95l190 310h170l-236 -371l246 -371h-170l-195 303h-100v-303h-152v742z" />
    <glyph glyph-name="L" unicode="L" horiz-adv-x="631" 
d="M217 129h353l70 -129h-432q-58 0 -99.5 38.5t-41.5 92.5v611h150v-613z" />
    <glyph glyph-name="M" unicode="M" horiz-adv-x="1011" 
d="M746 589l-166 -481h-158l-166 481l-57 -589h-160l68 618q7 61 47 95t91 34q39 0 71 -20.5t46 -58.5l139 -406l139 406q14 38 46 58.5t71 20.5q51 0 91 -34t47 -95l68 -618h-160z" />
    <glyph glyph-name="N" unicode="N" horiz-adv-x="797" 
d="M216 747q54 0 88 -34.5t61 -96.5l208 -490v616h150v-616q0 -53 -46 -92t-105 -39q-54 0 -88 34.5t-61 96.5l-208 490v-616h-150v616q0 53 46 92t105 39z" />
    <glyph glyph-name="O" unicode="O" horiz-adv-x="763" 
d="M422 -10h-100q-119 0 -203 82.5t-84 199.5v198q0 117 84 199.5t203 82.5h100q119 0 203 -82.5t84 -199.5v-198q0 -117 -84 -199.5t-203 -82.5zM322 119h100q57 0 97 45t40 108v198q0 63 -40 108t-97 45h-100q-57 0 -97 -45t-40 -108v-198q0 -63 40 -108t97 -45z" />
    <glyph glyph-name="P" unicode="P" horiz-adv-x="735" 
d="M215 613v-613h-150v611q0 54 41.5 92.5t99.5 38.5h202q122 0 204.5 -69t82.5 -183v-28q0 -114 -82.5 -183t-204.5 -69h-183l80 129h103q60 0 98.5 31.5t38.5 91.5v28q0 60 -38.5 91.5t-98.5 31.5h-193z" />
    <glyph glyph-name="Q" unicode="Q" horiz-adv-x="763" 
d="M322 119h100q57 0 97 45t40 108v198q0 63 -40 108t-97 45h-100q-57 0 -97 -45t-40 -108v-198q0 -63 40 -108t97 -45zM595 47l98 -107h-187l-42 53q-21 -3 -42 -3h-100q-119 0 -203 82.5t-84 199.5v198q0 117 84 199.5t203 82.5h100q119 0 203 -82.5t84 -199.5v-198
q0 -68 -30.5 -126.5t-83.5 -98.5z" />
    <glyph glyph-name="R" unicode="R" horiz-adv-x="753" 
d="M215 613v-613h-150v611q0 54 41.5 92.5t99.5 38.5h202q122 0 204.5 -69t82.5 -183v-28q0 -88 -50.5 -150t-133.5 -87l201 -225h-187l-185 210h-115l80 129h103q60 0 98.5 31.5t38.5 91.5v28q0 60 -38.5 91.5t-98.5 31.5h-193z" />
    <glyph glyph-name="S" unicode="S" horiz-adv-x="712" 
d="M41 530q0 88 81 150t196 62h100q60 0 128 -22.5t104 -58.5l-130 -100q-17 24 -45.5 38t-56.5 14h-100q-53 0 -90 -24.5t-37 -58.5q0 -23 26 -40t67 -29.5t91.5 -24.5t100.5 -30t91 -41.5t67 -62.5t26 -90q0 -88 -84 -150t-203 -62h-100q-62 0 -133.5 22.5t-108.5 58.5
l129 100q18 -24 50 -38t63 -14h100q57 0 97 24t40 59q0 30 -34.5 51t-87 33t-113 30t-113 39.5t-87 64t-34.5 100.5z" />
    <glyph glyph-name="T" unicode="T" horiz-adv-x="626" 
d="M378 0h-150v611q0 54 41.5 92.5t99.5 38.5h222v-129h-213v-613zM256 742l-80 -129h-148v129h228z" />
    <glyph glyph-name="U" unicode="U" horiz-adv-x="783" 
d="M61 742h150v-460q0 -63 40 -108t97 -45h80q57 0 97 45t40 108v460h150v-460q0 -117 -84 -199.5t-203 -82.5h-80q-119 0 -203 82.5t-84 199.5v460z" />
    <glyph glyph-name="V" unicode="V" horiz-adv-x="774" 
d="M386 150l207 592h160l-218 -621q-46 -131 -149 -131t-149 131l-218 621h160z" />
    <glyph glyph-name="W" unicode="W" horiz-adv-x="1020" 
d="M263 153l166 481h158l166 -481l57 589h160l-68 -618q-7 -61 -47 -95t-91 -34q-39 0 -71 20.5t-46 58.5l-139 406l-139 -406q-14 -38 -46 -58.5t-71 -20.5q-51 0 -91 34t-47 95l-68 618h160z" />
    <glyph glyph-name="X" unicode="X" horiz-adv-x="793" 
d="M395 437l187 305h170l-236 -371l246 -371h-170l-197 306l-197 -306h-170l246 371l-236 371h170z" />
    <glyph glyph-name="Y" unicode="Y" horiz-adv-x="738" 
d="M369 420l207 322h160l-218 -351q-36 -57 -73 -85v-306h-150v304q-39 28 -75 87l-218 351h160z" />
    <glyph glyph-name="Z" unicode="Z" horiz-adv-x="731" 
d="M167 0q-60 0 -90 31.5t-30 79.5q0 34 15 68.5t40 57.5l411 376h-447v129h478q61 0 91 -33.5t30 -84.5q0 -80 -56 -130l-411 -365h467v-129h-498z" />
    <glyph glyph-name="bracketleft" unicode="[" horiz-adv-x="359" 
d="M221 643v-674h73l70 -129h-152q-58 0 -99.5 38.5t-41.5 92.5v670q0 54 41.5 92.5t99.5 38.5h152l-70 -129h-73z" />
    <glyph glyph-name="backslash" unicode="\" horiz-adv-x="499" 
d="M75 742l470 -742h-110l-470 742h110z" />
    <glyph glyph-name="bracketright" unicode="]" horiz-adv-x="354" 
d="M132 -31v674h-73l-70 129h152q58 0 99.5 -38.5t41.5 -92.5v-670q0 -54 -41.5 -92.5t-99.5 -38.5h-152l70 129h73z" />
    <glyph glyph-name="asciicircum" unicode="^" horiz-adv-x="551" 
d="M279 571l-92 -195h-161l150 310q32 65 103 65q70 0 102 -65l150 -310h-161z" />
    <glyph glyph-name="underscore" unicode="_" horiz-adv-x="537" 
d="M75 -137v129h387v-129h-387z" />
    <glyph glyph-name="grave" unicode="`" horiz-adv-x="361" 
d="M187 742l148 -366h-110l-228 366h190z" />
    <glyph glyph-name="a" unicode="a" horiz-adv-x="753" 
d="M540 99h-325l80 129h200l-127 364l-207 -592h-160l218 621q46 131 149 131t149 -131l218 -621h-160z" />
    <glyph glyph-name="b" unicode="b" horiz-adv-x="734" 
d="M576 382q56 -29 85 -75t29 -98q0 -85 -74.5 -147t-207.5 -62h-343v611q0 54 41.5 92.5t99.5 38.5h202q114 0 178 -61t64 -145q0 -94 -74 -154zM305 439h103q45 0 70.5 26t25.5 61q0 36 -25.5 61.5t-70.5 25.5h-193v-484h193q64 0 100 26.5t36 63.5t-36 64t-100 27h-183z
" />
    <glyph glyph-name="c" unicode="c" horiz-adv-x="706" 
d="M183 460v-178q0 -63 40 -108t97 -45h100q31 0 62.5 14t49.5 38l130 -100q-37 -36 -108.5 -58.5t-133.5 -22.5h-100q-119 0 -203 82.5t-84 199.5v178q0 117 84 199.5t203 82.5h100q62 0 133.5 -22.5t108.5 -58.5l-130 -100q-18 24 -49.5 38t-62.5 14h-100q-57 0 -97 -45
t-40 -108z" />
    <glyph glyph-name="d" unicode="d" horiz-adv-x="747" 
d="M545 282v178q0 63 -40 108t-97 45h-193v-484h193q57 0 97 45t40 108zM65 611q0 54 41.5 92.5t99.5 38.5h202q119 0 203 -82.5t84 -199.5v-178q0 -117 -84 -199.5t-203 -82.5h-343v611z" />
    <glyph glyph-name="e" unicode="e" horiz-adv-x="705" 
d="M208 303v-174h383l70 -129h-462q-58 0 -99.5 38.5t-41.5 92.5v480q0 54 41.5 92.5t99.5 38.5h462l-70 -129h-383v-181h353v-129h-353z" />
    <glyph glyph-name="f" unicode="f" horiz-adv-x="678" 
d="M215 303v-303h-150v611q0 54 41.5 92.5t99.5 38.5h462l-70 -129h-383v-181h353v-129h-353z" />
    <glyph glyph-name="g" unicode="g" horiz-adv-x="728" 
d="M318 742h100q62 0 133.5 -22.5t108.5 -58.5l-130 -100q-18 24 -49.5 38t-62.5 14h-100q-56 0 -95.5 -45t-39.5 -108v-178q0 -63 40 -108t97 -45h193v241h150v-239q0 -54 -41.5 -92.5t-99.5 -38.5h-202q-119 0 -203 82.5t-84 199.5v178q0 117 83.5 199.5t201.5 82.5z" />
    <glyph glyph-name="h" unicode="h" horiz-adv-x="771" 
d="M222 351l50 81h271v310h150v-742h-150v303h-321v-303h-150v742h150v-391z" />
    <glyph glyph-name="i" unicode="i" 
d="M72 742h150v-742h-150v742z" />
    <glyph glyph-name="j" unicode="j" horiz-adv-x="606" 
d="M388 282v460h150v-460q0 -118 -84 -202.5t-203 -84.5h-40q-62 0 -133.5 24t-108.5 62l129 100q18 -26 50 -41.5t63 -15.5h40q57 0 97 46.5t40 111.5z" />
    <glyph glyph-name="k" unicode="k" horiz-adv-x="720" 
d="M72 742h152v-310h95l190 310h170l-236 -371l246 -371h-170l-195 303h-100v-303h-152v742z" />
    <glyph glyph-name="l" unicode="l" horiz-adv-x="631" 
d="M217 129h353l70 -129h-432q-58 0 -99.5 38.5t-41.5 92.5v611h150v-613z" />
    <glyph glyph-name="m" unicode="m" horiz-adv-x="1011" 
d="M746 589l-166 -481h-158l-166 481l-57 -589h-160l68 618q7 61 47 95t91 34q39 0 71 -20.5t46 -58.5l139 -406l139 406q14 38 46 58.5t71 20.5q51 0 91 -34t47 -95l68 -618h-160z" />
    <glyph glyph-name="n" unicode="n" horiz-adv-x="797" 
d="M216 747q54 0 88 -34.5t61 -96.5l208 -490v616h150v-616q0 -53 -46 -92t-105 -39q-54 0 -88 34.5t-61 96.5l-208 490v-616h-150v616q0 53 46 92t105 39z" />
    <glyph glyph-name="o" unicode="o" horiz-adv-x="763" 
d="M422 -10h-100q-119 0 -203 82.5t-84 199.5v198q0 117 84 199.5t203 82.5h100q119 0 203 -82.5t84 -199.5v-198q0 -117 -84 -199.5t-203 -82.5zM322 119h100q57 0 97 45t40 108v198q0 63 -40 108t-97 45h-100q-57 0 -97 -45t-40 -108v-198q0 -63 40 -108t97 -45z" />
    <glyph glyph-name="p" unicode="p" horiz-adv-x="735" 
d="M215 613v-613h-150v611q0 54 41.5 92.5t99.5 38.5h202q122 0 204.5 -69t82.5 -183v-28q0 -114 -82.5 -183t-204.5 -69h-183l80 129h103q60 0 98.5 31.5t38.5 91.5v28q0 60 -38.5 91.5t-98.5 31.5h-193z" />
    <glyph glyph-name="q" unicode="q" horiz-adv-x="763" 
d="M322 119h100q57 0 97 45t40 108v198q0 63 -40 108t-97 45h-100q-57 0 -97 -45t-40 -108v-198q0 -63 40 -108t97 -45zM595 47l98 -107h-187l-42 53q-21 -3 -42 -3h-100q-119 0 -203 82.5t-84 199.5v198q0 117 84 199.5t203 82.5h100q119 0 203 -82.5t84 -199.5v-198
q0 -68 -30.5 -126.5t-83.5 -98.5z" />
    <glyph glyph-name="r" unicode="r" horiz-adv-x="753" 
d="M215 613v-613h-150v611q0 54 41.5 92.5t99.5 38.5h202q122 0 204.5 -69t82.5 -183v-28q0 -88 -50.5 -150t-133.5 -87l201 -225h-187l-185 210h-115l80 129h103q60 0 98.5 31.5t38.5 91.5v28q0 60 -38.5 91.5t-98.5 31.5h-193z" />
    <glyph glyph-name="s" unicode="s" horiz-adv-x="712" 
d="M41 530q0 88 81 150t196 62h100q60 0 128 -22.5t104 -58.5l-130 -100q-17 24 -45.5 38t-56.5 14h-100q-53 0 -90 -24.5t-37 -58.5q0 -23 26 -40t67 -29.5t91.5 -24.5t100.5 -30t91 -41.5t67 -62.5t26 -90q0 -88 -84 -150t-203 -62h-100q-62 0 -133.5 22.5t-108.5 58.5
l129 100q18 -24 50 -38t63 -14h100q57 0 97 24t40 59q0 30 -34.5 51t-87 33t-113 30t-113 39.5t-87 64t-34.5 100.5z" />
    <glyph glyph-name="t" unicode="t" horiz-adv-x="626" 
d="M378 0h-150v611q0 54 41.5 92.5t99.5 38.5h222v-129h-213v-613zM256 742l-80 -129h-148v129h228z" />
    <glyph glyph-name="u" unicode="u" horiz-adv-x="783" 
d="M61 742h150v-460q0 -63 40 -108t97 -45h80q57 0 97 45t40 108v460h150v-460q0 -117 -84 -199.5t-203 -82.5h-80q-119 0 -203 82.5t-84 199.5v460z" />
    <glyph glyph-name="v" unicode="v" horiz-adv-x="774" 
d="M386 150l207 592h160l-218 -621q-46 -131 -149 -131t-149 131l-218 621h160z" />
    <glyph glyph-name="w" unicode="w" horiz-adv-x="1020" 
d="M263 153l166 481h158l166 -481l57 589h160l-68 -618q-7 -61 -47 -95t-91 -34q-39 0 -71 20.5t-46 58.5l-139 406l-139 -406q-14 -38 -46 -58.5t-71 -20.5q-51 0 -91 34t-47 95l-68 618h160z" />
    <glyph glyph-name="x" unicode="x" horiz-adv-x="793" 
d="M395 437l187 305h170l-236 -371l246 -371h-170l-197 306l-197 -306h-170l246 371l-236 371h170z" />
    <glyph glyph-name="y" unicode="y" horiz-adv-x="738" 
d="M369 420l207 322h160l-218 -351q-36 -57 -73 -85v-306h-150v304q-39 28 -75 87l-218 351h160z" />
    <glyph glyph-name="z" unicode="z" horiz-adv-x="731" 
d="M167 0q-60 0 -90 31.5t-30 79.5q0 34 15 68.5t40 57.5l411 376h-447v129h478q61 0 91 -33.5t30 -84.5q0 -80 -56 -130l-411 -365h467v-129h-498z" />
    <glyph glyph-name="braceleft" unicode="{" horiz-adv-x="327" 
d="M272 -148q-103 0 -151.5 43.5t-48.5 131.5q0 30 7 93.5t7 92.5q0 38 -15 38h-22v103h22q15 0 15 38q0 29 -7 92t-7 93q0 88 48.5 132t151.5 44h22v-104h-22q-43 0 -57 -26t-14 -76q0 -28 7.5 -89.5t7.5 -88.5q0 -39 -23 -67q23 -28 23 -66q0 -27 -7.5 -88t-7.5 -89
q0 -50 14.5 -76.5t56.5 -26.5h22v-104h-22z" />
    <glyph glyph-name="bar" unicode="|" horiz-adv-x="220" 
d="M74 782h70v-962h-70v962z" />
    <glyph glyph-name="braceright" unicode="}" horiz-adv-x="323" 
d="M51 753q103 0 151.5 -43.5t48.5 -131.5q0 -30 -7 -93t-7 -93q0 -38 15 -38h22v-103h-22q-15 0 -15 -38q0 -29 7 -92t7 -93q0 -88 -48.5 -132t-151.5 -44h-22v104h22q43 0 57 26t14 76q0 28 -7.5 89.5t-7.5 88.5q0 39 23 67q-23 28 -23 66q0 27 7.5 88t7.5 89
q0 50 -14.5 76.5t-56.5 26.5h-22v104h22z" />
    <glyph glyph-name="asciitilde" unicode="~" horiz-adv-x="507" 
d="M149 352q0 -18 24 -49l-80 -57q-1 2 -4 6.5t-5 6.5q-35 47 -35 103q0 45 27 79t72 34q33 0 65.5 -18.5t68 -49.5t50.5 -40t22 -9q10 0 10 16q0 19 -15 41q-2 2 -5 7t-5 7l79 57q2 -2 5 -6.5l5 -7.5q37 -52 37 -108q0 -44 -28 -78t-73 -34q-33 0 -65.5 18.5t-68.5 49.5
t-52 41q-13 8 -20 8q-9 0 -9 -17z" />
    </font>
</defs>
</svg>
